<?xml version="1.0" standalone="no"?>
<!DOCTYPE svg PUBLIC "-//W3C//DTD SVG 1.1//EN" "http://www.w3.org/Graphics/SVG/1.1/DTD/svg11.dtd" >
<svg xmlns="http://www.w3.org/2000/svg" xmlns:xlink="http://www.w3.org/1999/xlink" version="1.1">
<metadata>
Created by FontForge 20201107 at Wed Oct 21 13:12:28 2020
 By Unknown
Copyright \(c\) 2015 by Reto Moser. All rights reserved.
</metadata>
<defs>
<font id="GTEestiDisplay-Lt" horiz-adv-x="600" >
  <font-face 
    font-family="GT Eesti Display Lt"
    font-weight="300"
    font-stretch="normal"
    units-per-em="1000"
    panose-1="0 0 4 0 0 0 0 0 0 0"
    ascent="750"
    descent="-250"
    x-height="462"
    cap-height="700"
    bbox="-550 -251 1209 890"
    underline-thickness="50"
    underline-position="-100"
    stemh="73"
    stemv="77"
    unicode-range="U+0020-FB02"
  />
<missing-glyph horiz-adv-x="770" 
d="M385 -15c-211 0 -365 154 -365 365c0 212 154 365 365 365c212 0 365 -153 365 -365c0 -211 -153 -365 -365 -365zM385 10c197 0 342 146 342 345l-51 65l-70 -30l-68 90l-79 -44l-74 118l-74 -118l-79 44l-68 -90l-70 30l-51 -65c0 -199 145 -345 342 -345zM282 318
c-20 0 -35 15 -35 35s15 35 35 35s35 -15 35 -35s-15 -35 -35 -35zM487 318c-20 0 -35 15 -35 35s15 35 35 35s35 -15 35 -35s-15 -35 -35 -35zM401 255h-58l36 101c1 5 6 7 11 5c4 -1 7 -6 5 -11l-28 -78h34c5 0 9 -4 9 -9c0 -4 -4 -8 -9 -8zM188 171c-40 0 -69 29 -69 69
s29 69 69 69s69 -29 69 -69s-29 -69 -69 -69zM581 171c-40 0 -69 29 -69 69s29 69 69 69s69 -29 69 -69s-29 -69 -69 -69zM385 193c-29 0 -52 -11 -62 -30c-2 -4 -4 -6 -9 -6s-8 4 -8 9c0 23 39 45 79 45s79 -22 79 -45c0 -5 -3 -9 -8 -9c-4 0 -7 2 -9 6
c-10 19 -33 30 -62 30z" />
    <glyph glyph-name="f_f" unicode="ff" horiz-adv-x="615" 
d="M109 462v77c0 115 63 171 164 171h16v-68h-13c-55 0 -96 -25 -96 -102v-78h105v-62h-105v-400h-71v400h-85v62h85zM597 642h-13c-55 0 -96 -25 -96 -102v-78h105v-62h-105v-400h-71v400h-85v62h85v77c0 115 63 171 164 171h16v-68z" />
    <glyph glyph-name="f_f_i" unicode="ffi" horiz-adv-x="817" 
d="M109 462v77c0 115 63 171 164 171h16v-68h-13c-55 0 -96 -25 -96 -102v-78h105v-62h-105v-400h-71v400h-85v62h85zM417 462v77c0 115 63 171 164 171h16v-68h-13c-55 0 -96 -25 -96 -102v-78h105v-62h-105v-400h-71v400h-85v62h85zM670 570v120h91v-120h-91zM752 0h-72
v462h72v-462z" />
    <glyph glyph-name="f_f_l" unicode="ffl" horiz-adv-x="821" 
d="M109 462v77c0 115 63 171 164 171h16v-68h-13c-55 0 -96 -25 -96 -102v-78h105v-62h-105v-400h-71v400h-85v62h85zM417 462v77c0 115 63 171 164 171h16v-68h-13c-55 0 -96 -25 -96 -102v-78h105v-62h-105v-400h-71v400h-85v62h85zM682 0v700h72v-700h-72z" />
    <glyph glyph-name="f_i" unicode="fi" horiz-adv-x="510" 
d="M109 462v77c0 115 63 171 164 171h16v-68h-13c-55 0 -96 -25 -96 -102v-78h105v-62h-105v-400h-71v400h-85v62h85zM363 570v120h91v-120h-91zM445 0h-72v462h72v-462z" />
    <glyph glyph-name="f_l" unicode="fl" horiz-adv-x="514" 
d="M109 462v77c0 115 63 171 164 171h16v-68h-13c-55 0 -96 -25 -96 -102v-78h105v-62h-105v-400h-71v400h-85v62h85zM375 0v700h72v-700h-72z" />
    <glyph glyph-name=".notdef" horiz-adv-x="770" 
d="M385 -15c-211 0 -365 154 -365 365c0 212 154 365 365 365c212 0 365 -153 365 -365c0 -211 -153 -365 -365 -365zM385 10c197 0 342 146 342 345l-51 65l-70 -30l-68 90l-79 -44l-74 118l-74 -118l-79 44l-68 -90l-70 30l-51 -65c0 -199 145 -345 342 -345zM282 318
c-20 0 -35 15 -35 35s15 35 35 35s35 -15 35 -35s-15 -35 -35 -35zM487 318c-20 0 -35 15 -35 35s15 35 35 35s35 -15 35 -35s-15 -35 -35 -35zM401 255h-58l36 101c1 5 6 7 11 5c4 -1 7 -6 5 -11l-28 -78h34c5 0 9 -4 9 -9c0 -4 -4 -8 -9 -8zM188 171c-40 0 -69 29 -69 69
s29 69 69 69s69 -29 69 -69s-29 -69 -69 -69zM581 171c-40 0 -69 29 -69 69s29 69 69 69s69 -29 69 -69s-29 -69 -69 -69zM385 193c-29 0 -52 -11 -62 -30c-2 -4 -4 -6 -9 -6s-8 4 -8 9c0 23 39 45 79 45s79 -22 79 -45c0 -5 -3 -9 -8 -9c-4 0 -7 2 -9 6
c-10 19 -33 30 -62 30z" />
    <glyph glyph-name=".null" horiz-adv-x="0" 
 />
    <glyph glyph-name="CR" horiz-adv-x="298" 
 />
    <glyph glyph-name="space" unicode=" " horiz-adv-x="298" 
 />
    <glyph glyph-name="A" unicode="A" horiz-adv-x="659" 
d="M651 0h-83l-74 187h-329l-74 -187h-84l286 700h73zM330 602l-137 -344h273z" />
    <glyph glyph-name="B" unicode="B" horiz-adv-x="611" 
d="M417 374v-2c93 -12 152 -77 152 -175c0 -130 -101 -197 -220 -197h-275v700h248c124 0 206 -65 206 -175c0 -74 -40 -132 -111 -151zM305 627h-154v-227h150c96 0 143 39 143 112c0 76 -47 115 -139 115zM151 73h185c94 0 150 51 150 129c0 76 -55 127 -158 127h-177
v-256z" />
    <glyph glyph-name="C" unicode="C" horiz-adv-x="685" 
d="M411 -15c-224 0 -374 148 -374 365s150 365 374 365c103 0 178 -30 244 -79l-47 -67c-49 37 -112 68 -199 68c-169 0 -288 -116 -288 -287s119 -287 288 -287c87 0 150 31 199 68l47 -67c-66 -49 -141 -79 -244 -79z" />
    <glyph glyph-name="D" unicode="D" horiz-adv-x="683" 
d="M74 700h219c203 0 352 -132 352 -350s-149 -350 -352 -350h-219v700zM293 627h-142v-555h142c152 0 269 97 269 278c0 180 -117 277 -269 277z" />
    <glyph glyph-name="E" unicode="E" horiz-adv-x="518" 
d="M151 354v-281h320v-73h-397v700h392v-73h-315v-201h290v-72h-290z" />
    <glyph glyph-name="F" unicode="F" horiz-adv-x="501" 
d="M471 700v-73h-320v-227h294v-72h-294v-328h-77v700h397z" />
    <glyph glyph-name="G" unicode="G" horiz-adv-x="790" 
d="M434 301v73h326v-32c0 -173 -111 -357 -353 -357c-214 0 -370 145 -370 363c0 215 151 367 370 367c118 0 202 -41 268 -93l-53 -65c-52 43 -122 80 -218 80c-167 0 -283 -123 -283 -288s115 -286 288 -286c183 0 263 136 269 238h-244z" />
    <glyph glyph-name="H" unicode="H" horiz-adv-x="702" 
d="M551 409v291h77v-700h-77v335h-400v-335h-77v700h77v-291h400z" />
    <glyph glyph-name="I" unicode="I" horiz-adv-x="227" 
d="M74 700h78v-700h-78v700z" />
    <glyph glyph-name="J" unicode="J" horiz-adv-x="270" 
d="M119 700h77v-534c0 -117 -47 -171 -147 -171h-32v75h25c50 0 77 22 77 96v534z" />
    <glyph glyph-name="K" unicode="K" horiz-adv-x="612" 
d="M240 376l365 -376h-115l-339 357v-357h-77v700h77v-315l300 315h109z" />
    <glyph glyph-name="L" unicode="L" horiz-adv-x="485" 
d="M74 700h77v-626h325v-74h-402v700z" />
    <glyph glyph-name="M" unicode="M" horiz-adv-x="844" 
d="M602 700h64l171 -700h-82l-130 551h-2l-171 -439h-60l-171 439h-2l-130 -551h-82l171 700h64l179 -468h2z" />
    <glyph glyph-name="N" unicode="N" horiz-adv-x="694" 
d="M542 700h77v-700h-82l-384 569h-2v-569h-77v700h82l384 -569h2v569z" />
    <glyph glyph-name="O" unicode="O" horiz-adv-x="804" 
d="M402 715c208 0 365 -150 365 -365s-157 -365 -365 -365s-365 150 -365 365s157 365 365 365zM402 637c-164 0 -281 -120 -281 -287s117 -287 281 -287c165 0 281 120 281 287s-116 287 -281 287z" />
    <glyph glyph-name="P" unicode="P" horiz-adv-x="542" 
d="M74 700h236c133 0 211 -88 211 -207c0 -117 -78 -206 -211 -206h-159v-287h-77v700zM151 360h151c81 0 136 46 136 133c0 88 -55 134 -136 134h-151v-267z" />
    <glyph glyph-name="Q" unicode="Q" horiz-adv-x="808" 
d="M674 98l95 -98h-99l-50 51c-60 -42 -135 -66 -218 -66c-208 0 -365 150 -365 365s157 365 365 365s365 -150 365 -365c0 -101 -35 -188 -93 -252zM402 63c62 0 117 17 161 47l-155 160h99l109 -113c43 50 67 117 67 193c0 167 -116 287 -281 287
c-164 0 -281 -120 -281 -287s117 -287 281 -287z" />
    <glyph glyph-name="R" unicode="R" horiz-adv-x="571" 
d="M555 0h-97l-208 301h-99v-301h-77v700h233c121 0 213 -71 213 -200c0 -113 -74 -185 -178 -197zM297 627h-146v-253h146c92 0 140 50 140 126c0 77 -48 127 -140 127z" />
    <glyph glyph-name="S" unicode="S" horiz-adv-x="497" 
d="M256 715c67 0 126 -19 178 -44l-36 -74c-47 26 -95 40 -143 40c-71 0 -105 -32 -105 -80c0 -47 31 -75 75 -107l115 -85c74 -54 117 -108 117 -192c0 -124 -89 -188 -217 -188c-81 0 -162 26 -221 64l37 72c52 -32 117 -58 184 -58c93 0 135 48 135 105
c0 48 -28 83 -91 130l-114 86c-60 45 -103 93 -103 170c0 98 68 161 189 161z" />
    <glyph glyph-name="T" unicode="T" horiz-adv-x="515" 
d="M10 700h495v-73h-209v-627h-77v627h-209v73z" />
    <glyph glyph-name="U" unicode="U" horiz-adv-x="689" 
d="M539 700h81v-437c0 -167 -102 -278 -276 -278c-173 0 -276 111 -276 278v437h82v-431c0 -129 79 -204 194 -204c116 0 195 75 195 204v431z" />
    <glyph glyph-name="V" unicode="V" horiz-adv-x="604" 
d="M506 700h89l-256 -700h-74l-256 700h90l202 -589h3z" />
    <glyph glyph-name="W" unicode="W" horiz-adv-x="973" 
d="M871 700h87l-212 -700h-77l-181 571h-3l-181 -571h-77l-212 700h86l163 -576h2l180 576h80l181 -576h2z" />
    <glyph glyph-name="X" unicode="X" horiz-adv-x="604" 
d="M350 372l240 -372h-92l-196 306l-196 -306h-92l240 371l-212 329h92l168 -263l168 263h92z" />
    <glyph glyph-name="Y" unicode="Y" horiz-adv-x="534" 
d="M440 700h90l-224 -426v-274h-78v274l-224 426h90l172 -343h2z" />
    <glyph glyph-name="Z" unicode="Z" horiz-adv-x="538" 
d="M506 627l-394 -554h406v-73h-498v73l393 554h-358v73h451v-73z" />
    <glyph glyph-name="Aacute" unicode="&#xc1;" horiz-adv-x="659" 
d="M393 863h97l-134 -120h-58zM651 0h-83l-74 187h-329l-74 -187h-84l286 700h73zM330 602l-137 -344h273z" />
    <glyph glyph-name="Abreve" unicode="&#x102;" horiz-adv-x="659" 
d="M329 743c-79 0 -133 44 -136 120h53c3 -45 33 -70 83 -70s80 25 83 70h53c-3 -76 -57 -120 -136 -120zM651 0h-83l-74 187h-329l-74 -187h-84l286 700h73zM330 602l-137 -344h273z" />
    <glyph glyph-name="Acircumflex" unicode="&#xc2;" horiz-adv-x="659" 
d="M413 743l-84 81l-83 -81h-77l122 120h76l123 -120h-77zM651 0h-83l-74 187h-329l-74 -187h-84l286 700h73zM330 602l-137 -344h273z" />
    <glyph glyph-name="Adieresis" unicode="&#xc4;" horiz-adv-x="659" 
d="M188 843h83v-100h-83v100zM387 843h83v-100h-83v100zM651 0h-83l-74 187h-329l-74 -187h-84l286 700h73zM330 602l-137 -344h273z" />
    <glyph glyph-name="AE" unicode="&#xc6;" horiz-adv-x="927" 
d="M591 354v-281h289v-73h-365v187h-287l-124 -187h-97l470 700h398v-73h-284v-201h259v-72h-259zM515 620l-240 -362h240v362z" />
    <glyph glyph-name="AEacute" unicode="&#x1fc;" horiz-adv-x="927" 
d="M741 863h97l-134 -120h-58zM591 354v-281h289v-73h-365v187h-287l-124 -187h-97l470 700h398v-73h-284v-201h259v-72h-259zM515 620l-240 -362h240v362z" />
    <glyph glyph-name="Agrave" unicode="&#xc0;" horiz-adv-x="659" 
d="M265 863l95 -120h-58l-134 120h97zM651 0h-83l-74 187h-329l-74 -187h-84l286 700h73zM330 602l-137 -344h273z" />
    <glyph glyph-name="Amacron" unicode="&#x100;" horiz-adv-x="659" 
d="M188 829h282v-56h-282v56zM651 0h-83l-74 187h-329l-74 -187h-84l286 700h73zM330 602l-137 -344h273z" />
    <glyph glyph-name="Aogonek" unicode="&#x104;" horiz-adv-x="659" 
d="M566 -135c12 0 30 3 44 7l8 -49c-21 -7 -48 -10 -65 -10c-46 0 -86 22 -86 71c0 42 28 85 92 138l-65 165h-329l-74 -187h-84l286 700h73l285 -700h-50c-55 -44 -75 -79 -75 -106c0 -21 19 -29 40 -29zM330 602l-137 -344h273z" />
    <glyph glyph-name="Aring" unicode="&#xc5;" horiz-adv-x="659" 
d="M651 0h-83l-74 187h-329l-74 -187h-84l274 671c-41 17 -67 56 -67 104c0 67 49 115 116 115s115 -48 115 -115c0 -49 -26 -88 -67 -105zM255 775c0 -43 30 -75 74 -75c45 0 75 32 75 75c0 45 -30 76 -75 76c-44 0 -74 -31 -74 -76zM330 602l-137 -344h273z" />
    <glyph glyph-name="Atilde" unicode="&#xc3;" horiz-adv-x="659" 
d="M252 800c-22 0 -41 -15 -54 -47l-33 11c13 44 40 94 96 94c54 0 121 -52 162 -52c22 0 41 15 54 46l33 -10c-13 -44 -40 -95 -96 -95c-55 0 -120 53 -162 53zM651 0h-83l-74 187h-329l-74 -187h-84l286 700h73zM330 602l-137 -344h273z" />
    <glyph glyph-name="Cacute" unicode="&#x106;" horiz-adv-x="685" 
d="M473 863h97l-134 -120h-58zM411 -15c-224 0 -374 148 -374 365s150 365 374 365c103 0 178 -30 244 -79l-47 -67c-49 37 -112 68 -199 68c-169 0 -288 -116 -288 -287s119 -287 288 -287c87 0 150 31 199 68l47 -67c-66 -49 -141 -79 -244 -79z" />
    <glyph glyph-name="Ccaron" unicode="&#x10c;" horiz-adv-x="685" 
d="M570 863l-123 -120h-76l-122 120h77l83 -81l84 81h77zM411 -15c-224 0 -374 148 -374 365s150 365 374 365c103 0 178 -30 244 -79l-47 -67c-49 37 -112 68 -199 68c-169 0 -288 -116 -288 -287s119 -287 288 -287c87 0 150 31 199 68l47 -67c-66 -49 -141 -79 -244 -79z
" />
    <glyph glyph-name="Ccedilla" unicode="&#xc7;" horiz-adv-x="685" 
d="M608 131l47 -67c-65 -48 -138 -78 -238 -79l-10 -26c33 -9 70 -24 70 -70c0 -48 -57 -72 -124 -101l-11 24c52 25 84 43 84 65c0 25 -22 33 -66 43l25 66c-210 11 -348 156 -348 364c0 217 150 365 374 365c103 0 178 -30 244 -79l-47 -67c-49 37 -112 68 -199 68
c-169 0 -288 -116 -288 -287s119 -287 288 -287c87 0 150 31 199 68z" />
    <glyph glyph-name="Ccircumflex" unicode="&#x108;" horiz-adv-x="685" 
d="M371 863h76l123 -120h-77l-84 81l-83 -81h-77zM411 -15c-224 0 -374 148 -374 365s150 365 374 365c103 0 178 -30 244 -79l-47 -67c-49 37 -112 68 -199 68c-169 0 -288 -116 -288 -287s119 -287 288 -287c87 0 150 31 199 68l47 -67c-66 -49 -141 -79 -244 -79z" />
    <glyph glyph-name="Cdotaccent" unicode="&#x10a;" horiz-adv-x="685" 
d="M366 850h83v-107h-83v107zM411 -15c-224 0 -374 148 -374 365s150 365 374 365c103 0 178 -30 244 -79l-47 -67c-49 37 -112 68 -199 68c-169 0 -288 -116 -288 -287s119 -287 288 -287c87 0 150 31 199 68l47 -67c-66 -49 -141 -79 -244 -79z" />
    <glyph glyph-name="Dcaron" unicode="&#x10e;" horiz-adv-x="683" 
d="M447 863l-123 -120h-76l-122 120h77l83 -81l84 81h77zM74 700h219c203 0 352 -132 352 -350s-149 -350 -352 -350h-219v700zM293 627h-142v-555h142c152 0 269 97 269 278c0 180 -117 277 -269 277z" />
    <glyph glyph-name="Dcroat" unicode="&#x110;" horiz-adv-x="693" 
d="M84 700h219c203 0 352 -132 352 -350s-149 -350 -352 -350h-219v327h-80v63h80v310zM161 72h142c152 0 269 97 269 278c0 180 -117 277 -269 277h-142v-237h186v-63h-186v-255z" />
    <glyph glyph-name="Eacute" unicode="&#xc9;" horiz-adv-x="518" 
d="M353 863h97l-134 -120h-58zM151 354v-281h320v-73h-397v700h392v-73h-315v-201h290v-72h-290z" />
    <glyph glyph-name="Ebreve" unicode="&#x114;" horiz-adv-x="518" 
d="M289 743c-79 0 -133 44 -136 120h53c3 -45 33 -70 83 -70s80 25 83 70h53c-3 -76 -57 -120 -136 -120zM151 354v-281h320v-73h-397v700h392v-73h-315v-201h290v-72h-290z" />
    <glyph glyph-name="Ecaron" unicode="&#x11a;" horiz-adv-x="518" 
d="M450 863l-123 -120h-76l-122 120h77l83 -81l84 81h77zM151 354v-281h320v-73h-397v700h392v-73h-315v-201h290v-72h-290z" />
    <glyph glyph-name="Ecircumflex" unicode="&#xca;" horiz-adv-x="518" 
d="M373 743l-84 81l-83 -81h-77l122 120h76l123 -120h-77zM151 354v-281h320v-73h-397v700h392v-73h-315v-201h290v-72h-290z" />
    <glyph glyph-name="Edieresis" unicode="&#xcb;" horiz-adv-x="518" 
d="M148 843h83v-100h-83v100zM347 843h83v-100h-83v100zM151 354v-281h320v-73h-397v700h392v-73h-315v-201h290v-72h-290z" />
    <glyph glyph-name="Edotaccent" unicode="&#x116;" horiz-adv-x="518" 
d="M247 850h83v-107h-83v107zM151 354v-281h320v-73h-397v700h392v-73h-315v-201h290v-72h-290z" />
    <glyph glyph-name="Egrave" unicode="&#xc8;" horiz-adv-x="518" 
d="M225 863l95 -120h-58l-134 120h97zM151 354v-281h320v-73h-397v700h392v-73h-315v-201h290v-72h-290z" />
    <glyph glyph-name="Emacron" unicode="&#x112;" horiz-adv-x="518" 
d="M147 829h282v-56h-282v56zM151 354v-281h320v-73h-397v700h392v-73h-315v-201h290v-72h-290z" />
    <glyph glyph-name="Eogonek" unicode="&#x118;" horiz-adv-x="518" 
d="M471 0h-24c-55 -44 -75 -79 -75 -106c0 -21 19 -29 40 -29c12 0 30 3 44 7l8 -49c-21 -7 -48 -10 -65 -10c-46 0 -86 22 -86 71c0 36 20 73 67 116h-306v700h392v-73h-315v-201h290v-72h-290v-281h320v-73z" />
    <glyph glyph-name="Eth" unicode="&#xd0;" horiz-adv-x="693" 
d="M84 700h219c203 0 352 -132 352 -350s-149 -350 -352 -350h-219v327h-80v63h80v310zM161 72h142c152 0 269 97 269 278c0 180 -117 277 -269 277h-142v-237h186v-63h-186v-255z" />
    <glyph glyph-name="Gbreve" unicode="&#x11e;" horiz-adv-x="790" 
d="M400 743c-79 0 -133 44 -136 120h53c3 -45 33 -70 83 -70s80 25 83 70h53c-3 -76 -57 -120 -136 -120zM434 301v73h326v-32c0 -173 -111 -357 -353 -357c-214 0 -370 145 -370 363c0 215 151 367 370 367c118 0 202 -41 268 -93l-53 -65c-52 43 -122 80 -218 80
c-167 0 -283 -123 -283 -288s115 -286 288 -286c183 0 263 136 269 238h-244z" />
    <glyph glyph-name="Gcircumflex" unicode="&#x11c;" horiz-adv-x="790" 
d="M484 743l-84 81l-83 -81h-77l122 120h76l123 -120h-77zM434 301v73h326v-32c0 -173 -111 -357 -353 -357c-214 0 -370 145 -370 363c0 215 151 367 370 367c118 0 202 -41 268 -93l-53 -65c-52 43 -122 80 -218 80c-167 0 -283 -123 -283 -288s115 -286 288 -286
c183 0 263 136 269 238h-244z" />
    <glyph glyph-name="uni0122" unicode="&#x122;" horiz-adv-x="790" 
d="M434 301v73h326v-32c0 -173 -111 -357 -353 -357c-214 0 -370 145 -370 363c0 215 151 367 370 367c118 0 202 -41 268 -93l-53 -65c-52 43 -122 80 -218 80c-167 0 -283 -123 -283 -288s115 -286 288 -286c183 0 263 136 269 238h-244zM399 -129h-34v82h88v-82l-62 -77
h-31z" />
    <glyph glyph-name="Gdotaccent" unicode="&#x120;" horiz-adv-x="790" 
d="M358 850h83v-107h-83v107zM434 301v73h326v-32c0 -173 -111 -357 -353 -357c-214 0 -370 145 -370 363c0 215 151 367 370 367c118 0 202 -41 268 -93l-53 -65c-52 43 -122 80 -218 80c-167 0 -283 -123 -283 -288s115 -286 288 -286c183 0 263 136 269 238h-244z" />
    <glyph glyph-name="Hbar" unicode="&#x126;" horiz-adv-x="693" 
d="M624 579h69v-65h-69v-514h-77v335h-400v-335h-77v514h-70v65h70v121h77v-121h400v121h77v-121zM147 409h400v105h-400v-105z" />
    <glyph glyph-name="Hcircumflex" unicode="&#x124;" horiz-adv-x="702" 
d="M435 743l-84 81l-83 -81h-77l122 120h76l123 -120h-77zM551 409v291h77v-700h-77v335h-400v-335h-77v700h77v-291h400z" />
    <glyph glyph-name="Iacute" unicode="&#xcd;" horiz-adv-x="227" 
d="M177 863h97l-134 -120h-58zM74 700h78v-700h-78v700z" />
    <glyph glyph-name="Ibreve" unicode="&#x12c;" horiz-adv-x="227" 
d="M196 863h53c-3 -76 -57 -120 -136 -120s-133 44 -136 120h53c3 -45 33 -70 83 -70s80 25 83 70zM74 700h78v-700h-78v700z" />
    <glyph glyph-name="Icircumflex" unicode="&#xce;" horiz-adv-x="227" 
d="M75 863h76l123 -120h-77l-84 81l-83 -81h-77zM74 700h78v-700h-78v700z" />
    <glyph glyph-name="Idieresis" unicode="&#xcf;" horiz-adv-x="227" 
d="M-28 843h83v-100h-83v100zM171 843h83v-100h-83v100zM74 700h78v-700h-78v700z" />
    <glyph glyph-name="Idotaccent" unicode="&#x130;" horiz-adv-x="227" 
d="M71 850h83v-107h-83v107zM74 700h78v-700h-78v700z" />
    <glyph glyph-name="Igrave" unicode="&#xcc;" horiz-adv-x="227" 
d="M-48 863h97l95 -120h-58zM74 700h78v-700h-78v700z" />
    <glyph glyph-name="IJ" unicode="&#x132;" horiz-adv-x="497" 
d="M74 700h78v-700h-78v700zM346 700h77v-534c0 -117 -47 -171 -147 -171h-32v75h25c50 0 77 22 77 96v534z" />
    <glyph glyph-name="uni004A0301" horiz-adv-x="270" 
d="M222 863h97l-134 -120h-58zM119 700h77v-534c0 -117 -47 -171 -147 -171h-32v75h25c50 0 77 22 77 96v534z" />
    <glyph glyph-name="Imacron" unicode="&#x12a;" horiz-adv-x="227" 
d="M-28 829h282v-56h-282v56zM74 700h78v-700h-78v700z" />
    <glyph glyph-name="Iogonek" unicode="&#x12e;" horiz-adv-x="227" 
d="M152 0h-12c-60 -46 -81 -82 -81 -110c0 -21 19 -29 40 -29c12 0 30 3 44 7l8 -49c-21 -7 -48 -10 -65 -10c-46 0 -86 22 -86 71c0 38 23 77 74 123v697h78v-700z" />
    <glyph glyph-name="Itilde" unicode="&#x128;" horiz-adv-x="227" 
d="M198 747c-55 0 -120 53 -162 53c-22 0 -41 -15 -54 -47l-33 11c13 44 40 94 96 94c54 0 121 -52 162 -52c22 0 41 15 54 46l33 -10c-13 -44 -40 -95 -96 -95zM74 700h78v-700h-78v700z" />
    <glyph glyph-name="Jcircumflex" unicode="&#x134;" horiz-adv-x="270" 
d="M119 863h76l123 -120h-77l-84 81l-83 -81h-77zM119 700h77v-534c0 -117 -47 -171 -147 -171h-32v75h25c50 0 77 22 77 96v534z" />
    <glyph glyph-name="uni0136" unicode="&#x136;" horiz-adv-x="612" 
d="M560 700l-320 -324l365 -376h-115l-339 357v-357h-77v700h77v-315l300 315h109zM296 -129h-34v82h88v-82l-62 -77h-31z" />
    <glyph glyph-name="Lacute" unicode="&#x139;" horiz-adv-x="485" 
d="M200 863h97l-134 -120h-58zM74 700h77v-626h325v-74h-402v700z" />
    <glyph glyph-name="Lcaron" unicode="&#x13d;" horiz-adv-x="485" 
d="M316 533l40 174h72l-57 -174h-55zM74 700h77v-626h325v-74h-402v700z" />
    <glyph glyph-name="uni013B" unicode="&#x13b;" horiz-adv-x="485" 
d="M151 700v-626h325v-74h-402v700h77zM276 -129h-34v82h88v-82l-62 -77h-31z" />
    <glyph glyph-name="Ldot" unicode="&#x13f;" horiz-adv-x="485" 
d="M74 700h77v-626h325v-74h-402v700zM309 468h103v-103h-103v103z" />
    <glyph glyph-name="Lslash" unicode="&#x141;" horiz-adv-x="485" 
d="M151 333v-259h325v-74h-402v293l-80 -41v56l80 41v351h77v-311l187 96v-56z" />
    <glyph glyph-name="Nacute" unicode="&#x143;" horiz-adv-x="694" 
d="M414 863h97l-134 -120h-58zM542 700h77v-700h-82l-384 569h-2v-569h-77v700h82l384 -569h2v569z" />
    <glyph glyph-name="Ncaron" unicode="&#x147;" horiz-adv-x="694" 
d="M511 863l-123 -120h-76l-122 120h77l83 -81l84 81h77zM542 700h77v-700h-82l-384 569h-2v-569h-77v700h82l384 -569h2v569z" />
    <glyph glyph-name="uni0145" unicode="&#x145;" horiz-adv-x="694" 
d="M542 131v569h77v-700h-82l-384 569h-2v-569h-77v700h82l384 -569h2zM336 -129h-34v82h88v-82l-62 -77h-31z" />
    <glyph glyph-name="Ntilde" unicode="&#xd1;" horiz-adv-x="694" 
d="M435 747c-55 0 -120 53 -162 53c-22 0 -41 -15 -54 -47l-33 11c13 44 40 94 96 94c54 0 121 -52 162 -52c22 0 41 15 54 46l33 -10c-13 -44 -40 -95 -96 -95zM542 700h77v-700h-82l-384 569h-2v-569h-77v700h82l384 -569h2v569z" />
    <glyph glyph-name="Eng" unicode="&#x14a;" horiz-adv-x="694" 
d="M542 137v563h77v-759c0 -86 -41 -141 -128 -141h-51v74h40c40 0 62 20 62 69v57l-389 568h-2v-568h-77v700h82l384 -563h2z" />
    <glyph glyph-name="Oacute" unicode="&#xd3;" horiz-adv-x="804" 
d="M466 863h97l-134 -120h-58zM402 715c208 0 365 -150 365 -365s-157 -365 -365 -365s-365 150 -365 365s157 365 365 365zM402 637c-164 0 -281 -120 -281 -287s117 -287 281 -287c165 0 281 120 281 287s-116 287 -281 287z" />
    <glyph glyph-name="Obreve" unicode="&#x14e;" horiz-adv-x="804" 
d="M485 863h53c-3 -76 -57 -120 -136 -120s-133 44 -136 120h53c3 -45 33 -70 83 -70s80 25 83 70zM402 715c208 0 365 -150 365 -365s-157 -365 -365 -365s-365 150 -365 365s157 365 365 365zM402 637c-164 0 -281 -120 -281 -287s117 -287 281 -287
c165 0 281 120 281 287s-116 287 -281 287z" />
    <glyph glyph-name="Ocircumflex" unicode="&#xd4;" horiz-adv-x="804" 
d="M364 863h76l123 -120h-77l-84 81l-83 -81h-77zM402 715c208 0 365 -150 365 -365s-157 -365 -365 -365s-365 150 -365 365s157 365 365 365zM402 637c-164 0 -281 -120 -281 -287s117 -287 281 -287c165 0 281 120 281 287s-116 287 -281 287z" />
    <glyph glyph-name="Odieresis" unicode="&#xd6;" horiz-adv-x="804" 
d="M261 843h83v-100h-83v100zM460 843h83v-100h-83v100zM402 715c208 0 365 -150 365 -365s-157 -365 -365 -365s-365 150 -365 365s157 365 365 365zM402 637c-164 0 -281 -120 -281 -287s117 -287 281 -287c165 0 281 120 281 287s-116 287 -281 287z" />
    <glyph glyph-name="OE" unicode="&#x152;" horiz-adv-x="1124" 
d="M756 354v-281h321v-73h-398v113c-65 -79 -165 -128 -279 -128c-206 0 -363 149 -363 365c0 215 157 365 363 365c114 0 214 -49 279 -128v113h387v-73h-310v-201h290v-72h-290zM400 62c167 0 282 124 282 288s-115 288 -282 288c-162 0 -280 -120 -280 -288
s118 -288 280 -288z" />
    <glyph glyph-name="Ograve" unicode="&#xd2;" horiz-adv-x="804" 
d="M241 863h97l95 -120h-58zM402 715c208 0 365 -150 365 -365s-157 -365 -365 -365s-365 150 -365 365s157 365 365 365zM402 637c-164 0 -281 -120 -281 -287s117 -287 281 -287c165 0 281 120 281 287s-116 287 -281 287z" />
    <glyph glyph-name="Ohungarumlaut" unicode="&#x150;" horiz-adv-x="804" 
d="M412 863h70l-103 -120h-55zM519 863h70l-103 -120h-55zM402 715c208 0 365 -150 365 -365s-157 -365 -365 -365s-365 150 -365 365s157 365 365 365zM402 637c-164 0 -281 -120 -281 -287s117 -287 281 -287c165 0 281 120 281 287s-116 287 -281 287z" />
    <glyph glyph-name="Omacron" unicode="&#x14c;" horiz-adv-x="804" 
d="M260 829h282v-56h-282v56zM402 715c208 0 365 -150 365 -365s-157 -365 -365 -365s-365 150 -365 365s157 365 365 365zM402 637c-164 0 -281 -120 -281 -287s117 -287 281 -287c165 0 281 120 281 287s-116 287 -281 287z" />
    <glyph glyph-name="Oslash" unicode="&#xd8;" horiz-adv-x="804" 
d="M673 696l-41 -56c83 -65 135 -167 135 -290c0 -215 -157 -365 -365 -365c-75 0 -144 20 -201 55l-39 -54l-30 18l40 56c-83 64 -135 166 -135 290c0 215 157 365 365 365c76 0 145 -20 202 -56l40 55zM121 350c0 -94 37 -173 99 -224l338 468c-44 28 -97 43 -156 43
c-164 0 -281 -120 -281 -287zM402 63c165 0 281 120 281 287c0 94 -37 173 -98 224l-337 -469c43 -27 96 -42 154 -42z" />
    <glyph glyph-name="Oslashacute" unicode="&#x1fe;" horiz-adv-x="804" 
d="M466 863h97l-134 -120h-58zM673 696l-41 -56c83 -65 135 -167 135 -290c0 -215 -157 -365 -365 -365c-75 0 -144 20 -201 55l-39 -54l-30 18l40 56c-83 64 -135 166 -135 290c0 215 157 365 365 365c76 0 145 -20 202 -56l40 55zM121 350c0 -94 37 -173 99 -224l338 468
c-44 28 -97 43 -156 43c-164 0 -281 -120 -281 -287zM402 63c165 0 281 120 281 287c0 94 -37 173 -98 224l-337 -469c43 -27 96 -42 154 -42z" />
    <glyph glyph-name="Otilde" unicode="&#xd5;" horiz-adv-x="804" 
d="M486 747c-55 0 -120 53 -162 53c-22 0 -41 -15 -54 -47l-33 11c13 44 40 94 96 94c54 0 121 -52 162 -52c22 0 41 15 54 46l33 -10c-13 -44 -40 -95 -96 -95zM402 715c208 0 365 -150 365 -365s-157 -365 -365 -365s-365 150 -365 365s157 365 365 365zM402 637
c-164 0 -281 -120 -281 -287s117 -287 281 -287c165 0 281 120 281 287s-116 287 -281 287z" />
    <glyph glyph-name="Racute" unicode="&#x154;" horiz-adv-x="571" 
d="M329 863h97l-134 -120h-58zM555 0h-97l-208 301h-99v-301h-77v700h233c121 0 213 -71 213 -200c0 -113 -74 -185 -178 -197zM297 627h-146v-253h146c92 0 140 50 140 126c0 77 -48 127 -140 127z" />
    <glyph glyph-name="Rcaron" unicode="&#x158;" horiz-adv-x="571" 
d="M426 863l-123 -120h-76l-122 120h77l83 -81l84 81h77zM555 0h-97l-208 301h-99v-301h-77v700h233c121 0 213 -71 213 -200c0 -113 -74 -185 -178 -197zM297 627h-146v-253h146c92 0 140 50 140 126c0 77 -48 127 -140 127z" />
    <glyph glyph-name="uni0156" unicode="&#x156;" horiz-adv-x="571" 
d="M342 303l213 -303h-97l-208 301h-99v-301h-77v700h233c121 0 213 -71 213 -200c0 -113 -74 -185 -178 -197zM297 627h-146v-253h146c92 0 140 50 140 126c0 77 -48 127 -140 127zM282 -129h-34v82h88v-82l-62 -77h-31z" />
    <glyph glyph-name="Sacute" unicode="&#x15a;" horiz-adv-x="497" 
d="M321 863h97l-134 -120h-58zM256 715c67 0 126 -19 178 -44l-36 -74c-47 26 -95 40 -143 40c-71 0 -105 -32 -105 -80c0 -47 31 -75 75 -107l115 -85c74 -54 117 -108 117 -192c0 -124 -89 -188 -217 -188c-81 0 -162 26 -221 64l37 72c52 -32 117 -58 184 -58
c93 0 135 48 135 105c0 48 -28 83 -91 130l-114 86c-60 45 -103 93 -103 170c0 98 68 161 189 161z" />
    <glyph glyph-name="Scaron" unicode="&#x160;" horiz-adv-x="497" 
d="M418 863l-123 -120h-76l-122 120h77l83 -81l84 81h77zM256 715c67 0 126 -19 178 -44l-36 -74c-47 26 -95 40 -143 40c-71 0 -105 -32 -105 -80c0 -47 31 -75 75 -107l115 -85c74 -54 117 -108 117 -192c0 -124 -89 -188 -217 -188c-81 0 -162 26 -221 64l37 72
c52 -32 117 -58 184 -58c93 0 135 48 135 105c0 48 -28 83 -91 130l-114 86c-60 45 -103 93 -103 170c0 98 68 161 189 161z" />
    <glyph glyph-name="Scedilla" unicode="&#x15e;" horiz-adv-x="497" 
d="M457 173c0 -117 -79 -181 -196 -187l-10 -27c33 -9 70 -24 70 -70c0 -48 -57 -72 -124 -101l-11 24c52 25 84 43 84 65c0 25 -22 33 -66 43l24 65c-77 3 -153 28 -209 64l37 72c52 -32 117 -58 184 -58c93 0 135 48 135 105c0 48 -28 83 -91 130l-114 86
c-60 45 -103 93 -103 170c0 98 68 161 189 161c67 0 126 -19 178 -44l-36 -74c-47 26 -95 40 -143 40c-71 0 -105 -32 -105 -80c0 -47 31 -75 75 -107l115 -85c74 -54 117 -108 117 -192z" />
    <glyph glyph-name="Scircumflex" unicode="&#x15c;" horiz-adv-x="497" 
d="M219 863h76l123 -120h-77l-84 81l-83 -81h-77zM256 715c67 0 126 -19 178 -44l-36 -74c-47 26 -95 40 -143 40c-71 0 -105 -32 -105 -80c0 -47 31 -75 75 -107l115 -85c74 -54 117 -108 117 -192c0 -124 -89 -188 -217 -188c-81 0 -162 26 -221 64l37 72
c52 -32 117 -58 184 -58c93 0 135 48 135 105c0 48 -28 83 -91 130l-114 86c-60 45 -103 93 -103 170c0 98 68 161 189 161z" />
    <glyph glyph-name="uni0218" unicode="&#x218;" horiz-adv-x="497" 
d="M225 450l115 -85c74 -54 117 -108 117 -192c0 -124 -89 -188 -217 -188c-81 0 -162 26 -221 64l37 72c52 -32 117 -58 184 -58c93 0 135 48 135 105c0 48 -28 83 -91 130l-114 86c-60 45 -103 93 -103 170c0 98 68 161 189 161c67 0 126 -19 178 -44l-36 -74
c-47 26 -95 40 -143 40c-71 0 -105 -32 -105 -80c0 -47 31 -75 75 -107zM235 -129h-34v82h88v-82l-62 -77h-31z" />
    <glyph glyph-name="Tbar" unicode="&#x166;" horiz-adv-x="515" 
d="M505 700v-73h-209v-165h143v-64h-143v-398h-77v398h-139v64h139v165h-209v73h495z" />
    <glyph glyph-name="Tcaron" unicode="&#x164;" horiz-adv-x="515" 
d="M418 863l-123 -120h-76l-122 120h77l83 -81l84 81h77zM10 700h495v-73h-209v-627h-77v627h-209v73z" />
    <glyph glyph-name="uni0162" unicode="&#x162;" horiz-adv-x="515" 
d="M296 627v-627h-19l-15 -41c33 -9 70 -24 70 -70c0 -48 -57 -72 -124 -101l-11 24c52 25 84 43 84 65c0 25 -22 33 -66 43l30 80h-26v627h-209v73h495v-73h-209z" />
    <glyph glyph-name="uni021A" unicode="&#x21a;" horiz-adv-x="515" 
d="M10 627v73h495v-73h-209v-627h-77v627h-209zM247 -129h-34v82h88v-82l-62 -77h-31z" />
    <glyph glyph-name="Thorn" unicode="&#xde;" horiz-adv-x="551" 
d="M74 700h74v-138h150c136 0 215 -87 215 -204c0 -119 -80 -209 -217 -209h-148v-149h-74v700zM298 490h-150v-269h149c82 0 141 46 141 137c0 85 -58 132 -140 132z" />
    <glyph glyph-name="Uacute" unicode="&#xda;" horiz-adv-x="689" 
d="M409 863h97l-134 -120h-58zM539 700h81v-437c0 -167 -102 -278 -276 -278c-173 0 -276 111 -276 278v437h82v-431c0 -129 79 -204 194 -204c116 0 195 75 195 204v431z" />
    <glyph glyph-name="Ubreve" unicode="&#x16c;" horiz-adv-x="689" 
d="M427 863h53c-3 -76 -57 -120 -136 -120s-133 44 -136 120h53c3 -45 33 -70 83 -70s80 25 83 70zM539 700h81v-437c0 -167 -102 -278 -276 -278c-173 0 -276 111 -276 278v437h82v-431c0 -129 79 -204 194 -204c116 0 195 75 195 204v431z" />
    <glyph glyph-name="Ucircumflex" unicode="&#xdb;" horiz-adv-x="689" 
d="M306 863h76l123 -120h-77l-84 81l-83 -81h-77zM539 700h81v-437c0 -167 -102 -278 -276 -278c-173 0 -276 111 -276 278v437h82v-431c0 -129 79 -204 194 -204c116 0 195 75 195 204v431z" />
    <glyph glyph-name="Udieresis" unicode="&#xdc;" horiz-adv-x="689" 
d="M203 843h83v-100h-83v100zM402 843h83v-100h-83v100zM539 700h81v-437c0 -167 -102 -278 -276 -278c-173 0 -276 111 -276 278v437h82v-431c0 -129 79 -204 194 -204c116 0 195 75 195 204v431z" />
    <glyph glyph-name="Ugrave" unicode="&#xd9;" horiz-adv-x="689" 
d="M183 863h97l95 -120h-58zM539 700h81v-437c0 -167 -102 -278 -276 -278c-173 0 -276 111 -276 278v437h82v-431c0 -129 79 -204 194 -204c116 0 195 75 195 204v431z" />
    <glyph glyph-name="Uhungarumlaut" unicode="&#x170;" horiz-adv-x="689" 
d="M355 863h70l-103 -120h-55zM462 863h70l-103 -120h-55zM539 700h81v-437c0 -167 -102 -278 -276 -278c-173 0 -276 111 -276 278v437h82v-431c0 -129 79 -204 194 -204c116 0 195 75 195 204v431z" />
    <glyph glyph-name="Umacron" unicode="&#x16a;" horiz-adv-x="689" 
d="M203 829h282v-56h-282v56zM539 700h81v-437c0 -167 -102 -278 -276 -278c-173 0 -276 111 -276 278v437h82v-431c0 -129 79 -204 194 -204c116 0 195 75 195 204v431z" />
    <glyph glyph-name="Uogonek" unicode="&#x172;" horiz-adv-x="689" 
d="M539 269v431h81v-437c0 -125 -57 -219 -159 -258c-61 -46 -82 -83 -82 -111c0 -21 19 -29 40 -29c12 0 30 3 44 7l8 -49c-21 -7 -48 -10 -65 -10c-46 0 -86 22 -86 71c0 32 16 65 52 102c-9 -1 -18 -1 -28 -1c-173 0 -276 111 -276 278v437h82v-431
c0 -129 79 -204 194 -204c116 0 195 75 195 204z" />
    <glyph glyph-name="Uring" unicode="&#x16e;" horiz-adv-x="689" 
d="M345 890c67 0 115 -48 115 -115c0 -66 -48 -114 -115 -114s-116 48 -116 114c0 67 49 115 116 115zM344 851c-44 0 -74 -31 -74 -76c0 -43 30 -75 74 -75c45 0 75 32 75 75c0 45 -30 76 -75 76zM539 700h81v-437c0 -167 -102 -278 -276 -278c-173 0 -276 111 -276 278
v437h82v-431c0 -129 79 -204 194 -204c116 0 195 75 195 204v431z" />
    <glyph glyph-name="Utilde" unicode="&#x168;" horiz-adv-x="689" 
d="M429 747c-55 0 -120 53 -162 53c-22 0 -41 -15 -54 -47l-33 11c13 44 40 94 96 94c54 0 121 -52 162 -52c22 0 41 15 54 46l33 -10c-13 -44 -40 -95 -96 -95zM539 700h81v-437c0 -167 -102 -278 -276 -278c-173 0 -276 111 -276 278v437h82v-431c0 -129 79 -204 194 -204
c116 0 195 75 195 204v431z" />
    <glyph glyph-name="Wacute" unicode="&#x1e82;" horiz-adv-x="973" 
d="M551 863h97l-134 -120h-58zM871 700h87l-212 -700h-77l-181 571h-3l-181 -571h-77l-212 700h86l163 -576h2l180 576h80l181 -576h2z" />
    <glyph glyph-name="Wcircumflex" unicode="&#x174;" horiz-adv-x="973" 
d="M449 863h76l123 -120h-77l-84 81l-83 -81h-77zM871 700h87l-212 -700h-77l-181 571h-3l-181 -571h-77l-212 700h86l163 -576h2l180 576h80l181 -576h2z" />
    <glyph glyph-name="Wdieresis" unicode="&#x1e84;" horiz-adv-x="973" 
d="M346 843h83v-100h-83v100zM545 843h83v-100h-83v100zM871 700h87l-212 -700h-77l-181 571h-3l-181 -571h-77l-212 700h86l163 -576h2l180 576h80l181 -576h2z" />
    <glyph glyph-name="Wgrave" unicode="&#x1e80;" horiz-adv-x="973" 
d="M326 863h97l95 -120h-58zM871 700h87l-212 -700h-77l-181 571h-3l-181 -571h-77l-212 700h86l163 -576h2l180 576h80l181 -576h2z" />
    <glyph glyph-name="Yacute" unicode="&#xdd;" horiz-adv-x="534" 
d="M331 863h97l-134 -120h-58zM440 700h90l-224 -426v-274h-78v274l-224 426h90l172 -343h2z" />
    <glyph glyph-name="Ycircumflex" unicode="&#x176;" horiz-adv-x="534" 
d="M351 743l-84 81l-83 -81h-77l122 120h76l123 -120h-77zM440 700h90l-224 -426v-274h-78v274l-224 426h90l172 -343h2z" />
    <glyph glyph-name="Ydieresis" unicode="&#x178;" horiz-adv-x="534" 
d="M126 843h83v-100h-83v100zM325 843h83v-100h-83v100zM440 700h90l-224 -426v-274h-78v274l-224 426h90l172 -343h2z" />
    <glyph glyph-name="Ygrave" unicode="&#x1ef2;" horiz-adv-x="534" 
d="M203 863l95 -120h-58l-134 120h97zM440 700h90l-224 -426v-274h-78v274l-224 426h90l172 -343h2z" />
    <glyph glyph-name="Zacute" unicode="&#x179;" horiz-adv-x="538" 
d="M343 863h97l-134 -120h-58zM506 627l-394 -554h406v-73h-498v73l393 554h-358v73h451v-73z" />
    <glyph glyph-name="Zcaron" unicode="&#x17d;" horiz-adv-x="538" 
d="M440 863l-123 -120h-76l-122 120h77l83 -81l84 81h77zM506 627l-394 -554h406v-73h-498v73l393 554h-358v73h451v-73z" />
    <glyph glyph-name="Zdotaccent" unicode="&#x17b;" horiz-adv-x="538" 
d="M237 850h83v-107h-83v107zM506 627l-394 -554h406v-73h-498v73l393 554h-358v73h451v-73z" />
    <glyph glyph-name="a" unicode="a" horiz-adv-x="572" 
d="M261 -15c-127 0 -229 93 -229 246s102 246 229 246c84 0 143 -39 175 -97h2v82h72v-462h-72v82h-2c-32 -58 -91 -97 -175 -97zM275 56c101 0 167 73 167 175s-66 175 -167 175s-167 -73 -167 -175s66 -175 167 -175z" />
    <glyph glyph-name="b" unicode="b" horiz-adv-x="577" 
d="M316 -15c-84 0 -143 39 -175 97h-2v-82h-72v700h72v-320h2c32 58 91 97 175 97c127 0 229 -93 229 -246s-102 -246 -229 -246zM302 56c101 0 167 73 167 175s-66 175 -167 175s-167 -73 -167 -175s66 -175 167 -175z" />
    <glyph glyph-name="c" unicode="c" horiz-adv-x="465" 
d="M283 -15c-148 0 -251 99 -251 246s103 246 251 246c59 0 109 -16 158 -46l-35 -62c-39 23 -79 38 -125 38c-105 0 -173 -78 -173 -176s68 -176 173 -176c46 0 86 15 125 38l35 -62c-49 -30 -99 -46 -158 -46z" />
    <glyph glyph-name="d" unicode="d" horiz-adv-x="577" 
d="M261 -15c-127 0 -229 93 -229 246s102 246 229 246c84 0 143 -39 175 -97h2v320h72v-700h-72v82h-2c-32 -58 -91 -97 -175 -97zM275 56c101 0 167 73 167 175s-66 175 -167 175s-167 -73 -167 -175s66 -175 167 -175z" />
    <glyph glyph-name="e" unicode="e" horiz-adv-x="521" 
d="M267 477c151 0 222 -106 222 -243v-13h-384c2 -102 69 -166 166 -166c86 0 130 51 158 88l52 -47c-34 -48 -93 -111 -209 -111c-146 0 -240 99 -240 245c0 148 94 247 235 247zM263 410c-80 0 -144 -46 -155 -134h303c-7 84 -59 134 -148 134z" />
    <glyph glyph-name="f" unicode="f" horiz-adv-x="308" 
d="M289 642h-13c-55 0 -96 -25 -96 -102v-78h105v-62h-105v-400h-71v400h-85v62h85v77c0 115 63 171 164 171h16v-68z" />
    <glyph glyph-name="g" unicode="g" horiz-adv-x="572" 
d="M296 -215c-56 0 -122 9 -178 21l14 70c59 -13 118 -21 164 -21c99 0 142 42 142 150v77h-2c-32 -58 -91 -97 -175 -97c-127 0 -229 93 -229 246s102 246 229 246c84 0 143 -39 175 -97h2v82h72v-462c-3 -180 -98 -215 -214 -215zM275 56c101 0 167 73 167 175
s-66 175 -167 175s-167 -73 -167 -175s66 -175 167 -175z" />
    <glyph glyph-name="h" unicode="h" horiz-adv-x="542" 
d="M67 700h72v-327h2c30 67 89 104 165 104c101 0 177 -57 177 -196v-281h-72v271c0 94 -49 134 -123 134c-79 0 -149 -48 -149 -192v-213h-72v700z" />
    <glyph glyph-name="i" unicode="i" horiz-adv-x="202" 
d="M55 690h91v-120h-91v120zM137 0h-72v462h72v-462z" />
    <glyph glyph-name="j" unicode="j" horiz-adv-x="202" 
d="M55 690h91v-120h-91v120zM-25 -203v65h23c47 0 67 24 67 82v518h72v-524c0 -93 -46 -141 -130 -141h-32z" />
    <glyph glyph-name="k" unicode="k" horiz-adv-x="459" 
d="M217 251l234 -251h-99l-213 234v-234h-72v700h72v-440l192 202h99z" />
    <glyph glyph-name="l" unicode="l" horiz-adv-x="206" 
d="M67 700h72v-700h-72v700z" />
    <glyph glyph-name="m" unicode="m" horiz-adv-x="802" 
d="M136 0h-72v462h72v-83h2c25 66 75 98 145 98c72 0 120 -32 147 -103h2c26 72 87 103 153 103c87 0 158 -51 158 -188v-289h-72v287c0 78 -37 118 -106 118c-73 0 -125 -46 -125 -164v-241h-72v273c0 88 -37 132 -108 132c-74 0 -124 -51 -124 -174v-231z" />
    <glyph glyph-name="n" unicode="n" horiz-adv-x="539" 
d="M303 477c103 0 177 -57 177 -196v-281h-72v271c0 94 -50 134 -124 134c-79 0 -148 -48 -148 -192v-213h-72v462h72v-89h2c30 67 86 104 165 104z" />
    <glyph glyph-name="o" unicode="o" horiz-adv-x="564" 
d="M282 477c145 0 250 -103 250 -246s-105 -246 -250 -246c-144 0 -250 103 -250 246s106 246 250 246zM282 406c-100 0 -174 -69 -174 -175s74 -175 174 -175s174 69 174 175s-74 175 -174 175z" />
    <glyph glyph-name="p" unicode="p" horiz-adv-x="574" 
d="M136 -200h-72v662h72v-82h2c32 58 91 97 175 97c127 0 229 -93 229 -246s-102 -246 -229 -246c-84 0 -143 39 -175 97h-2v-282zM299 56c101 0 167 73 167 175s-66 175 -167 175s-167 -73 -167 -175s66 -175 167 -175z" />
    <glyph glyph-name="q" unicode="q" horiz-adv-x="572" 
d="M510 -200h-72v282h-2c-32 -58 -91 -97 -175 -97c-127 0 -229 93 -229 246s102 246 229 246c84 0 143 -39 175 -97h2v82h72v-662zM275 56c101 0 167 73 167 175s-66 175 -167 175s-167 -73 -167 -175s66 -175 167 -175z" />
    <glyph glyph-name="r" unicode="r" horiz-adv-x="317" 
d="M291 476h12v-83h-14c-98 0 -153 -62 -153 -176v-217h-72v462h72v-104h2c19 69 75 118 153 118z" />
    <glyph glyph-name="s" unicode="s" horiz-adv-x="406" 
d="M210 -15c-70 0 -139 21 -191 54l35 64c46 -30 101 -50 159 -50c63 0 92 25 92 61c0 30 -21 50 -63 69l-86 41c-67 31 -100 73 -100 129c0 81 63 124 159 124c54 0 108 -14 156 -36l-31 -64c-38 18 -81 32 -127 32c-52 0 -80 -18 -80 -53c0 -31 21 -49 66 -70l84 -39
c59 -28 99 -64 99 -130c0 -88 -68 -132 -172 -132z" />
    <glyph glyph-name="t" unicode="t" horiz-adv-x="306" 
d="M282 462v-62h-102v-273c0 -41 20 -61 58 -61h25v-67h-38c-73 0 -117 39 -117 114v287h-89v62h89v185h72v-185h102z" />
    <glyph glyph-name="u" unicode="u" horiz-adv-x="526" 
d="M231 -15c-95 0 -172 56 -172 198v279h73v-275c0 -93 49 -132 117 -132c78 0 141 50 141 198v209h72v-462h-72v86h-2c-23 -53 -70 -101 -157 -101z" />
    <glyph glyph-name="v" unicode="v" horiz-adv-x="459" 
d="M229 86l139 376h84l-188 -462h-69l-188 462h84z" />
    <glyph glyph-name="w" unicode="w" horiz-adv-x="719" 
d="M521 92l111 370h80l-156 -462h-69l-128 368l-128 -368h-68l-156 462h79l112 -370l125 370h73z" />
    <glyph glyph-name="x" unicode="x" horiz-adv-x="474" 
d="M467 0h-92l-138 186l-138 -186h-92l186 243l-164 219h93l115 -164l115 164h92l-164 -219z" />
    <glyph glyph-name="y" unicode="y" horiz-adv-x="467" 
d="M236 130l144 332h80l-302 -662h-77l118 249l-192 413h85z" />
    <glyph glyph-name="z" unicode="z" horiz-adv-x="441" 
d="M394 398l-279 -330h299v-68h-387v64l279 331h-263v67h351v-64z" />
    <glyph glyph-name="aacute" unicode="&#xe1;" horiz-adv-x="572" 
d="M343 707h97l-132 -154h-60zM261 -15c-127 0 -229 93 -229 246s102 246 229 246c84 0 143 -39 175 -97h2v82h72v-462h-72v82h-2c-32 -58 -91 -97 -175 -97zM275 56c101 0 167 73 167 175s-66 175 -167 175s-167 -73 -167 -175s66 -175 167 -175z" />
    <glyph glyph-name="abreve" unicode="&#x103;" horiz-adv-x="572" 
d="M360 700h54c0 -89 -57 -140 -136 -140s-136 51 -136 140h54c2 -54 33 -87 82 -87s80 33 82 87zM261 -15c-127 0 -229 93 -229 246s102 246 229 246c84 0 143 -39 175 -97h2v82h72v-462h-72v82h-2c-32 -58 -91 -97 -175 -97zM275 56c101 0 167 73 167 175
s-66 175 -167 175s-167 -73 -167 -175s66 -175 167 -175z" />
    <glyph glyph-name="acircumflex" unicode="&#xe2;" horiz-adv-x="572" 
d="M240 707h76l124 -154h-75l-87 108l-87 -108h-75zM261 -15c-127 0 -229 93 -229 246s102 246 229 246c84 0 143 -39 175 -97h2v82h72v-462h-72v82h-2c-32 -58 -91 -97 -175 -97zM275 56c101 0 167 73 167 175s-66 175 -167 175s-167 -73 -167 -175s66 -175 167 -175z" />
    <glyph glyph-name="adieresis" unicode="&#xe4;" horiz-adv-x="572" 
d="M145 690h80v-116h-80v116zM331 690h80v-116h-80v116zM261 -15c-127 0 -229 93 -229 246s102 246 229 246c84 0 143 -39 175 -97h2v82h72v-462h-72v82h-2c-32 -58 -91 -97 -175 -97zM275 56c101 0 167 73 167 175s-66 175 -167 175s-167 -73 -167 -175s66 -175 167 -175z
" />
    <glyph glyph-name="ae" unicode="&#xe6;" horiz-adv-x="853" 
d="M205 -15c-107 0 -189 64 -189 166c0 97 75 164 187 164c67 0 127 -25 159 -77h2v52c0 83 -48 121 -131 121c-40 0 -97 -9 -153 -23l-15 66c54 14 123 23 172 23c88 0 150 -31 172 -107h2c32 64 101 107 191 107c143 0 219 -106 219 -243v-13h-382c3 -96 62 -166 165 -166
c85 0 128 50 158 88l50 -46c-33 -49 -97 -112 -206 -112c-100 0 -175 52 -205 125h-2c-29 -81 -104 -125 -194 -125zM443 276h299c-5 81 -60 134 -146 134c-78 0 -141 -46 -153 -134zM219 49c83 0 138 45 138 102c0 63 -63 101 -139 101c-81 0 -126 -44 -126 -102
c0 -60 46 -101 127 -101z" />
    <glyph glyph-name="aeacute" unicode="&#x1fd;" horiz-adv-x="853" 
d="M491 707h97l-132 -154h-60zM205 -15c-107 0 -189 64 -189 166c0 97 75 164 187 164c67 0 127 -25 159 -77h2v52c0 83 -48 121 -131 121c-40 0 -97 -9 -153 -23l-15 66c54 14 123 23 172 23c88 0 150 -31 172 -107h2c32 64 101 107 191 107c143 0 219 -106 219 -243v-13
h-382c3 -96 62 -166 165 -166c85 0 128 50 158 88l50 -46c-33 -49 -97 -112 -206 -112c-100 0 -175 52 -205 125h-2c-29 -81 -104 -125 -194 -125zM443 276h299c-5 81 -60 134 -146 134c-78 0 -141 -46 -153 -134zM219 49c83 0 138 45 138 102c0 63 -63 101 -139 101
c-81 0 -126 -44 -126 -102c0 -60 46 -101 127 -101z" />
    <glyph glyph-name="agrave" unicode="&#xe0;" horiz-adv-x="572" 
d="M115 707h98l94 -154h-59zM261 -15c-127 0 -229 93 -229 246s102 246 229 246c84 0 143 -39 175 -97h2v82h72v-462h-72v82h-2c-32 -58 -91 -97 -175 -97zM275 56c101 0 167 73 167 175s-66 175 -167 175s-167 -73 -167 -175s66 -175 167 -175z" />
    <glyph glyph-name="amacron" unicode="&#x101;" horiz-adv-x="572" 
d="M137 657h282v-56h-282v56zM261 -15c-127 0 -229 93 -229 246s102 246 229 246c84 0 143 -39 175 -97h2v82h72v-462h-72v82h-2c-32 -58 -91 -97 -175 -97zM275 56c101 0 167 73 167 175s-66 175 -167 175s-167 -73 -167 -175s66 -175 167 -175z" />
    <glyph glyph-name="aogonek" unicode="&#x105;" horiz-adv-x="572" 
d="M510 0h-30c-55 -44 -75 -79 -75 -106c0 -21 19 -29 40 -29c12 0 30 3 44 7l8 -49c-21 -7 -48 -10 -65 -10c-46 0 -86 22 -86 71c0 42 28 85 92 138v60h-2c-32 -58 -91 -97 -175 -97c-127 0 -229 93 -229 246s102 246 229 246c84 0 143 -39 175 -97h2v82h72v-462zM275 56
c101 0 167 73 167 175s-66 175 -167 175s-167 -73 -167 -175s66 -175 167 -175z" />
    <glyph glyph-name="aring" unicode="&#xe5;" horiz-adv-x="572" 
d="M278 747c69 0 119 -49 119 -117s-50 -117 -119 -117s-119 49 -119 117s50 117 119 117zM278 708c-47 0 -78 -32 -78 -78s31 -78 78 -78s78 32 78 78s-31 78 -78 78zM261 -15c-127 0 -229 93 -229 246s102 246 229 246c84 0 143 -39 175 -97h2v82h72v-462h-72v82h-2
c-32 -58 -91 -97 -175 -97zM275 56c101 0 167 73 167 175s-66 175 -167 175s-167 -73 -167 -175s66 -175 167 -175z" />
    <glyph glyph-name="atilde" unicode="&#xe3;" horiz-adv-x="572" 
d="M207 698c55 0 115 -56 156 -56c23 0 40 17 53 47l34 -11c-12 -48 -40 -96 -94 -96c-55 0 -115 55 -156 55c-23 0 -40 -16 -53 -46l-35 10c12 48 41 97 95 97zM261 -15c-127 0 -229 93 -229 246s102 246 229 246c84 0 143 -39 175 -97h2v82h72v-462h-72v82h-2
c-32 -58 -91 -97 -175 -97zM275 56c101 0 167 73 167 175s-66 175 -167 175s-167 -73 -167 -175s66 -175 167 -175z" />
    <glyph glyph-name="cacute" unicode="&#x107;" horiz-adv-x="465" 
d="M342 707h97l-132 -154h-60zM283 -15c-148 0 -251 99 -251 246s103 246 251 246c59 0 109 -16 158 -46l-35 -62c-39 23 -79 38 -125 38c-105 0 -173 -78 -173 -176s68 -176 173 -176c46 0 86 15 125 38l35 -62c-49 -30 -99 -46 -158 -46z" />
    <glyph glyph-name="ccaron" unicode="&#x10d;" horiz-adv-x="465" 
d="M367 700h76l-128 -154h-77l-128 154h75l91 -108zM283 -15c-148 0 -251 99 -251 246s103 246 251 246c59 0 109 -16 158 -46l-35 -62c-39 23 -79 38 -125 38c-105 0 -173 -78 -173 -176s68 -176 173 -176c46 0 86 15 125 38l35 -62c-49 -30 -99 -46 -158 -46z" />
    <glyph glyph-name="ccedilla" unicode="&#xe7;" horiz-adv-x="465" 
d="M406 93l35 -62c-48 -29 -97 -45 -154 -46l-10 -26c33 -9 70 -24 70 -70c0 -48 -57 -72 -124 -101l-11 24c52 25 84 43 84 65c0 25 -22 33 -66 43l25 66c-133 12 -223 108 -223 245c0 147 103 246 251 246c59 0 109 -16 158 -46l-35 -62c-39 23 -79 38 -125 38
c-105 0 -173 -78 -173 -176s68 -176 173 -176c46 0 86 15 125 38z" />
    <glyph glyph-name="ccircumflex" unicode="&#x109;" horiz-adv-x="465" 
d="M238 707h76l124 -154h-75l-87 108l-87 -108h-75zM283 -15c-148 0 -251 99 -251 246s103 246 251 246c59 0 109 -16 158 -46l-35 -62c-39 23 -79 38 -125 38c-105 0 -173 -78 -173 -176s68 -176 173 -176c46 0 86 15 125 38l35 -62c-49 -30 -99 -46 -158 -46z" />
    <glyph glyph-name="cdotaccent" unicode="&#x10b;" horiz-adv-x="465" 
d="M231 690h91v-120h-91v120zM283 -15c-148 0 -251 99 -251 246s103 246 251 246c59 0 109 -16 158 -46l-35 -62c-39 23 -79 38 -125 38c-105 0 -173 -78 -173 -176s68 -176 173 -176c46 0 86 15 125 38l35 -62c-49 -30 -99 -46 -158 -46z" />
    <glyph glyph-name="dcaron" unicode="&#x10f;" horiz-adv-x="577" 
d="M549 533l40 174h72l-57 -174h-55zM261 -15c-127 0 -229 93 -229 246s102 246 229 246c84 0 143 -39 175 -97h2v320h72v-700h-72v82h-2c-32 -58 -91 -97 -175 -97zM275 56c101 0 167 73 167 175s-66 175 -167 175s-167 -73 -167 -175s66 -175 167 -175z" />
    <glyph glyph-name="dcroat" unicode="&#x111;" horiz-adv-x="571" 
d="M510 618h61v-47h-61v-571h-72v82h-2c-32 -58 -91 -97 -175 -97c-127 0 -229 93 -229 246s102 246 229 246c84 0 143 -39 175 -97h2v191h-136v47h136v82h72v-82zM275 56c101 0 167 73 167 175s-66 175 -167 175s-167 -73 -167 -175s66 -175 167 -175z" />
    <glyph glyph-name="eacute" unicode="&#xe9;" horiz-adv-x="521" 
d="M335 707h97l-132 -154h-60zM267 477c151 0 222 -106 222 -243v-13h-384c2 -102 69 -166 166 -166c86 0 130 51 158 88l52 -47c-34 -48 -93 -111 -209 -111c-146 0 -240 99 -240 245c0 148 94 247 235 247zM263 410c-80 0 -144 -46 -155 -134h303c-7 84 -59 134 -148 134z
" />
    <glyph glyph-name="ebreve" unicode="&#x115;" horiz-adv-x="521" 
d="M351 700h54c0 -89 -57 -140 -136 -140s-136 51 -136 140h54c2 -54 33 -87 82 -87s80 33 82 87zM267 477c151 0 222 -106 222 -243v-13h-384c2 -102 69 -166 166 -166c86 0 130 51 158 88l52 -47c-34 -48 -93 -111 -209 -111c-146 0 -240 99 -240 245
c0 148 94 247 235 247zM263 410c-80 0 -144 -46 -155 -134h303c-7 84 -59 134 -148 134z" />
    <glyph glyph-name="ecaron" unicode="&#x11b;" horiz-adv-x="521" 
d="M360 700h76l-128 -154h-77l-128 154h75l91 -108zM267 477c151 0 222 -106 222 -243v-13h-384c2 -102 69 -166 166 -166c86 0 130 51 158 88l52 -47c-34 -48 -93 -111 -209 -111c-146 0 -240 99 -240 245c0 148 94 247 235 247zM263 410c-80 0 -144 -46 -155 -134h303
c-7 84 -59 134 -148 134z" />
    <glyph glyph-name="ecircumflex" unicode="&#xea;" horiz-adv-x="521" 
d="M231 707h76l124 -154h-75l-87 108l-87 -108h-75zM267 477c151 0 222 -106 222 -243v-13h-384c2 -102 69 -166 166 -166c86 0 130 51 158 88l52 -47c-34 -48 -93 -111 -209 -111c-146 0 -240 99 -240 245c0 148 94 247 235 247zM263 410c-80 0 -144 -46 -155 -134h303
c-7 84 -59 134 -148 134z" />
    <glyph glyph-name="edieresis" unicode="&#xeb;" horiz-adv-x="521" 
d="M136 690h80v-116h-80v116zM322 690h80v-116h-80v116zM267 477c151 0 222 -106 222 -243v-13h-384c2 -102 69 -166 166 -166c86 0 130 51 158 88l52 -47c-34 -48 -93 -111 -209 -111c-146 0 -240 99 -240 245c0 148 94 247 235 247zM263 410c-80 0 -144 -46 -155 -134h303
c-7 84 -59 134 -148 134z" />
    <glyph glyph-name="edotaccent" unicode="&#x117;" horiz-adv-x="521" 
d="M224 690h91v-120h-91v120zM267 477c151 0 222 -106 222 -243v-13h-384c2 -102 69 -166 166 -166c86 0 130 51 158 88l52 -47c-34 -48 -93 -111 -209 -111c-146 0 -240 99 -240 245c0 148 94 247 235 247zM263 410c-80 0 -144 -46 -155 -134h303c-7 84 -59 134 -148 134z
" />
    <glyph glyph-name="egrave" unicode="&#xe8;" horiz-adv-x="521" 
d="M106 707h98l94 -154h-59zM267 477c151 0 222 -106 222 -243v-13h-384c2 -102 69 -166 166 -166c86 0 130 51 158 88l52 -47c-34 -48 -93 -111 -209 -111c-146 0 -240 99 -240 245c0 148 94 247 235 247zM263 410c-80 0 -144 -46 -155 -134h303c-7 84 -59 134 -148 134z
" />
    <glyph glyph-name="emacron" unicode="&#x113;" horiz-adv-x="521" 
d="M128 657h282v-56h-282v56zM267 477c151 0 222 -106 222 -243v-13h-384c2 -102 69 -166 166 -166c86 0 130 51 158 88l52 -47c-34 -48 -93 -111 -209 -111c-146 0 -240 99 -240 245c0 148 94 247 235 247zM263 410c-80 0 -144 -46 -155 -134h303c-7 84 -59 134 -148 134z
" />
    <glyph glyph-name="eogonek" unicode="&#x119;" horiz-adv-x="521" 
d="M489 234v-13h-384c2 -102 69 -166 166 -166c86 0 130 51 158 88l52 -47c-20 -28 -49 -62 -92 -84l1 -1c-67 -49 -90 -88 -90 -117c0 -21 19 -29 40 -29c12 0 30 3 44 7l8 -49c-21 -7 -48 -10 -65 -10c-46 0 -86 22 -86 71c0 32 16 65 52 102c-7 -1 -14 -1 -21 -1
c-146 0 -240 99 -240 245c0 148 94 247 235 247c151 0 222 -106 222 -243zM108 276h303c-7 84 -59 134 -148 134c-80 0 -144 -46 -155 -134z" />
    <glyph glyph-name="gbreve" unicode="&#x11f;" horiz-adv-x="572" 
d="M369 700h54c0 -89 -57 -140 -136 -140s-136 51 -136 140h54c2 -54 33 -87 82 -87s80 33 82 87zM296 -215c-56 0 -122 9 -178 21l14 70c59 -13 118 -21 164 -21c99 0 142 42 142 150v77h-2c-32 -58 -91 -97 -175 -97c-127 0 -229 93 -229 246s102 246 229 246
c84 0 143 -39 175 -97h2v82h72v-462c-3 -180 -98 -215 -214 -215zM275 56c101 0 167 73 167 175s-66 175 -167 175s-167 -73 -167 -175s66 -175 167 -175z" />
    <glyph glyph-name="gcircumflex" unicode="&#x11d;" horiz-adv-x="572" 
d="M249 707h76l124 -154h-75l-87 108l-87 -108h-75zM296 -215c-56 0 -122 9 -178 21l14 70c59 -13 118 -21 164 -21c99 0 142 42 142 150v77h-2c-32 -58 -91 -97 -175 -97c-127 0 -229 93 -229 246s102 246 229 246c84 0 143 -39 175 -97h2v82h72v-462
c-3 -180 -98 -215 -214 -215zM275 56c101 0 167 73 167 175s-66 175 -167 175s-167 -73 -167 -175s66 -175 167 -175z" />
    <glyph glyph-name="uni0123" unicode="&#x123;" horiz-adv-x="572" 
d="M296 622h34v-82h-88v82l62 77h31zM438 380v82h72v-462c-3 -180 -98 -215 -214 -215c-56 0 -122 9 -178 21l14 70c59 -13 118 -21 164 -21c99 0 142 42 142 150v77h-2c-32 -58 -91 -97 -175 -97c-127 0 -229 93 -229 246s102 246 229 246c84 0 143 -39 175 -97h2zM275 56
c101 0 167 73 167 175s-66 175 -167 175s-167 -73 -167 -175s66 -175 167 -175z" />
    <glyph glyph-name="gdotaccent" unicode="&#x121;" horiz-adv-x="572" 
d="M242 690h91v-120h-91v120zM296 -215c-56 0 -122 9 -178 21l14 70c59 -13 118 -21 164 -21c99 0 142 42 142 150v77h-2c-32 -58 -91 -97 -175 -97c-127 0 -229 93 -229 246s102 246 229 246c84 0 143 -39 175 -97h2v82h72v-462c-3 -180 -98 -215 -214 -215zM275 56
c101 0 167 73 167 175s-66 175 -167 175s-167 -73 -167 -175s66 -175 167 -175z" />
    <glyph glyph-name="hbar" unicode="&#x127;" horiz-adv-x="542" 
d="M306 477c101 0 177 -57 177 -196v-281h-72v271c0 94 -49 134 -123 134c-79 0 -149 -48 -149 -192v-213h-72v571h-67v47h67v82h72v-82h151v-47h-151v-198h2c30 67 89 104 165 104z" />
    <glyph glyph-name="hcircumflex" unicode="&#x125;" horiz-adv-x="542" 
d="M65 863h76l123 -120h-77l-84 81l-83 -81h-77zM67 700h72v-327h2c30 67 89 104 165 104c101 0 177 -57 177 -196v-281h-72v271c0 94 -49 134 -123 134c-79 0 -149 -48 -149 -192v-213h-72v700z" />
    <glyph glyph-name="iacute" unicode="&#xed;" horiz-adv-x="202" 
d="M166 707h97l-132 -154h-60zM137 0h-72v462h72v-462z" />
    <glyph glyph-name="ibreve" unicode="&#x12d;" horiz-adv-x="202" 
d="M153 700h54c0 -93 -38 -140 -106 -140s-106 47 -106 140h54c0 -59 14 -87 52 -87s52 28 52 87zM137 0h-72v462h72v-462z" />
    <glyph glyph-name="icircumflex" unicode="&#xee;" horiz-adv-x="202" 
d="M63 707h76l82 -154h-70l-50 109l-50 -109h-70zM137 0h-72v462h72v-462z" />
    <glyph glyph-name="idieresis" unicode="&#xef;" horiz-adv-x="202" 
d="M2 690h77v-116h-77v116zM123 690h77v-116h-77v116zM137 0h-72v462h72v-462z" />
    <glyph glyph-name="i.loclTRK" horiz-adv-x="202" 
d="M55 690h91v-120h-91v120zM137 0h-72v462h72v-462z" />
    <glyph glyph-name="dotlessi" unicode="&#x131;" horiz-adv-x="202" 
d="M137 0h-72v462h72v-462z" />
    <glyph glyph-name="igrave" unicode="&#xec;" horiz-adv-x="202" 
d="M-62 707h98l94 -154h-59zM137 0h-72v462h72v-462z" />
    <glyph glyph-name="ij" unicode="&#x133;" horiz-adv-x="404" 
d="M55 690h91v-120h-91v120zM257 690h91v-120h-91v120zM137 0h-72v462h72v-462zM177 -203v65h23c47 0 67 24 67 82v518h72v-524c0 -93 -46 -141 -130 -141h-32z" />
    <glyph glyph-name="uni006A0301" horiz-adv-x="202" 
d="M166 707h97l-132 -154h-60zM-25 -203v65h23c47 0 67 24 67 82v518h72v-524c0 -93 -46 -141 -130 -141h-32z" />
    <glyph glyph-name="imacron" unicode="&#x12b;" horiz-adv-x="202" 
d="M5 657h190v-56h-190v56zM137 0h-72v462h72v-462z" />
    <glyph glyph-name="iogonek" unicode="&#x12f;" horiz-adv-x="202" 
d="M55 570v120h91v-120h-91zM65 15v447h72v-462h-22c-55 -44 -75 -79 -75 -106c0 -21 19 -29 40 -29c12 0 30 3 44 7l8 -49c-21 -7 -48 -10 -65 -10c-46 0 -86 22 -86 71c0 40 26 81 84 131z" />
    <glyph glyph-name="itilde" unicode="&#x129;" horiz-adv-x="202" 
d="M48 698c46 0 90 -56 118 -56c16 0 26 14 37 44l33 -11c-10 -48 -31 -93 -76 -93c-47 0 -91 55 -119 55c-16 0 -26 -13 -36 -43l-34 10c10 49 31 94 77 94zM137 0h-72v462h72v-462z" />
    <glyph glyph-name="jcircumflex" unicode="&#x135;" horiz-adv-x="202" 
d="M63 707h76l82 -154h-70l-50 109l-50 -109h-70zM-25 -203v65h23c47 0 67 24 67 82v518h72v-524c0 -93 -46 -141 -130 -141h-32z" />
    <glyph glyph-name="uni0237" unicode="&#x237;" horiz-adv-x="202" 
d="M-25 -203v65h23c47 0 67 24 67 82v518h72v-524c0 -93 -46 -141 -130 -141h-32z" />
    <glyph glyph-name="uni0137" unicode="&#x137;" horiz-adv-x="459" 
d="M430 462l-213 -211l234 -251h-99l-213 234v-234h-72v700h72v-440l192 202h99zM219 -129h-34v82h88v-82l-62 -77h-31z" />
    <glyph glyph-name="kgreenlandic" unicode="&#x138;" horiz-adv-x="454" 
d="M212 251l235 -251h-99l-212 233v-233h-72v462h72v-201l190 201h99z" />
    <glyph glyph-name="lacute" unicode="&#x13a;" horiz-adv-x="206" 
d="M167 863h97l-134 -120h-58zM67 700h72v-700h-72v700z" />
    <glyph glyph-name="lcaron" unicode="&#x13e;" horiz-adv-x="206" 
d="M178 533l40 174h72l-57 -174h-55zM67 700h72v-700h-72v700z" />
    <glyph glyph-name="uni013C" unicode="&#x13c;" horiz-adv-x="206" 
d="M67 700h72v-700h-72v700zM59 -129v82h88v-82l-62 -77h-31l39 77h-34z" />
    <glyph glyph-name="ldot" unicode="&#x140;" horiz-adv-x="259" 
d="M67 700h72v-700h-72v700zM182 418h102v-103h-102v103z" />
    <glyph glyph-name="lslash" unicode="&#x142;" horiz-adv-x="256" 
d="M162 435l84 44v-56l-84 -44v-379h-72v341l-80 -42v56l80 42v303h72v-265z" />
    <glyph glyph-name="nacute" unicode="&#x144;" horiz-adv-x="539" 
d="M349 707h97l-132 -154h-60zM303 477c103 0 177 -57 177 -196v-281h-72v271c0 94 -50 134 -124 134c-79 0 -148 -48 -148 -192v-213h-72v462h72v-89h2c30 67 86 104 165 104z" />
    <glyph glyph-name="napostrophe" unicode="&#x149;" horiz-adv-x="677" 
d="M89 624h-43v91h91v-91l-71 -145h-31zM440 477c103 0 177 -57 177 -196v-281h-72v271c0 94 -50 134 -124 134c-79 0 -148 -48 -148 -192v-213h-72v462h72v-89h2c30 67 86 104 165 104z" />
    <glyph glyph-name="ncaron" unicode="&#x148;" horiz-adv-x="539" 
d="M374 700h76l-128 -154h-77l-128 154h75l91 -108zM303 477c103 0 177 -57 177 -196v-281h-72v271c0 94 -50 134 -124 134c-79 0 -148 -48 -148 -192v-213h-72v462h72v-89h2c30 67 86 104 165 104z" />
    <glyph glyph-name="uni0146" unicode="&#x146;" horiz-adv-x="539" 
d="M303 477c103 0 177 -57 177 -196v-281h-72v271c0 94 -50 134 -124 134c-79 0 -148 -48 -148 -192v-213h-72v462h72v-89h2c30 67 86 104 165 104zM273 -129h-34v82h88v-82l-62 -77h-31z" />
    <glyph glyph-name="ntilde" unicode="&#xf1;" horiz-adv-x="539" 
d="M213 698c55 0 115 -56 156 -56c23 0 40 17 53 47l34 -11c-12 -48 -40 -96 -94 -96c-55 0 -115 55 -156 55c-23 0 -40 -16 -53 -46l-35 10c12 48 41 97 95 97zM303 477c103 0 177 -57 177 -196v-281h-72v271c0 94 -50 134 -124 134c-79 0 -148 -48 -148 -192v-213h-72v462
h72v-89h2c30 67 86 104 165 104z" />
    <glyph glyph-name="eng" unicode="&#x14b;" horiz-adv-x="539" 
d="M303 477c103 0 177 -57 177 -196v-353c0 -80 -38 -128 -119 -128h-54v68h45c35 0 56 20 56 62v341c0 94 -50 134 -124 134c-79 0 -148 -48 -148 -192v-213h-72v462h72v-89h2c30 67 86 104 165 104z" />
    <glyph glyph-name="oacute" unicode="&#xf3;" horiz-adv-x="564" 
d="M348 707h97l-132 -154h-60zM282 477c145 0 250 -103 250 -246s-105 -246 -250 -246c-144 0 -250 103 -250 246s106 246 250 246zM282 406c-100 0 -174 -69 -174 -175s74 -175 174 -175s174 69 174 175s-74 175 -174 175z" />
    <glyph glyph-name="obreve" unicode="&#x14f;" horiz-adv-x="564" 
d="M364 700h54c0 -89 -57 -140 -136 -140s-136 51 -136 140h54c2 -54 33 -87 82 -87s80 33 82 87zM282 477c145 0 250 -103 250 -246s-105 -246 -250 -246c-144 0 -250 103 -250 246s106 246 250 246zM282 406c-100 0 -174 -69 -174 -175s74 -175 174 -175s174 69 174 175
s-74 175 -174 175z" />
    <glyph glyph-name="ocircumflex" unicode="&#xf4;" horiz-adv-x="564" 
d="M244 707h76l124 -154h-75l-87 108l-87 -108h-75zM282 477c145 0 250 -103 250 -246s-105 -246 -250 -246c-144 0 -250 103 -250 246s106 246 250 246zM282 406c-100 0 -174 -69 -174 -175s74 -175 174 -175s174 69 174 175s-74 175 -174 175z" />
    <glyph glyph-name="odieresis" unicode="&#xf6;" horiz-adv-x="564" 
d="M149 690h80v-116h-80v116zM335 690h80v-116h-80v116zM282 477c145 0 250 -103 250 -246s-105 -246 -250 -246c-144 0 -250 103 -250 246s106 246 250 246zM282 406c-100 0 -174 -69 -174 -175s74 -175 174 -175s174 69 174 175s-74 175 -174 175z" />
    <glyph glyph-name="oe" unicode="&#x153;" horiz-adv-x="935" 
d="M683 477c148 0 220 -106 220 -242v-13h-384c2 -103 70 -167 166 -167c86 0 130 51 158 88l52 -47c-36 -50 -95 -111 -210 -111c-94 0 -165 42 -201 115h-2c-33 -72 -106 -115 -199 -115c-150 0 -251 101 -251 246s101 246 251 246c93 0 165 -43 200 -116h2
c34 73 105 116 198 116zM678 410c-81 0 -144 -46 -156 -134h303c-6 84 -59 134 -147 134zM281 406c-100 0 -173 -69 -173 -175s73 -175 173 -175s173 69 173 175s-73 175 -173 175z" />
    <glyph glyph-name="ograve" unicode="&#xf2;" horiz-adv-x="564" 
d="M119 707h98l94 -154h-59zM282 477c145 0 250 -103 250 -246s-105 -246 -250 -246c-144 0 -250 103 -250 246s106 246 250 246zM282 406c-100 0 -174 -69 -174 -175s74 -175 174 -175s174 69 174 175s-74 175 -174 175z" />
    <glyph glyph-name="ohungarumlaut" unicode="&#x151;" horiz-adv-x="564" 
d="M307 707h70l-119 -154h-55zM418 707h70l-119 -154h-55zM282 477c145 0 250 -103 250 -246s-105 -246 -250 -246c-144 0 -250 103 -250 246s106 246 250 246zM282 406c-100 0 -174 -69 -174 -175s74 -175 174 -175s174 69 174 175s-74 175 -174 175z" />
    <glyph glyph-name="omacron" unicode="&#x14d;" horiz-adv-x="564" 
d="M141 657h282v-56h-282v56zM282 477c145 0 250 -103 250 -246s-105 -246 -250 -246c-144 0 -250 103 -250 246s106 246 250 246zM282 406c-100 0 -174 -69 -174 -175s74 -175 174 -175s174 69 174 175s-74 175 -174 175z" />
    <glyph glyph-name="ordfeminine" unicode="&#xaa;" horiz-adv-x="436" 
d="M203 338c-84 0 -153 61 -153 163s69 163 153 163c55 0 96 -24 118 -66h2v56h63v-306h-63v56h-2c-22 -42 -63 -66 -118 -66zM218 396c59 0 105 41 105 105s-46 105 -105 105s-101 -41 -101 -105s42 -105 101 -105z" />
    <glyph glyph-name="ordmasculine" unicode="&#xba;" horiz-adv-x="441" 
d="M221 664c96 0 170 -63 170 -163s-74 -163 -170 -163c-97 0 -171 63 -171 163s74 163 171 163zM221 605c-58 0 -105 -38 -105 -104s47 -104 105 -104c57 0 104 38 104 104s-47 104 -104 104z" />
    <glyph glyph-name="oslash" unicode="&#xf8;" horiz-adv-x="564" 
d="M498 455l-39 -45c46 -44 73 -106 73 -179c0 -143 -105 -246 -250 -246c-59 0 -112 17 -153 48l-41 -47l-25 21l41 47c-45 43 -72 105 -72 177c0 143 106 246 250 246c58 0 110 -17 151 -46l40 46zM108 231c0 -50 16 -92 44 -122l233 267c-28 19 -64 30 -103 30
c-100 0 -174 -69 -174 -175zM282 56c100 0 174 69 174 175c0 51 -17 93 -46 124l-233 -267c29 -21 65 -32 105 -32z" />
    <glyph glyph-name="oslashacute" unicode="&#x1ff;" horiz-adv-x="564" 
d="M349 707h97l-132 -154h-60zM498 455l-39 -45c46 -44 73 -106 73 -179c0 -143 -105 -246 -250 -246c-59 0 -112 17 -153 48l-41 -47l-25 21l41 47c-45 43 -72 105 -72 177c0 143 106 246 250 246c58 0 110 -17 151 -46l40 46zM108 231c0 -50 16 -92 44 -122l233 267
c-28 19 -64 30 -103 30c-100 0 -174 -69 -174 -175zM282 56c100 0 174 69 174 175c0 51 -17 93 -46 124l-233 -267c29 -21 65 -32 105 -32z" />
    <glyph glyph-name="otilde" unicode="&#xf5;" horiz-adv-x="564" 
d="M211 698c55 0 115 -56 156 -56c23 0 40 17 53 47l34 -11c-12 -48 -40 -96 -94 -96c-55 0 -115 55 -156 55c-23 0 -40 -16 -53 -46l-35 10c12 48 41 97 95 97zM282 477c145 0 250 -103 250 -246s-105 -246 -250 -246c-144 0 -250 103 -250 246s106 246 250 246zM282 406
c-100 0 -174 -69 -174 -175s74 -175 174 -175s174 69 174 175s-74 175 -174 175z" />
    <glyph glyph-name="racute" unicode="&#x155;" horiz-adv-x="317" 
d="M249 707h97l-132 -154h-60zM291 476h12v-83h-14c-98 0 -153 -62 -153 -176v-217h-72v462h72v-104h2c19 69 75 118 153 118z" />
    <glyph glyph-name="rcaron" unicode="&#x159;" horiz-adv-x="317" 
d="M275 700h76l-128 -154h-77l-128 154h75l91 -108zM291 476h12v-83h-14c-98 0 -153 -62 -153 -176v-217h-72v462h72v-104h2c19 69 75 118 153 118z" />
    <glyph glyph-name="uni0157" unicode="&#x157;" horiz-adv-x="317" 
d="M291 476h12v-83h-14c-98 0 -153 -62 -153 -176v-217h-72v462h72v-104h2c19 69 75 118 153 118zM91 -129h-34v82h88v-82l-62 -77h-31z" />
    <glyph glyph-name="sacute" unicode="&#x15b;" horiz-adv-x="406" 
d="M272 707h97l-132 -154h-60zM210 -15c-70 0 -139 21 -191 54l35 64c46 -30 101 -50 159 -50c63 0 92 25 92 61c0 30 -21 50 -63 69l-86 41c-67 31 -100 73 -100 129c0 81 63 124 159 124c54 0 108 -14 156 -36l-31 -64c-38 18 -81 32 -127 32c-52 0 -80 -18 -80 -53
c0 -31 21 -49 66 -70l84 -39c59 -28 99 -64 99 -130c0 -88 -68 -132 -172 -132z" />
    <glyph glyph-name="scaron" unicode="&#x161;" horiz-adv-x="406" 
d="M297 700h76l-128 -154h-77l-128 154h75l91 -108zM210 -15c-70 0 -139 21 -191 54l35 64c46 -30 101 -50 159 -50c63 0 92 25 92 61c0 30 -21 50 -63 69l-86 41c-67 31 -100 73 -100 129c0 81 63 124 159 124c54 0 108 -14 156 -36l-31 -64c-38 18 -81 32 -127 32
c-52 0 -80 -18 -80 -53c0 -31 21 -49 66 -70l84 -39c59 -28 99 -64 99 -130c0 -88 -68 -132 -172 -132z" />
    <glyph glyph-name="scedilla" unicode="&#x15f;" horiz-adv-x="406" 
d="M382 117c0 -86 -65 -130 -165 -132l-10 -26c33 -9 70 -24 70 -70c0 -48 -57 -72 -124 -101l-11 24c52 25 84 43 84 65c0 25 -22 33 -66 43l25 66c-61 4 -120 24 -166 53l35 64c46 -30 101 -50 159 -50c63 0 92 25 92 61c0 30 -21 50 -63 69l-86 41
c-67 31 -100 73 -100 129c0 81 63 124 159 124c54 0 108 -14 156 -36l-31 -64c-38 18 -81 32 -127 32c-52 0 -80 -18 -80 -53c0 -31 21 -49 66 -70l84 -39c59 -28 99 -64 99 -130z" />
    <glyph glyph-name="scircumflex" unicode="&#x15d;" horiz-adv-x="406" 
d="M169 707h76l124 -154h-75l-87 108l-87 -108h-75zM210 -15c-70 0 -139 21 -191 54l35 64c46 -30 101 -50 159 -50c63 0 92 25 92 61c0 30 -21 50 -63 69l-86 41c-67 31 -100 73 -100 129c0 81 63 124 159 124c54 0 108 -14 156 -36l-31 -64c-38 18 -81 32 -127 32
c-52 0 -80 -18 -80 -53c0 -31 21 -49 66 -70l84 -39c59 -28 99 -64 99 -130c0 -88 -68 -132 -172 -132z" />
    <glyph glyph-name="uni0219" unicode="&#x219;" horiz-adv-x="406" 
d="M199 286l84 -39c59 -28 99 -64 99 -130c0 -88 -68 -132 -172 -132c-70 0 -139 21 -191 54l35 64c46 -30 101 -50 159 -50c63 0 92 25 92 61c0 30 -21 50 -63 69l-86 41c-67 31 -100 73 -100 129c0 81 63 124 159 124c54 0 108 -14 156 -36l-31 -64c-38 18 -81 32 -127 32
c-52 0 -80 -18 -80 -53c0 -31 21 -49 66 -70zM191 -129h-34v82h88v-82l-62 -77h-31z" />
    <glyph glyph-name="tbar" unicode="&#x167;" horiz-adv-x="302" 
d="M282 462v-62h-102v-83h99v-52h-99v-138c0 -41 20 -61 58 -61h25v-67h-38c-73 0 -117 39 -117 114v152h-86v52h86v83h-89v62h89v185h72v-185h102z" />
    <glyph glyph-name="tcaron" unicode="&#x165;" horiz-adv-x="319" 
d="M267 707h71l-57 -174h-54zM108 647h72v-185h102v-62h-102v-273c0 -41 20 -61 58 -61h25v-67h-38c-73 0 -117 39 -117 114v287h-89v62h89v185z" />
    <glyph glyph-name="uni0163" unicode="&#x163;" horiz-adv-x="306" 
d="M282 462v-62h-102v-273c0 -41 20 -61 58 -61h25v-67h-38h-5l-15 -41c33 -9 70 -24 70 -70c0 -48 -57 -72 -124 -101l-11 24c52 25 84 43 84 65c0 25 -22 33 -66 43l31 84c-51 11 -81 48 -81 110v287h-89v62h89v185h72v-185h102z" />
    <glyph glyph-name="uni021B" unicode="&#x21b;" horiz-adv-x="306" 
d="M282 462v-62h-102v-273c0 -41 20 -61 58 -61h25v-67h-38c-73 0 -117 39 -117 114v287h-89v62h89v185h72v-185h102zM189 -130h-34v82h88v-82l-62 -77h-31z" />
    <glyph glyph-name="thorn" unicode="&#xfe;" horiz-adv-x="576" 
d="M139 -200h-72v900h72v-320h2c32 58 91 97 175 97c126 0 228 -93 228 -246s-102 -246 -228 -246c-84 0 -143 39 -175 97h-2v-282zM302 56c101 0 167 73 167 175s-66 175 -167 175s-167 -73 -167 -175s66 -175 167 -175z" />
    <glyph glyph-name="uacute" unicode="&#xfa;" horiz-adv-x="526" 
d="M327 707h97l-132 -154h-60zM231 -15c-95 0 -172 56 -172 198v279h73v-275c0 -93 49 -132 117 -132c78 0 141 50 141 198v209h72v-462h-72v86h-2c-23 -53 -70 -101 -157 -101z" />
    <glyph glyph-name="ubreve" unicode="&#x16d;" horiz-adv-x="526" 
d="M344 700h54c0 -89 -57 -140 -136 -140s-136 51 -136 140h54c2 -54 33 -87 82 -87s80 33 82 87zM231 -15c-95 0 -172 56 -172 198v279h73v-275c0 -93 49 -132 117 -132c78 0 141 50 141 198v209h72v-462h-72v86h-2c-23 -53 -70 -101 -157 -101z" />
    <glyph glyph-name="ucircumflex" unicode="&#xfb;" horiz-adv-x="526" 
d="M224 707h76l124 -154h-75l-87 108l-87 -108h-75zM231 -15c-95 0 -172 56 -172 198v279h73v-275c0 -93 49 -132 117 -132c78 0 141 50 141 198v209h72v-462h-72v86h-2c-23 -53 -70 -101 -157 -101z" />
    <glyph glyph-name="udieresis" unicode="&#xfc;" horiz-adv-x="526" 
d="M129 690h80v-116h-80v116zM315 690h80v-116h-80v116zM231 -15c-95 0 -172 56 -172 198v279h73v-275c0 -93 49 -132 117 -132c78 0 141 50 141 198v209h72v-462h-72v86h-2c-23 -53 -70 -101 -157 -101z" />
    <glyph glyph-name="ugrave" unicode="&#xf9;" horiz-adv-x="526" 
d="M99 707h98l94 -154h-59zM231 -15c-95 0 -172 56 -172 198v279h73v-275c0 -93 49 -132 117 -132c78 0 141 50 141 198v209h72v-462h-72v86h-2c-23 -53 -70 -101 -157 -101z" />
    <glyph glyph-name="uhungarumlaut" unicode="&#x171;" horiz-adv-x="526" 
d="M286 707h70l-119 -154h-55zM397 707h70l-119 -154h-55zM231 -15c-95 0 -172 56 -172 198v279h73v-275c0 -93 49 -132 117 -132c78 0 141 50 141 198v209h72v-462h-72v86h-2c-23 -53 -70 -101 -157 -101z" />
    <glyph glyph-name="umacron" unicode="&#x16b;" horiz-adv-x="526" 
d="M120 657h282v-56h-282v56zM231 -15c-95 0 -172 56 -172 198v279h73v-275c0 -93 49 -132 117 -132c78 0 141 50 141 198v209h72v-462h-72v86h-2c-23 -53 -70 -101 -157 -101z" />
    <glyph glyph-name="uogonek" unicode="&#x173;" horiz-adv-x="526" 
d="M462 0h-33c-55 -44 -75 -79 -75 -106c0 -21 19 -29 40 -29c12 0 30 3 44 7l8 -49c-21 -7 -48 -10 -65 -10c-46 0 -86 22 -86 71c0 42 29 87 95 141v61h-2c-23 -53 -70 -101 -157 -101c-95 0 -172 56 -172 198v279h73v-275c0 -93 49 -132 117 -132c78 0 141 50 141 198
v209h72v-462z" />
    <glyph glyph-name="uring" unicode="&#x16f;" horiz-adv-x="526" 
d="M262 747c69 0 119 -49 119 -117s-50 -117 -119 -117s-119 49 -119 117s50 117 119 117zM262 708c-47 0 -78 -32 -78 -78s31 -78 78 -78s78 32 78 78s-31 78 -78 78zM231 -15c-95 0 -172 56 -172 198v279h73v-275c0 -93 49 -132 117 -132c78 0 141 50 141 198v209h72v-462
h-72v86h-2c-23 -53 -70 -101 -157 -101z" />
    <glyph glyph-name="utilde" unicode="&#x169;" horiz-adv-x="526" 
d="M191 698c55 0 115 -56 156 -56c23 0 40 17 53 47l34 -11c-12 -48 -40 -96 -94 -96c-55 0 -115 55 -156 55c-23 0 -40 -16 -53 -46l-35 10c12 48 41 97 95 97zM231 -15c-95 0 -172 56 -172 198v279h73v-275c0 -93 49 -132 117 -132c78 0 141 50 141 198v209h72v-462h-72
v86h-2c-23 -53 -70 -101 -157 -101z" />
    <glyph glyph-name="wacute" unicode="&#x1e83;" horiz-adv-x="719" 
d="M425 707h97l-132 -154h-60zM521 92l111 370h80l-156 -462h-69l-128 368l-128 -368h-68l-156 462h79l112 -370l125 370h73z" />
    <glyph glyph-name="wcircumflex" unicode="&#x175;" horiz-adv-x="719" 
d="M446 553l-87 108l-87 -108h-75l124 154h76l124 -154h-75zM521 92l111 370h80l-156 -462h-69l-128 368l-128 -368h-68l-156 462h79l112 -370l125 370h73z" />
    <glyph glyph-name="wdieresis" unicode="&#x1e85;" horiz-adv-x="719" 
d="M226 690h80v-116h-80v116zM412 690h80v-116h-80v116zM521 92l111 370h80l-156 -462h-69l-128 368l-128 -368h-68l-156 462h79l112 -370l125 370h73z" />
    <glyph glyph-name="wgrave" unicode="&#x1e81;" horiz-adv-x="719" 
d="M294 707l94 -154h-59l-133 154h98zM521 92l111 370h80l-156 -462h-69l-128 368l-128 -368h-68l-156 462h79l112 -370l125 370h73z" />
    <glyph glyph-name="yacute" unicode="&#xfd;" horiz-adv-x="467" 
d="M302 707h97l-132 -154h-60zM236 130l144 332h80l-302 -662h-77l118 249l-192 413h85z" />
    <glyph glyph-name="ycircumflex" unicode="&#x177;" horiz-adv-x="467" 
d="M323 553l-87 108l-87 -108h-75l124 154h76l124 -154h-75zM236 130l144 332h80l-302 -662h-77l118 249l-192 413h85z" />
    <glyph glyph-name="ydieresis" unicode="&#xff;" horiz-adv-x="467" 
d="M103 690h80v-116h-80v116zM289 690h80v-116h-80v116zM236 130l144 332h80l-302 -662h-77l118 249l-192 413h85z" />
    <glyph glyph-name="ygrave" unicode="&#x1ef3;" horiz-adv-x="467" 
d="M172 707l94 -154h-59l-133 154h98zM236 130l144 332h80l-302 -662h-77l118 249l-192 413h85z" />
    <glyph glyph-name="zacute" unicode="&#x17a;" horiz-adv-x="441" 
d="M293 707h97l-132 -154h-60zM394 398l-279 -330h299v-68h-387v64l279 331h-263v67h351v-64z" />
    <glyph glyph-name="zcaron" unicode="&#x17e;" horiz-adv-x="441" 
d="M394 700l-128 -154h-77l-128 154h75l91 -108l91 108h76zM394 398l-279 -330h299v-68h-387v64l279 331h-263v67h351v-64z" />
    <glyph glyph-name="zdotaccent" unicode="&#x17c;" horiz-adv-x="441" 
d="M182 690h91v-120h-91v120zM394 398l-279 -330h299v-68h-387v64l279 331h-263v67h351v-64z" />
    <glyph glyph-name="germandbls" unicode="&#xdf;" horiz-adv-x="543" 
d="M311 400v-2c123 -7 200 -68 200 -192c0 -138 -93 -211 -258 -211h-58v68h51c119 0 190 40 190 145c0 114 -81 152 -230 152v63c109 0 167 38 167 116c0 68 -43 106 -111 106c-65 0 -123 -36 -123 -125v-650h-72v647c0 116 70 198 197 198c125 0 182 -78 182 -166
c0 -76 -44 -132 -135 -149z" />
    <glyph glyph-name="eth" unicode="&#xf0;" horiz-adv-x="580" 
d="M457 729l-71 -60c98 -76 151 -194 151 -363c0 -246 -130 -321 -256 -321c-156 0 -249 106 -249 245c0 154 107 247 243 247c91 0 159 -42 192 -128h3c-7 124 -55 215 -136 276l-107 -92l-28 31l99 84c-46 27 -100 45 -161 55l14 61c77 -13 144 -36 200 -71l79 68zM284 55
c100 0 172 67 172 173c0 111 -72 179 -174 179c-104 0 -174 -70 -174 -176c0 -108 75 -176 176 -176z" />
    <glyph glyph-name="grave" unicode="`" horiz-adv-x="292" 
d="M50 707h98l94 -154h-59z" />
    <glyph glyph-name="acute" unicode="&#xb4;" horiz-adv-x="292" 
d="M145 707h97l-132 -154h-60z" />
    <glyph glyph-name="circumflex" unicode="&#x2c6;" horiz-adv-x="424" 
d="M174 707h76l124 -154h-75l-87 108l-87 -108h-75z" />
    <glyph glyph-name="tilde" unicode="&#x2dc;" horiz-adv-x="438" 
d="M145 698c55 0 115 -56 156 -56c23 0 40 17 53 47l34 -11c-12 -48 -40 -96 -94 -96c-55 0 -115 55 -156 55c-23 0 -40 -16 -53 -46l-35 10c12 48 41 97 95 97z" />
    <glyph glyph-name="caron" unicode="&#x2c7;" horiz-adv-x="433" 
d="M307 700h76l-128 -154h-77l-128 154h75l91 -108z" />
    <glyph glyph-name="dieresis" unicode="&#xa8;" horiz-adv-x="366" 
d="M50 690h80v-116h-80v116zM236 690h80v-116h-80v116z" />
    <glyph glyph-name="macron" unicode="&#xaf;" horiz-adv-x="382" 
d="M50 657h282v-56h-282v56z" />
    <glyph glyph-name="breve" unicode="&#x2d8;" horiz-adv-x="372" 
d="M268 700h54c0 -89 -57 -140 -136 -140s-136 51 -136 140h54c2 -54 33 -87 82 -87s80 33 82 87z" />
    <glyph glyph-name="ring" unicode="&#x2da;" horiz-adv-x="338" 
d="M169 747c69 0 119 -49 119 -117s-50 -117 -119 -117s-119 49 -119 117s50 117 119 117zM169 708c-47 0 -78 -32 -78 -78s31 -78 78 -78s78 32 78 78s-31 78 -78 78z" />
    <glyph glyph-name="hungarumlaut" unicode="&#x2dd;" horiz-adv-x="385" 
d="M154 707h70l-119 -154h-55zM265 707h70l-119 -154h-55z" />
    <glyph glyph-name="dotaccent" unicode="&#x2d9;" horiz-adv-x="191" 
d="M50 690h91v-120h-91v120z" />
    <glyph glyph-name="cedilla" unicode="&#xb8;" horiz-adv-x="235" 
d="M105 19h32l-22 -60c33 -9 70 -24 70 -70c0 -48 -57 -72 -124 -101l-11 24c52 25 84 43 84 65c0 25 -22 33 -66 43z" />
    <glyph glyph-name="ogonek" unicode="&#x2db;" horiz-adv-x="253" 
d="M153 31l46 -20c-67 -49 -90 -88 -90 -117c0 -21 19 -29 40 -29c12 0 30 3 44 7l8 -49c-21 -7 -48 -10 -65 -10c-46 0 -86 22 -86 71c0 44 31 90 103 147z" />
    <glyph glyph-name="comma" unicode="," horiz-adv-x="213" 
d="M56 103h102v-103l-63 -142h-40l50 142h-49v103z" />
    <glyph glyph-name="semicolon" unicode=";" horiz-adv-x="213" 
d="M56 462h102v-103h-102v103zM56 103h102v-103l-63 -142h-40l50 142h-49v103z" />
    <glyph glyph-name="colon" unicode=":" horiz-adv-x="213" 
d="M56 462h102v-103h-102v103zM56 103h103v-103h-103v103z" />
    <glyph glyph-name="period" unicode="." horiz-adv-x="213" 
d="M56 103h102v-103h-102v103z" />
    <glyph glyph-name="ellipsis" unicode="&#x2026;" horiz-adv-x="685" 
d="M56 103h102v-103h-102v103zM292 103h102v-103h-102v103zM528 103h102v-103h-102v103z" />
    <glyph glyph-name="hyphen" unicode="-" horiz-adv-x="347" 
d="M45 305h257v-72h-257v72z" />
    <glyph glyph-name="exclam" unicode="!" horiz-adv-x="303" 
d="M176 206h-50l-17 494h84zM101 103h102v-103h-102v103z" />
    <glyph glyph-name="exclamdown" unicode="&#xa1;" horiz-adv-x="303" 
d="M203 397h-102v103h102v-103zM194 -200h-84l17 494h50z" />
    <glyph glyph-name="question" unicode="?" horiz-adv-x="470" 
d="M235 715c124 0 195 -74 195 -181c0 -75 -38 -120 -79 -159c-46 -42 -95 -77 -95 -145v-24h-72v29c0 89 58 133 112 185c32 32 59 67 59 116c0 58 -37 108 -120 108c-81 0 -131 -51 -131 -130h-74c0 127 80 201 205 201zM168 103h103v-103h-103v103z" />
    <glyph glyph-name="questiondown" unicode="&#xbf;" horiz-adv-x="410" 
d="M282 397h-102v103h102v-103zM215 -215c-123 0 -195 74 -195 181c0 75 38 120 79 159c46 42 95 77 95 145v24h72v-29c0 -89 -58 -133 -111 -185c-33 -32 -59 -67 -59 -116c0 -58 36 -108 119 -108c81 0 131 51 131 130h74c0 -127 -80 -201 -205 -201z" />
    <glyph glyph-name="quoteleft" unicode="&#x2018;" horiz-adv-x="167" 
d="M101 739h31l-54 -145h44v-91h-92v91z" />
    <glyph glyph-name="quoteright" unicode="&#x2019;" horiz-adv-x="167" 
d="M46 624v91h91v-91l-71 -145h-31l54 145h-43z" />
    <glyph glyph-name="quotedblleft" unicode="&#x201c;" horiz-adv-x="296" 
d="M30 594l71 145h31l-54 -145h44v-91h-92v91zM230 739h31l-54 -145h43v-91h-91v91z" />
    <glyph glyph-name="quotedblright" unicode="&#x201d;" horiz-adv-x="296" 
d="M89 624h-43v91h91v-91l-71 -145h-31zM175 624v91h91v-91l-71 -145h-31l54 145h-43z" />
    <glyph glyph-name="quotesinglbase" unicode="&#x201a;" horiz-adv-x="167" 
d="M46 0v92h91v-92l-71 -145h-31l54 145h-43z" />
    <glyph glyph-name="quotedblbase" unicode="&#x201e;" horiz-adv-x="296" 
d="M89 0h-43v92h91v-92l-71 -145h-31zM175 0v92h91v-92l-71 -145h-31l54 145h-43z" />
    <glyph glyph-name="guilsinglleft" unicode="&#x2039;" horiz-adv-x="257" 
d="M163 389h84l-145 -155l145 -155h-84l-143 155z" />
    <glyph glyph-name="guilsinglright" unicode="&#x203a;" horiz-adv-x="257" 
d="M154 234l-144 155h84l143 -155l-143 -155h-84z" />
    <glyph glyph-name="periodcentered" unicode="&#xb7;" horiz-adv-x="213" 
d="M56 462h102v-103h-102v103z" />
    <glyph glyph-name="slash" unicode="/" horiz-adv-x="581" 
d="M30 -62l464 839l57 -32l-463 -838z" />
    <glyph glyph-name="bar" unicode="|" horiz-adv-x="284" 
d="M110 727h64v-942h-64v942z" />
    <glyph glyph-name="endash" unicode="&#x2013;" horiz-adv-x="752" 
d="M50 304h652v-66h-652v66z" />
    <glyph glyph-name="emdash" unicode="&#x2014;" horiz-adv-x="1154" 
d="M50 304h1054v-66h-1054v66z" />
    <glyph glyph-name="bullet" unicode="&#x2022;" horiz-adv-x="326" 
d="M163 473c55 0 98 -43 98 -98c0 -56 -43 -98 -98 -98s-98 42 -98 98c0 55 43 98 98 98z" />
    <glyph glyph-name="parenleft" unicode="(" horiz-adv-x="283" 
d="M210 763l56 -41c-104 -137 -152 -271 -152 -443c0 -175 48 -314 149 -453l-55 -41c-99 136 -166 282 -166 494c0 209 67 351 168 484z" />
    <glyph glyph-name="parenright" unicode=")" horiz-adv-x="283" 
d="M75 -215l-56 41c102 139 150 278 150 453c0 172 -48 306 -152 443l56 41c101 -133 168 -275 168 -484c0 -212 -67 -358 -166 -494z" />
    <glyph glyph-name="bracketleft" unicode="[" horiz-adv-x="317" 
d="M106 751h201v-66h-129v-835h129v-65h-201v966z" />
    <glyph glyph-name="bracketright" unicode="]" horiz-adv-x="317" 
d="M211 -215h-201v65h129v835h-129v66h201v-966z" />
    <glyph glyph-name="braceleft" unicode="{" horiz-adv-x="377" 
d="M336 745h31v-65h-27c-59 0 -106 -25 -106 -126v-129c0 -85 -28 -132 -101 -149v-2c73 -17 101 -64 101 -149v-149c0 -102 47 -126 106 -126h27v-65h-31c-98 0 -175 48 -175 188v159c0 65 -43 102 -126 106v74c83 4 126 41 126 106v139c0 140 77 188 175 188z" />
    <glyph glyph-name="braceright" unicode="}" horiz-adv-x="377" 
d="M41 -215h-31v65h27c58 0 106 24 106 126v149c0 85 27 132 101 149v2c-74 17 -101 64 -101 149v129c0 101 -47 126 -106 126h-27v65h31c97 0 175 -48 175 -188v-139c0 -65 42 -102 126 -106v-74c-84 -4 -126 -41 -126 -106v-159c0 -140 -78 -188 -175 -188z" />
    <glyph glyph-name="uni00AD" unicode="&#xad;" horiz-adv-x="347" 
d="M45 305h257v-72h-257v72z" />
    <glyph glyph-name="guillemotleft" unicode="&#xab;" horiz-adv-x="413" 
d="M163 389h84l-145 -155l145 -155h-84l-143 155zM319 389h84l-144 -155l144 -155h-84l-142 155z" />
    <glyph glyph-name="guillemotright" unicode="&#xbb;" horiz-adv-x="413" 
d="M154 234l-144 155h84l143 -155l-143 -155h-84zM311 234l-144 155h83l143 -155l-143 -155h-83z" />
    <glyph glyph-name="zero" unicode="0" horiz-adv-x="566" 
d="M283 690c147 0 238 -127 238 -352s-91 -353 -238 -353s-238 128 -238 353s91 352 238 352zM283 622c-99 0 -163 -109 -163 -284s64 -285 163 -285s163 110 163 285s-64 284 -163 284z" />
    <glyph glyph-name="one" unicode="1" horiz-adv-x="306" 
d="M73 675h125v-675h-72v604h-53v71z" />
    <glyph glyph-name="two" unicode="2" horiz-adv-x="500" 
d="M455 0h-419v56l251 274c58 64 91 113 91 170c0 71 -49 122 -130 122c-75 0 -135 -44 -138 -130h-72c3 123 85 198 213 198c127 0 202 -73 202 -187c0 -74 -36 -136 -105 -211l-208 -223h315v-69z" />
    <glyph glyph-name="three" unicode="3" horiz-adv-x="520" 
d="M253 690c124 0 200 -68 200 -171c0 -78 -43 -139 -128 -156v-2c98 -8 156 -71 156 -176c0 -120 -75 -200 -220 -200c-133 0 -218 66 -225 188h73c6 -73 56 -120 152 -120c92 0 145 45 145 138c0 94 -54 134 -186 133h-37v65h37c100 0 158 38 158 119
c0 72 -46 114 -126 114c-75 0 -130 -37 -133 -111h-72c4 111 83 179 206 179z" />
    <glyph glyph-name="four" unicode="4" horiz-adv-x="549" 
d="M438 197h82v-69h-82v-128h-71v128h-347v61l340 486h78v-478zM364 573l-263 -376h266v376h-3z" />
    <glyph glyph-name="five" unicode="5" horiz-adv-x="522" 
d="M280 442c122 0 211 -80 211 -223s-85 -234 -233 -234c-113 0 -195 52 -232 144l61 35c34 -72 84 -111 170 -111c109 0 159 69 159 165c0 104 -63 160 -152 160c-63 0 -111 -28 -140 -71h-65l41 368h337v-69h-278l-27 -219h2c32 31 83 55 146 55z" />
    <glyph glyph-name="six" unicode="6" horiz-adv-x="523" 
d="M268 -15c-133 0 -236 87 -236 238c0 97 33 177 116 276l150 182h89l-245 -294l3 -2c43 42 87 60 142 60c129 0 216 -93 216 -228c0 -137 -98 -232 -235 -232zM268 53c94 0 160 65 160 163c0 97 -63 162 -158 162c-97 0 -163 -66 -163 -163c0 -96 64 -162 161 -162z" />
    <glyph glyph-name="seven" unicode="7" horiz-adv-x="444" 
d="M15 675h413v-63l-283 -612h-77l283 605h-336v70z" />
    <glyph glyph-name="eight" unicode="8" horiz-adv-x="537" 
d="M268 -15c-143 0 -227 81 -227 199c0 87 50 155 129 177v2c-61 19 -109 74 -109 152c0 105 79 175 207 175c129 0 208 -70 208 -175c0 -78 -48 -133 -109 -152v-2c78 -22 128 -90 128 -177c0 -118 -84 -199 -227 -199zM268 393c81 0 132 47 132 117s-51 115 -132 115
s-132 -45 -132 -115s52 -117 132 -117zM268 50c95 0 152 51 152 138c0 82 -54 139 -152 139c-97 0 -151 -57 -151 -139c0 -87 56 -138 151 -138z" />
    <glyph glyph-name="nine" unicode="9" horiz-adv-x="510" 
d="M233 0h-87l240 293l-2 2c-40 -39 -91 -58 -144 -58c-125 0 -215 97 -215 224c0 138 96 229 233 229s232 -87 232 -244c0 -90 -32 -168 -111 -266zM257 304c95 0 160 65 160 158c0 95 -64 160 -160 160c-92 0 -157 -63 -157 -159c0 -94 64 -159 157 -159z" />
    <glyph glyph-name="zero.zero" horiz-adv-x="566" 
d="M476 685l-34 -67c51 -60 79 -155 79 -280c0 -225 -91 -353 -238 -353c-53 0 -98 16 -135 48l-32 -64l-26 11l37 74c-52 59 -82 156 -82 284c0 225 91 352 238 352c54 0 101 -17 138 -51l29 57zM120 338c0 -88 16 -160 45 -209l221 440c-27 34 -62 53 -103 53
c-99 0 -163 -109 -163 -284zM283 53c99 0 163 110 163 285c0 85 -15 155 -42 204l-221 -439c27 -33 61 -50 100 -50z" />
    <glyph glyph-name="asterisk" unicode="*" horiz-adv-x="403" 
d="M355 624l18 -53l-136 -38l88 -110l-46 -34l-77 117l-78 -118l-46 34l88 110l-136 38l18 53l131 -49l-7 141h58l-7 -140z" />
    <glyph glyph-name="asciitilde" unicode="~" 
d="M190 371c95 0 144 -67 224 -67c49 0 85 26 120 56l35 -54c-54 -46 -103 -68 -159 -68c-94 0 -141 67 -223 67c-50 0 -87 -26 -122 -57l-34 54c55 47 103 69 159 69z" />
    <glyph glyph-name="brokenbar" unicode="&#xa6;" horiz-adv-x="284" 
d="M110 727h64v-388h-64v388zM110 181h64v-396h-64v396z" />
    <glyph glyph-name="backslash" unicode="\" horiz-adv-x="581" 
d="M551 -62l-57 -31l-464 838l57 32z" />
    <glyph glyph-name="underscore" unicode="_" horiz-adv-x="533" 
d="M10 -15h513v-62h-513v62z" />
    <glyph glyph-name="quotesingle" unicode="'" horiz-adv-x="172" 
d="M50 715h72l-18 -253h-35z" />
    <glyph glyph-name="quotedbl" unicode="&#x22;" horiz-adv-x="267" 
d="M98 462h-29l-19 253h67zM198 462h-29l-19 253h67z" />
    <glyph glyph-name="uni02BC" unicode="&#x2bc;" horiz-adv-x="167" 
d="M46 624v91h91v-91l-71 -145h-31l54 145h-43z" />
    <glyph glyph-name="ampersand" unicode="&#x26;" horiz-adv-x="673" 
d="M534 129l98 -129h-88l-56 73c-54 -55 -122 -88 -208 -88c-136 0 -235 81 -235 216c0 108 64 188 172 225c-33 43 -61 91 -61 142c0 73 56 122 153 122c48 0 98 -12 136 -28l-24 -66c-38 14 -80 23 -113 23c-51 0 -76 -22 -76 -58c0 -33 22 -64 46 -96l210 -276
c27 42 49 92 69 147l67 -25c-25 -69 -54 -131 -90 -182zM280 56c66 0 120 27 164 74l-185 241c-85 -27 -139 -81 -139 -166c0 -93 66 -149 160 -149z" />
    <glyph glyph-name="at" unicode="@" horiz-adv-x="934" 
d="M479 690c236 0 405 -151 405 -387c0 -131 -57 -243 -163 -243c-55 0 -93 25 -107 86h-3c-25 -53 -77 -95 -157 -95c-112 0 -205 84 -205 218c0 135 92 218 205 218c68 0 121 -30 151 -89h2v74h64v-288c0 -52 27 -70 56 -70c63 0 96 77 96 185c0 216 -158 333 -344 333
c-193 0 -367 -117 -367 -364c0 -250 196 -360 375 -360c73 0 147 18 202 44l24 -55c-63 -26 -144 -47 -227 -47c-205 0 -436 126 -436 416c0 274 187 424 429 424zM465 423c-90 0 -146 -66 -146 -153s55 -153 146 -153c89 0 147 66 147 153s-58 153 -147 153z" />
    <glyph glyph-name="copyright" unicode="&#xa9;" horiz-adv-x="828" 
d="M414 -15c-203 0 -364 152 -364 365s161 365 364 365s364 -152 364 -365s-161 -365 -364 -365zM414 32c175 0 314 130 314 318s-139 318 -314 318s-314 -130 -314 -318s139 -318 314 -318zM417 127c-135 0 -230 95 -230 227s95 227 230 227c64 0 113 -21 152 -48l-30 -52
c-27 17 -67 39 -124 39c-98 0 -163 -65 -163 -166c0 -100 65 -166 163 -166c57 0 97 23 124 40l30 -52c-39 -28 -88 -49 -152 -49z" />
    <glyph glyph-name="registered" unicode="&#xae;" horiz-adv-x="560" 
d="M280 715c135 0 230 -94 230 -232s-95 -232 -230 -232s-230 94 -230 232s95 232 230 232zM280 282c114 0 197 78 197 201s-83 201 -197 201s-197 -78 -197 -201s83 -201 197 -201zM376 545c0 -40 -26 -70 -63 -77l73 -109h-40l-69 108h-41v-108h-32v260h93
c45 0 79 -27 79 -74zM290 590h-54v-93h54c35 0 52 20 52 46c0 28 -18 47 -52 47z" />
    <glyph glyph-name="trademark" unicode="&#x2122;" horiz-adv-x="836" 
d="M328 700v-51h-123v-370h-52v370h-123v51h298zM665 700h49l92 -421h-56l-70 315l-100 -251h-44l-101 251l-70 -315h-55l92 421h49l107 -276z" />
    <glyph glyph-name="paragraph" unicode="&#xb6;" horiz-adv-x="596" 
d="M254 700h292v-57h-58v-749h-61v749h-122v-749h-61v416c-119 0 -194 80 -194 199c0 115 79 191 204 191z" />
    <glyph glyph-name="section" unicode="&#xa7;" horiz-adv-x="537" 
d="M388 112c38 -27 64 -63 64 -120c0 -86 -65 -150 -187 -150c-74 0 -134 21 -188 55l40 62c48 -30 97 -48 152 -48c73 0 110 34 110 80c0 141 -329 88 -329 300c0 75 47 124 98 154c-37 26 -63 63 -63 119c0 87 65 151 187 151c74 0 133 -21 188 -56l-40 -61
c-49 30 -97 48 -152 48c-73 0 -111 -35 -111 -80c0 -142 330 -88 330 -301c0 -74 -47 -124 -99 -153zM123 297c0 -92 111 -112 204 -152c33 17 87 55 87 113c0 93 -112 113 -205 154c-33 -19 -86 -56 -86 -115z" />
    <glyph glyph-name="asciicircum" unicode="^" 
d="M264 715h72l146 -322h-61l-121 274l-121 -274h-61z" />
    <glyph glyph-name="dagger" unicode="&#x2020;" horiz-adv-x="498" 
d="M282 475h166v-60h-166v-508h-66v508h-166v60h166v225h66v-225z" />
    <glyph glyph-name="daggerdbl" unicode="&#x2021;" horiz-adv-x="496" 
d="M446 480v-61h-165v-220h165v-61h-165v-231h-66v231h-165v61h165v220h-165v61h165v220h66v-220h165z" />
    <glyph glyph-name="emptyset" unicode="&#x2205;" 
d="M537 537l-57 -56c38 -41 60 -96 60 -157c0 -131 -103 -232 -240 -232c-62 0 -118 21 -160 56l-58 -57l-19 20l57 56c-38 41 -60 96 -60 157c0 131 103 232 240 232c62 0 117 -21 159 -56l58 57zM132 324c0 -42 14 -79 38 -108l240 236c-29 23 -67 36 -110 36
c-99 0 -168 -70 -168 -164zM300 160c99 0 168 70 168 164c0 42 -14 80 -38 108l-240 -235c29 -23 66 -37 110 -37z" />
    <glyph glyph-name="uni2126" unicode="&#x2126;" horiz-adv-x="772" 
d="M386 715c214 0 349 -140 349 -334c0 -165 -105 -274 -241 -309v-3h222v-69h-290v107c146 28 236 132 236 271c0 157 -103 268 -276 268s-276 -111 -276 -268c0 -139 90 -243 236 -271v-107h-291v69h223v3c-136 35 -241 144 -241 309c0 194 134 334 349 334z" />
    <glyph glyph-name="uni2206" unicode="&#x2206;" horiz-adv-x="628" 
d="M279 700h70l259 -700h-588zM517 34l-203 574l-203 -574h406z" />
    <glyph glyph-name="uni00B5" unicode="&#xb5;" 
d="M429 253v209h72v-462h-72v86h-2c-23 -53 -70 -101 -157 -101c-40 0 -78 10 -107 33v-218h-65v662h73v-275c0 -93 49 -132 117 -132c78 0 141 50 141 198z" />
    <glyph glyph-name="uniF8FF" unicode="&#xf8ff;" horiz-adv-x="865" 
d="M50 676c0 21 16 36 37 36c20 0 37 -15 37 -36c0 -13 -6 -27 -18 -34v-24c49 20 105 42 173 42c55 0 107 -26 107 -83v-25c23 5 63 12 104 12c63 0 136 -17 136 -83v-48c24 6 49 12 81 12c77 0 108 -34 108 -79v-240c-41 25 -79 32 -107 32c-48 0 -82 -20 -120 -20
c-35 0 -51 17 -51 46v86c-14 3 -32 5 -47 5c-47 0 -101 -18 -140 -18s-54 18 -54 46v68h-14c-55 0 -132 -27 -176 -44v-327h-39v643c-11 7 -17 20 -17 33zM357 385v192c0 40 -39 55 -77 55c-66 0 -127 -26 -174 -45v-230c60 23 122 42 175 42c24 0 54 -4 76 -14zM274 580h38
l-65 -95v-68h-30v68l-65 95h38l42 -64zM598 277v197c0 19 -2 62 -106 62c-32 0 -65 -4 -106 -12v-171c0 -34 -64 -25 -64 -54c0 -10 8 -14 27 -14c38 0 89 17 141 17c37 0 79 -9 108 -25zM400 414c0 47 33 81 80 81s80 -34 80 -81s-33 -81 -80 -81s-80 34 -80 81zM530 414
c0 30 -21 52 -50 52s-50 -22 -50 -52s21 -52 50 -52s50 22 50 52zM788 171v194c0 40 -34 51 -80 51c-28 0 -50 -4 -82 -12v-167c0 -36 -62 -29 -62 -56c0 -9 6 -16 25 -16c32 0 72 21 118 21c25 0 56 -6 81 -15zM673 373h36l-10 -100h-16zM356 352c0 7 -14 13 -32 16v-32
c12 7 32 8 32 16zM598 240c0 11 -15 18 -34 24v-47c17 11 34 11 34 23zM671 231c0 11 8 19 20 19s20 -8 20 -19c0 -12 -8 -20 -20 -20s-20 8 -20 20z" />
    <glyph glyph-name="uni2113" unicode="&#x2113;" horiz-adv-x="452" 
d="M175 296c2 -170 32 -244 110 -244c35 0 66 13 118 41v-69c-44 -21 -71 -36 -124 -36c-111 0 -161 76 -166 282l-73 -24v63c24 8 49 17 72 26c4 285 81 355 178 355c76 0 122 -52 122 -132c0 -124 -106 -205 -237 -262zM287 629c-50 0 -105 -44 -111 -266
c97 48 171 110 171 196c0 47 -23 70 -60 70z" />
    <glyph glyph-name="estimated" unicode="&#x212e;" horiz-adv-x="777" 
d="M37 304c0 175 157 316 351 316c195 0 352 -141 352 -316v-9h-574v-140c0 -44 19 -83 52 -104c45 -30 103 -45 172 -45c98 0 190 39 248 105h29c-66 -77 -170 -123 -279 -123c-194 0 -351 141 -351 316zM567 552c-43 33 -103 50 -177 50c-70 0 -129 -16 -172 -46
c-34 -23 -52 -52 -52 -85v-158h445v152c0 36 -14 64 -44 87z" />
    <glyph glyph-name="dollar" unicode="$" horiz-adv-x="503" 
d="M473 177c0 -116 -77 -185 -202 -192v-62h-28v62c-131 3 -212 76 -213 196h74c5 -89 59 -125 139 -128v272c-89 36 -183 74 -183 194c0 103 69 165 183 171v72h28v-72c107 -4 190 -56 191 -178h-74c-4 74 -48 107 -117 110v-230c94 -38 202 -77 202 -215zM135 522
c0 -63 48 -92 108 -118v217c-67 -5 -108 -37 -108 -99zM271 314v-260c88 5 127 53 127 118c0 79 -59 112 -127 142z" />
    <glyph glyph-name="cent" unicode="&#xa2;" horiz-adv-x="461" 
d="M292 409v-356c44 0 82 12 139 41v-73c-33 -18 -79 -36 -138 -36h-1v-49h-28v50c-130 13 -219 112 -219 245c0 135 92 233 219 245v55h28v-54c58 0 105 -16 136 -32v-73c-55 27 -91 37 -135 37h-1zM120 232c0 -101 63 -165 144 -177v352c-83 -12 -144 -76 -144 -175z" />
    <glyph glyph-name="sterling" unicode="&#xa3;" horiz-adv-x="517" 
d="M153 72v-2h327v-70h-417v60c61 36 121 89 121 160c0 44 -23 82 -46 125h-98v30h82c-17 36 -31 75 -31 123c0 111 74 192 201 192c109 0 195 -58 195 -184h-73c-3 78 -48 116 -122 116c-78 0 -126 -48 -126 -125c0 -44 18 -84 37 -122h198v-30h-182c20 -39 39 -78 39 -122
c0 -78 -62 -125 -105 -151z" />
    <glyph glyph-name="florin" unicode="&#x192;" horiz-adv-x="392" 
d="M366 609h-40c-67 0 -101 -37 -101 -110v-37h141v-30h-141v-460c0 -108 -49 -172 -162 -172h-43v67h42c55 0 91 28 91 98v467h-114v30h114v31c0 125 64 182 170 182h43v-66z" />
    <glyph glyph-name="yen" unicode="&#xa5;" horiz-adv-x="535" 
d="M425 675h85l-156 -323h127v-30h-142l-27 -56h169v-30h-178v-236h-72v236h-178v30h169l-27 56h-142v30h128l-156 323h85l157 -355z" />
    <glyph glyph-name="Euro" unicode="&#x20ac;" horiz-adv-x="658" 
d="M431 622c-124 0 -210 -84 -230 -220h323l-15 -30h-312c-1 -11 -1 -23 -1 -35c0 -8 0 -16 1 -24h285l-15 -30h-268c15 -142 95 -229 229 -229c65 0 120 20 163 44v-78c-43 -20 -97 -34 -162 -34c-196 0 -289 130 -305 297h-119l15 30h102c-1 8 -1 17 -1 25c0 11 0 23 1 34
h-112l15 30h100c20 162 121 288 307 288c83 0 145 -24 196 -56l-32 -61c-42 25 -98 49 -165 49z" />
    <glyph glyph-name="currency" unicode="&#xa4;" 
d="M540 324c0 -62 -22 -116 -59 -157l56 -57l-20 -19l-57 57c-42 -35 -97 -56 -160 -56s-119 21 -161 56l-57 -57l-19 20l56 56c-37 41 -59 95 -59 157s22 116 59 157l-56 56l20 20l57 -57c42 35 97 56 160 56s118 -21 160 -56l57 57l20 -20l-56 -56c37 -41 59 -95 59 -157z
M300 160c99 0 168 68 168 164s-69 164 -168 164s-168 -68 -168 -164s69 -164 168 -164z" />
    <glyph glyph-name="fi" unicode="&#xfb01;" horiz-adv-x="510" 
d="M109 462v77c0 115 63 171 164 171h16v-68h-13c-55 0 -96 -25 -96 -102v-78h105v-62h-105v-400h-71v400h-85v62h85zM363 570v120h91v-120h-91zM445 0h-72v462h72v-462z" />
    <glyph glyph-name="fl" unicode="&#xfb02;" horiz-adv-x="514" 
d="M109 462v77c0 115 63 171 164 171h16v-68h-13c-55 0 -96 -25 -96 -102v-78h105v-62h-105v-400h-71v400h-85v62h85zM375 0v700h72v-700h-72z" />
    <glyph glyph-name="fraction" unicode="&#x2044;" horiz-adv-x="103" 
d="M-122 0h-48l395 675h48z" />
    <glyph glyph-name="onequarter" unicode="&#xbc;" horiz-adv-x="622" 
d="M130 289h-47v339h-43v47h90v-386zM46 0l395 675h48l-395 -675h-48zM547 119h48v-44h-48v-75h-48v75h-206v43l192 268h62v-267zM497 332l-151 -213h153v213h-2z" />
    <glyph glyph-name="onehalf" unicode="&#xbd;" horiz-adv-x="647" 
d="M40 675h90v-386h-47v339h-43v47zM94 0h-48l395 675h48zM483 395c83 0 122 -47 122 -110c0 -49 -28 -87 -66 -124l-116 -115h183v-46h-252v42l146 146c29 29 55 61 55 97c0 34 -24 63 -72 63c-45 0 -74 -22 -79 -71h-48c3 77 53 118 127 118z" />
    <glyph glyph-name="threequarters" unicode="&#xbe;" horiz-adv-x="760" 
d="M308 396c0 -65 -39 -116 -139 -116c-81 0 -132 40 -136 113h49c5 -44 37 -66 87 -66c55 0 90 21 90 72c0 56 -46 71 -115 71v45c63 1 102 19 102 64c0 39 -26 58 -74 58c-46 0 -81 -19 -83 -66h-48c4 74 50 113 132 113c79 0 122 -38 122 -99c0 -46 -28 -77 -75 -88v-1
c52 -7 88 -37 88 -100zM184 0l395 675h48l-395 -675h-48zM685 119h48v-44h-48v-75h-48v75h-206v43l192 268h62v-267zM635 332l-151 -213h153v213h-2z" />
    <glyph glyph-name="uni2153" unicode="&#x2153;" horiz-adv-x="667" 
d="M40 675h90v-386h-47v339h-43v47zM94 0h-48l395 675h48zM492 395c79 0 122 -38 122 -99c0 -46 -28 -77 -75 -88v-1c52 -7 88 -37 88 -100c0 -65 -39 -116 -139 -116c-81 0 -132 40 -136 113h49c5 -44 37 -66 87 -66c55 0 90 21 90 72c0 56 -46 71 -115 71v45
c63 1 102 19 102 64c0 39 -26 58 -74 58c-46 0 -81 -19 -83 -66h-48c4 74 50 113 132 113z" />
    <glyph glyph-name="uni2154" unicode="&#x2154;" horiz-adv-x="819" 
d="M170 684c83 0 122 -47 122 -110c0 -49 -28 -87 -66 -124l-116 -115h183v-46h-252v42l146 146c29 29 55 61 55 97c0 34 -24 63 -72 63c-45 0 -74 -22 -79 -71h-48c3 77 53 118 127 118zM246 0h-48l395 675h48zM644 395c79 0 122 -38 122 -99c0 -46 -28 -77 -75 -88v-1
c52 -7 88 -37 88 -100c0 -65 -39 -116 -139 -116c-81 0 -132 40 -136 113h49c5 -44 37 -66 87 -66c55 0 90 21 90 72c0 56 -46 71 -115 71v45c63 1 102 19 102 64c0 39 -26 58 -74 58c-46 0 -81 -19 -83 -66h-48c4 74 50 113 132 113z" />
    <glyph glyph-name="oneeighth" unicode="&#x215b;" horiz-adv-x="669" 
d="M40 675h90v-386h-47v339h-43v47zM94 0h-48l395 675h48zM491 -9c-89 0 -135 50 -135 113c0 59 33 89 75 100v2c-34 10 -63 37 -63 88c0 58 44 101 123 101s124 -43 124 -101c0 -51 -30 -78 -64 -88v-2c42 -11 75 -41 75 -100c0 -63 -45 -113 -135 -113zM491 227
c45 0 74 25 74 62s-30 59 -74 59s-74 -22 -74 -59s29 -62 74 -62zM491 38c56 0 87 26 87 72c0 45 -33 72 -87 72c-53 0 -86 -27 -86 -72c0 -46 31 -72 86 -72z" />
    <glyph glyph-name="threeeighths" unicode="&#x215c;" horiz-adv-x="807" 
d="M173 684c79 0 122 -38 122 -99c0 -46 -28 -77 -75 -88v-1c52 -7 88 -37 88 -100c0 -65 -39 -116 -139 -116c-81 0 -132 40 -136 113h49c5 -44 37 -66 87 -66c55 0 90 21 90 72c0 56 -46 71 -115 71v45c63 1 102 19 102 64c0 39 -26 58 -74 58c-46 0 -81 -19 -83 -66h-48
c4 74 50 113 132 113zM232 0h-48l395 675h48zM629 -9c-89 0 -135 50 -135 113c0 59 33 89 75 100v2c-34 10 -63 37 -63 88c0 58 44 101 123 101s124 -43 124 -101c0 -51 -30 -78 -64 -88v-2c42 -11 75 -41 75 -100c0 -63 -45 -113 -135 -113zM629 227c45 0 74 25 74 62
s-30 59 -74 59s-74 -22 -74 -59s29 -62 74 -62zM629 38c56 0 87 26 87 72c0 45 -33 72 -87 72c-53 0 -86 -27 -86 -72c0 -46 31 -72 86 -72z" />
    <glyph glyph-name="fiveeighths" unicode="&#x215d;" horiz-adv-x="794" 
d="M180 543c60 0 122 -41 122 -130c0 -85 -56 -133 -137 -133c-61 0 -109 25 -135 78l39 27c20 -36 48 -58 97 -58c56 0 87 34 87 86c0 56 -37 85 -82 85c-38 0 -63 -14 -80 -37h-43l26 214h199v-46h-163l-15 -119h3c15 18 45 33 82 33zM219 0h-48l395 675h48zM616 -9
c-89 0 -135 50 -135 113c0 59 33 89 75 100v2c-34 10 -63 37 -63 88c0 58 44 101 123 101s124 -43 124 -101c0 -51 -30 -78 -64 -88v-2c42 -11 75 -41 75 -100c0 -63 -45 -113 -135 -113zM616 227c45 0 74 25 74 62s-30 59 -74 59s-74 -22 -74 -59s29 -62 74 -62zM616 38
c56 0 87 26 87 72c0 45 -33 72 -87 72c-53 0 -86 -27 -86 -72c0 -46 31 -72 86 -72z" />
    <glyph glyph-name="seveneighths" unicode="&#x215e;" horiz-adv-x="714" 
d="M20 675h247v-45l-172 -341h-51l172 339h-196v47zM139 0h-48l395 675h48zM536 -9c-89 0 -135 50 -135 113c0 59 33 89 75 100v2c-34 10 -63 37 -63 88c0 58 44 101 123 101s124 -43 124 -101c0 -51 -30 -78 -64 -88v-2c42 -11 75 -41 75 -100c0 -63 -45 -113 -135 -113z
M536 227c45 0 74 25 74 62s-30 59 -74 59s-74 -22 -74 -59s29 -62 74 -62zM536 38c56 0 87 26 87 72c0 45 -33 72 -87 72c-53 0 -86 -27 -86 -72c0 -46 31 -72 86 -72z" />
    <glyph glyph-name="percent" unicode="%" horiz-adv-x="751" 
d="M208 690c93 0 158 -66 158 -158s-65 -158 -158 -158s-158 66 -158 158s65 158 158 158zM195 0h-48l395 675h48zM208 643c-66 0 -108 -45 -108 -111s42 -111 108 -111s108 45 108 111s-42 111 -108 111zM543 311c93 0 158 -66 158 -158s-65 -158 -158 -158
s-158 66 -158 158s65 158 158 158zM543 264c-66 0 -108 -45 -108 -111s42 -111 108 -111s108 45 108 111s-42 111 -108 111z" />
    <glyph glyph-name="perthousand" unicode="&#x2030;" horiz-adv-x="1109" 
d="M208 690c93 0 158 -66 158 -158s-65 -158 -158 -158s-158 66 -158 158s65 158 158 158zM195 0h-48l395 675h48zM208 643c-66 0 -108 -45 -108 -111s42 -111 108 -111s108 45 108 111s-42 111 -108 111zM543 311c93 0 158 -66 158 -158s-65 -158 -158 -158
s-158 66 -158 158s65 158 158 158zM901 311c93 0 158 -66 158 -158s-65 -158 -158 -158s-158 66 -158 158s65 158 158 158zM543 264c-66 0 -108 -45 -108 -111s42 -111 108 -111s108 45 108 111s-42 111 -108 111zM901 264c-67 0 -108 -45 -108 -111s41 -111 108 -111
c66 0 108 45 108 111s-42 111 -108 111z" />
    <glyph glyph-name="uni03BC" unicode="&#x3bc;" horiz-adv-x="526" 
d="M390 253v209h72v-462h-72v86h-2c-23 -53 -70 -101 -157 -101c-40 0 -78 10 -107 33v-218h-65v662h73v-275c0 -93 49 -132 117 -132c78 0 141 50 141 198z" />
    <glyph glyph-name="numbersign" unicode="#" horiz-adv-x="631" 
d="M581 498v-42h-126l-35 -190h124v-42h-131l-41 -224h-46l41 224h-149l-41 -224h-46l41 224h-122v42h129l35 190h-127v42h134l37 202h46l-37 -202h149l37 202h46l-37 -202h119zM225 266h149l35 190h-149z" />
    <glyph glyph-name="uni2116" unicode="&#x2116;" horiz-adv-x="1130" 
d="M542 700h77v-700h-82l-384 569h-2v-569h-77v700h82l384 -569h2v569zM882 552c123 0 208 -85 208 -208s-85 -207 -208 -207s-207 84 -207 207s84 208 207 208zM883 488c-83 0 -142 -60 -142 -144s59 -145 142 -145s142 61 142 145s-59 144 -142 144zM693 62h379v-62h-379
v62z" />
    <glyph glyph-name="uni0394" unicode="&#x394;" horiz-adv-x="628" 
d="M279 700h70l259 -700h-588zM517 34l-203 574l-203 -574h406z" />
    <glyph glyph-name="uni03A9" unicode="&#x3a9;" horiz-adv-x="772" 
d="M386 715c214 0 349 -140 349 -334c0 -165 -105 -274 -241 -309v-3h222v-69h-290v107c146 28 236 132 236 271c0 157 -103 268 -276 268s-276 -111 -276 -268c0 -139 90 -243 236 -271v-107h-291v69h223v3c-136 35 -241 144 -241 309c0 194 134 334 349 334z" />
    <glyph glyph-name="pi" unicode="&#x3c0;" horiz-adv-x="603" 
d="M168 477h405v-69h-110v-408h-68v408h-158l-97 -408h-69l96 408c-53 0 -96 -7 -137 -20v69c32 11 70 20 138 20z" />
    <glyph glyph-name="plus" unicode="+" 
d="M279 541h42v-224h223v-38h-223v-224h-42v224h-223v38h223v224z" />
    <glyph glyph-name="minus" unicode="&#x2212;" 
d="M61 318h478v-40h-478v40z" />
    <glyph glyph-name="plusminus" unicode="&#xb1;" 
d="M279 522h42v-141h218v-40h-218v-141h-42v141h-218v40h218v141zM61 155h478v-40h-478v40z" />
    <glyph glyph-name="multiply" unicode="&#xd7;" 
d="M300 327l184 184l29 -29l-184 -184l184 -184l-29 -29l-184 184l-184 -184l-29 29l184 184l-184 184l29 29z" />
    <glyph glyph-name="divide" unicode="&#xf7;" 
d="M265 490h70v-78h-70v78zM41 318h518v-39h-518v39zM265 185h70v-79h-70v79z" />
    <glyph glyph-name="equal" unicode="=" 
d="M47 408h506v-39h-506v39zM47 229h506v-39h-506v39z" />
    <glyph glyph-name="less" unicode="&#x3c;" 
d="M79 320l442 195v-46l-392 -170l392 -170v-45l-442 195v41z" />
    <glyph glyph-name="greater" unicode="&#x3e;" 
d="M79 469v46l442 -195v-41l-442 -195v45l392 170z" />
    <glyph glyph-name="degree" unicode="&#xb0;" horiz-adv-x="352" 
d="M176 690c78 0 136 -55 136 -136s-58 -136 -136 -136s-136 55 -136 136s58 136 136 136zM176 651c-55 0 -96 -39 -96 -97s41 -97 96 -97c54 0 95 39 95 97s-41 97 -95 97z" />
    <glyph glyph-name="approxequal" unicode="&#x2248;" 
d="M170 446c75 0 196 -74 259 -74c34 0 61 20 76 65h39c-19 -75 -64 -107 -114 -107c-77 0 -196 74 -259 74c-34 0 -61 -21 -76 -66h-39c19 77 66 108 114 108zM170 292c75 0 196 -74 259 -74c34 0 61 21 76 66h39c-19 -75 -64 -107 -114 -107c-77 0 -196 73 -259 73
c-34 0 -61 -21 -76 -66h-39c19 77 66 108 114 108z" />
    <glyph glyph-name="greaterequal" unicode="&#x2265;" 
d="M82 447v42l442 -125v-41l-442 -125v42l382 103zM75 118v39h450v-39h-450z" />
    <glyph glyph-name="infinity" unicode="&#x221e;" horiz-adv-x="760" 
d="M580 450c95 0 160 -59 160 -153s-65 -153 -160 -153c-88 0 -146 61 -200 124c-54 -63 -111 -124 -200 -124c-95 0 -160 59 -160 153s65 153 160 153c89 0 146 -61 200 -124c54 63 112 124 200 124zM180 413c-71 0 -121 -46 -121 -116s50 -116 121 -116
c74 0 125 55 176 116c-51 61 -102 116 -176 116zM580 413c-73 0 -124 -55 -175 -116c51 -61 102 -116 175 -116c71 0 121 46 121 116s-50 116 -121 116z" />
    <glyph glyph-name="lessequal" unicode="&#x2264;" 
d="M76 364l442 125v-42l-382 -104l382 -103v-42l-442 125v41zM75 157h450v-39h-450v39z" />
    <glyph glyph-name="logicalnot" unicode="&#xac;" 
d="M71 392v40h458v-265h-42v225h-416z" />
    <glyph glyph-name="notequal" unicode="&#x2260;" 
d="M553 408v-39h-191l-83 -140h274v-39h-297l-61 -103h-39l61 103h-170v39h193l82 140h-275v39h298l60 102h40l-60 -102h168z" />
    <glyph glyph-name="integral" unicode="&#x222b;" horiz-adv-x="380" 
d="M340 715v-66c-75 0 -116 -39 -116 -127v-552c0 -120 -65 -185 -184 -185v66c71 1 114 34 114 127v552c0 120 65 185 186 185z" />
    <glyph glyph-name="partialdiff" unicode="&#x2202;" horiz-adv-x="567" 
d="M233 715c170 0 294 -118 294 -370c0 -191 -73 -360 -258 -360c-143 0 -229 97 -229 230c0 148 101 236 233 236c81 0 143 -33 185 -86c-7 176 -89 280 -226 280c-55 0 -108 -19 -141 -38l-30 65c42 22 104 43 172 43zM273 53c126 0 169 120 181 226
c-28 48 -90 103 -178 103c-98 0 -163 -68 -163 -168c0 -96 65 -161 160 -161z" />
    <glyph glyph-name="product" unicode="&#x220f;" horiz-adv-x="710" 
d="M20 700h670v-67h-132v-711h-69v711h-267v-711h-69v711h-133v67z" />
    <glyph glyph-name="radical" unicode="&#x221a;" horiz-adv-x="589" 
d="M298 94l202 621h69l-234 -715h-67l-159 397h-89v65h134z" />
    <glyph glyph-name="summation" unicode="&#x2211;" horiz-adv-x="551" 
d="M40 700h471v-68h-384l283 -337l-283 -337h384v-68h-471v70l281 335l-281 335v70z" />
    <glyph glyph-name="lozenge" unicode="&#x25ca;" horiz-adv-x="584" 
d="M254 715h76l234 -365l-234 -365h-76l-234 365zM485 350l-193 301l-193 -301l193 -301z" />
    <glyph glyph-name="zero.tf" 
d="M300 690c147 0 238 -127 238 -352s-91 -353 -238 -353s-238 128 -238 353s91 352 238 352zM300 622c-99 0 -163 -109 -163 -284s64 -285 163 -285s163 110 163 285s-64 284 -163 284z" />
    <glyph glyph-name="one.tf" 
d="M344 675v-604h165v-71h-418v71h181v533h-118v71h190z" />
    <glyph glyph-name="two.tf" 
d="M505 0h-418v56l251 274c58 64 91 113 91 170c0 71 -49 122 -130 122c-75 0 -135 -44 -138 -130h-72c3 123 85 198 213 198c127 0 202 -73 202 -187c0 -74 -36 -136 -105 -211l-208 -223h314v-69z" />
    <glyph glyph-name="three.tf" 
d="M289 690c124 0 200 -68 200 -171c0 -78 -43 -139 -127 -156v-2c97 -8 155 -71 155 -176c0 -120 -75 -200 -220 -200c-133 0 -218 66 -224 188h72c6 -73 56 -120 152 -120c92 0 145 45 145 138c0 94 -53 134 -186 133h-36v65h36c100 0 158 38 158 119
c0 72 -46 114 -125 114c-76 0 -131 -37 -134 -111h-72c5 111 84 179 206 179z" />
    <glyph glyph-name="four.tf" 
d="M467 197h83v-69h-83v-128h-71v128h-347v61l340 486h78v-478zM393 573l-263 -376h266v376h-3z" />
    <glyph glyph-name="five.tf" 
d="M316 442c123 0 212 -80 212 -223s-85 -234 -234 -234c-113 0 -194 52 -231 144l61 35c34 -72 84 -111 170 -111c109 0 159 69 159 165c0 104 -63 160 -152 160c-63 0 -111 -28 -141 -71h-64l41 368h337v-69h-279l-27 -219h3c32 31 83 55 145 55z" />
    <glyph glyph-name="six.tf" 
d="M300 -15c-133 0 -235 87 -235 238c0 97 32 177 115 276l150 182h90l-246 -294l3 -2c44 42 87 60 143 60c128 0 215 -93 215 -228c0 -137 -97 -232 -235 -232zM300 53c95 0 160 65 160 163c0 97 -63 162 -158 162c-97 0 -162 -66 -162 -163c0 -96 63 -162 160 -162z" />
    <glyph glyph-name="seven.tf" 
d="M93 675h413v-63l-283 -612h-76l282 605h-336v70z" />
    <glyph glyph-name="eight.tf" 
d="M300 -15c-143 0 -227 81 -227 199c0 87 50 155 128 177v2c-60 19 -109 74 -109 152c0 105 80 175 208 175s208 -70 208 -175c0 -78 -49 -133 -109 -152v-2c78 -22 128 -90 128 -177c0 -118 -84 -199 -227 -199zM300 393c81 0 132 47 132 117s-51 115 -132 115
s-132 -45 -132 -115s51 -117 132 -117zM300 50c95 0 151 51 151 138c0 82 -54 139 -151 139s-151 -57 -151 -139c0 -87 56 -138 151 -138z" />
    <glyph glyph-name="nine.tf" 
d="M275 0h-87l240 293l-3 2c-39 -39 -90 -58 -143 -58c-126 0 -215 97 -215 224c0 138 96 229 233 229c136 0 232 -87 232 -244c0 -90 -32 -168 -111 -266zM299 304c95 0 160 65 160 158c0 95 -64 160 -160 160c-92 0 -157 -63 -157 -159c0 -94 64 -159 157 -159z" />
    <glyph glyph-name="zero.tf.zero" 
d="M493 685l-34 -67c51 -60 79 -155 79 -280c0 -225 -91 -353 -238 -353c-53 0 -98 16 -135 48l-32 -64l-26 11l37 74c-52 59 -82 156 -82 284c0 225 91 352 238 352c54 0 101 -17 138 -51l29 57zM137 338c0 -88 16 -160 45 -209l221 440c-27 34 -62 53 -103 53
c-99 0 -163 -109 -163 -284zM300 53c99 0 163 110 163 285c0 85 -15 155 -42 204l-221 -439c27 -33 61 -50 100 -50z" />
    <glyph glyph-name="dollar.tf" 
d="M521 177c0 -116 -76 -185 -201 -192v-62h-28v62c-131 3 -212 76 -213 196h74c5 -90 59 -125 139 -128v272c-89 36 -184 73 -184 194c0 103 70 165 184 171v72h28v-72c106 -4 190 -56 191 -178h-74c-4 74 -47 107 -117 110v-230c94 -38 201 -78 201 -215zM183 522
c0 -63 49 -93 109 -119v218c-66 -4 -109 -37 -109 -99zM320 313v-259c88 6 126 53 126 118c0 78 -58 112 -126 141z" />
    <glyph glyph-name="cent.tf" 
d="M353 409v-356c43 0 83 12 140 41v-73c-34 -18 -79 -36 -138 -36h-2v-49h-28v50c-130 14 -219 112 -219 245c0 135 92 233 219 245v55h28v-54c58 0 105 -16 137 -32v-73c-55 27 -92 37 -136 37h-1zM181 232c0 -101 63 -165 144 -177v352c-83 -12 -144 -76 -144 -175z" />
    <glyph glyph-name="sterling.tf" 
d="M189 72v-2h327v-70h-417v60c61 36 121 89 121 160c0 44 -23 82 -46 125h-98v30h82c-17 36 -31 75 -31 123c0 111 74 192 201 192c109 0 195 -58 195 -184h-73c-3 78 -47 116 -121 116c-79 0 -127 -48 -127 -125c0 -44 18 -84 37 -122h198v-30h-182c20 -39 39 -78 39 -122
c0 -78 -62 -125 -105 -151z" />
    <glyph glyph-name="florin.tf" 
d="M473 609h-41c-67 0 -101 -37 -101 -110v-37h142v-30h-142v-460c0 -108 -48 -172 -162 -172h-42v67h41c55 0 92 28 92 98v467h-114v30h114v31c0 125 64 182 170 182h43v-66z" />
    <glyph glyph-name="yen.tf" 
d="M460 675h82l-156 -323h128v-30h-142l-27 -56h169v-30h-179v-236h-71v236h-179v30h170l-27 56h-143v30h129l-156 323h82l160 -356z" />
    <glyph glyph-name="Euro.tf" 
d="M402 619c-125 0 -206 -82 -225 -217h310l-15 -30h-298c-1 -11 -1 -23 -1 -35c0 -8 0 -16 1 -24h275l-15 -30h-258c16 -141 98 -226 229 -226c58 0 109 20 147 43v-81c-38 -19 -88 -33 -146 -33c-192 0 -288 130 -305 297h-90l15 30h73c-1 8 -1 17 -1 25c0 11 0 23 1 34
h-83l15 30h71c19 162 115 288 302 288c78 0 137 -24 185 -55l-32 -65c-39 26 -91 49 -155 49z" />
    <glyph glyph-name="perthousand.tf" 
d="M148 380c-72 0 -128 61 -128 155s56 155 128 155c71 0 128 -61 128 -155s-57 -155 -128 -155zM148 644c-43 0 -80 -37 -80 -109s37 -109 80 -109s80 37 80 109s-37 109 -80 109zM24 272l500 232l12 -25l-500 -232zM455 295c72 0 128 -61 128 -155s-56 -155 -128 -155
c-43 0 -81 22 -104 61c-23 -39 -61 -61 -104 -61c-71 0 -128 61 -128 155s57 155 128 155c43 0 81 -22 104 -61c23 39 61 61 104 61zM247 31c43 0 80 37 80 109s-37 109 -80 109s-80 -37 -80 -109s37 -109 80 -109zM455 31c43 0 80 37 80 109s-37 109 -80 109
s-80 -37 -80 -109s37 -109 80 -109z" />
    <glyph glyph-name="uni0308" unicode="&#x308;" horiz-adv-x="0" 
d="M-316 690h80v-116h-80v116zM-130 690h80v-116h-80v116z" />
    <glyph glyph-name="uni0307" unicode="&#x307;" horiz-adv-x="0" 
d="M-141 690h91v-120h-91v120z" />
    <glyph glyph-name="gravecomb" unicode="&#x300;" horiz-adv-x="0" 
d="M-242 707h98l94 -154h-59z" />
    <glyph glyph-name="acutecomb" unicode="&#x301;" horiz-adv-x="0" 
d="M-147 707h97l-132 -154h-60z" />
    <glyph glyph-name="uni030B" unicode="&#x30b;" horiz-adv-x="0" 
d="M-231 707h70l-119 -154h-55zM-120 707h70l-119 -154h-55z" />
    <glyph glyph-name="uni0302" unicode="&#x302;" horiz-adv-x="0" 
d="M-250 707h76l124 -154h-75l-87 108l-87 -108h-75z" />
    <glyph glyph-name="uni030C" unicode="&#x30c;" horiz-adv-x="0" 
d="M-126 700h76l-128 -154h-77l-128 154h75l91 -108z" />
    <glyph glyph-name="uni0306" unicode="&#x306;" horiz-adv-x="0" 
d="M-104 700h54c0 -89 -57 -140 -136 -140s-136 51 -136 140h54c2 -54 33 -87 82 -87s80 33 82 87z" />
    <glyph glyph-name="uni030A" unicode="&#x30a;" horiz-adv-x="0" 
d="M-169 747c69 0 119 -49 119 -117s-50 -117 -119 -117s-119 49 -119 117s50 117 119 117zM-169 708c-47 0 -78 -32 -78 -78s31 -78 78 -78s78 32 78 78s-31 78 -78 78z" />
    <glyph glyph-name="tildecomb" unicode="&#x303;" horiz-adv-x="0" 
d="M-293 698c55 0 115 -56 156 -56c23 0 40 17 53 47l34 -11c-12 -48 -40 -96 -94 -96c-55 0 -115 55 -156 55c-23 0 -40 -16 -53 -46l-35 10c12 48 41 97 95 97z" />
    <glyph glyph-name="uni0304" unicode="&#x304;" horiz-adv-x="0" 
d="M-332 657h282v-56h-282v56z" />
    <glyph glyph-name="uni0312" unicode="&#x312;" horiz-adv-x="0" 
d="M-81 699h31l-39 -77h34v-82h-88v82z" />
    <glyph glyph-name="uni0326" unicode="&#x326;" horiz-adv-x="0" 
d="M-138 -129v82h88v-82l-62 -77h-31l39 77h-34z" />
    <glyph glyph-name="uni0327" unicode="&#x327;" horiz-adv-x="0" 
d="M-130 19h32l-22 -60c33 -9 70 -24 70 -70c0 -48 -57 -72 -124 -101l-11 24c52 25 84 43 84 65c0 25 -22 33 -66 43z" />
    <glyph glyph-name="uni0328" unicode="&#x328;" horiz-adv-x="0" 
d="M-100 31l46 -20c-67 -49 -90 -88 -90 -117c0 -21 19 -29 40 -29c12 0 30 3 44 7l8 -49c-21 -7 -48 -10 -65 -10c-46 0 -86 22 -86 71c0 44 31 90 103 147z" />
    <glyph glyph-name="uni2003" unicode="&#x2003;" horiz-adv-x="1000" 
 />
    <glyph glyph-name="uni2002" unicode="&#x2002;" horiz-adv-x="500" 
 />
    <glyph glyph-name="uni2005" unicode="&#x2005;" horiz-adv-x="250" 
 />
    <glyph glyph-name="uni200A" unicode="&#x200a;" horiz-adv-x="42" 
 />
    <glyph glyph-name="uni00A0" unicode="&#xa0;" horiz-adv-x="298" 
 />
    <glyph glyph-name="uni2009" unicode="&#x2009;" horiz-adv-x="125" 
 />
    <glyph glyph-name="uni2004" unicode="&#x2004;" horiz-adv-x="333" 
 />
    <glyph glyph-name="uni1EA0" unicode="&#x1ea0;" horiz-adv-x="659" 
d="M366 700l285 -700h-83l-74 187h-329l-74 -187h-84l286 700h73zM330 602l-137 -344h273zM375 -200h-91v120h91v-120z" />
    <glyph glyph-name="uni1EB8" unicode="&#x1eb8;" horiz-adv-x="518" 
d="M151 354v-281h320v-73h-397v700h392v-73h-315v-201h290v-72h-290zM319 -200h-91v120h91v-120z" />
    <glyph glyph-name="uni1EBC" unicode="&#x1ebc;" horiz-adv-x="518" 
d="M211 800c-22 0 -41 -15 -54 -47l-33 11c13 44 40 94 96 94c54 0 121 -52 162 -52c22 0 41 15 54 46l33 -10c-13 -44 -40 -95 -96 -95c-55 0 -120 53 -162 53zM151 354v-281h320v-73h-397v700h392v-73h-315v-201h290v-72h-290z" />
    <glyph glyph-name="Gcaron" unicode="&#x1e6;" horiz-adv-x="790" 
d="M561 863l-123 -120h-76l-122 120h77l83 -81l84 81h77zM434 301v73h326v-32c0 -173 -111 -357 -353 -357c-214 0 -370 145 -370 363c0 215 151 367 370 367c118 0 202 -41 268 -93l-53 -65c-52 43 -122 80 -218 80c-167 0 -283 -123 -283 -288s115 -286 288 -286
c183 0 263 136 269 238h-244z" />
    <glyph glyph-name="uni1ECA" unicode="&#x1eca;" horiz-adv-x="227" 
d="M74 700h78v-700h-78v700zM68 -80h91v-120h-91v120z" />
    <glyph glyph-name="uni019D" unicode="&#x19d;" horiz-adv-x="694" 
d="M542 131v569h77v-700h-82l-384 569h-2v-634c0 -87 -43 -135 -122 -135h-40v73h28c39 0 57 20 57 64v763h82l384 -569h2z" />
    <glyph glyph-name="uni1ECC" unicode="&#x1ecc;" horiz-adv-x="804" 
d="M402 715c208 0 365 -150 365 -365s-157 -365 -365 -365s-365 150 -365 365s157 365 365 365zM402 637c-164 0 -281 -120 -281 -287s117 -287 281 -287c165 0 281 120 281 287s-116 287 -281 287zM356 -80h91v-120h-91v120z" />
    <glyph glyph-name="uni01EA" unicode="&#x1ea;" horiz-adv-x="804" 
d="M767 350c0 -162 -89 -287 -222 -339h1c-67 -49 -90 -88 -90 -117c0 -21 19 -29 40 -29c12 0 30 3 44 7l8 -49c-21 -7 -48 -10 -65 -10c-46 0 -86 22 -86 71c0 32 17 66 54 104c-16 -2 -32 -3 -49 -3c-208 0 -365 150 -365 365s157 365 365 365s365 -150 365 -365zM402 63
c165 0 281 120 281 287s-116 287 -281 287c-164 0 -281 -120 -281 -287s117 -287 281 -287z" />
    <glyph glyph-name="uni1E9E" unicode="&#x1e9e;" horiz-adv-x="683" 
d="M419 387h3c138 0 219 -70 219 -190c0 -123 -84 -197 -223 -197h-128v73h119c97 0 148 44 148 129c0 77 -54 117 -159 117h-68v68l164 199c-41 38 -89 52 -166 52c-114 0 -177 -67 -177 -195v-443h-77v441c0 171 94 274 257 274c114 0 204 -42 266 -117z" />
    <glyph glyph-name="uni018F" unicode="&#x18f;" horiz-adv-x="790" 
d="M377 715c225 0 376 -138 376 -367c0 -216 -135 -363 -357 -363c-223 0 -359 146 -359 362v36h632c-14 154 -119 255 -292 255c-105 0 -193 -39 -248 -93l-45 66c68 59 168 104 293 104zM396 62c164 0 260 98 273 247h-547c13 -151 109 -247 274 -247z" />
    <glyph glyph-name="uni1EE4" unicode="&#x1ee4;" horiz-adv-x="689" 
d="M539 700h81v-437c0 -167 -102 -278 -276 -278c-173 0 -276 111 -276 278v437h82v-431c0 -129 79 -204 194 -204c116 0 195 75 195 204v431zM299 -80h91v-120h-91v120z" />
    <glyph glyph-name="uni0232" unicode="&#x232;" horiz-adv-x="534" 
d="M126 829h282v-56h-282v56zM440 700h90l-224 -426v-274h-78v274l-224 426h90l172 -343h2z" />
    <glyph glyph-name="uni1EF8" unicode="&#x1ef8;" horiz-adv-x="534" 
d="M190 800c-22 0 -41 -15 -54 -47l-33 11c13 44 40 94 96 94c54 0 121 -52 162 -52c22 0 41 15 54 46l33 -10c-13 -44 -40 -95 -96 -95c-55 0 -120 53 -162 53zM440 700h90l-224 -426v-274h-78v274l-224 426h90l172 -343h2z" />
    <glyph glyph-name="Adieresis.ss01" horiz-adv-x="659" 
d="M226 742c-32 0 -56 24 -56 56s24 56 56 56s56 -24 56 -56s-24 -56 -56 -56zM432 742c-32 0 -56 24 -56 56s24 56 56 56s56 -24 56 -56s-24 -56 -56 -56zM651 0h-83l-74 187h-329l-74 -187h-84l286 700h73zM330 602l-137 -344h273z" />
    <glyph glyph-name="uni1EA0.ss01" horiz-adv-x="659" 
d="M366 700l285 -700h-83l-74 187h-329l-74 -187h-84l286 700h73zM330 602l-137 -344h273zM329 -88c33 0 59 -25 59 -59c0 -33 -26 -59 -59 -59s-59 26 -59 59c0 34 26 59 59 59z" />
    <glyph glyph-name="Cdotaccent.ss01" horiz-adv-x="685" 
d="M408 854c32 0 56 -24 56 -56s-24 -56 -56 -56s-56 24 -56 56s24 56 56 56zM411 -15c-224 0 -374 148 -374 365s150 365 374 365c103 0 178 -30 244 -79l-47 -67c-49 37 -112 68 -199 68c-169 0 -288 -116 -288 -287s119 -287 288 -287c87 0 150 31 199 68l47 -67
c-66 -49 -141 -79 -244 -79z" />
    <glyph glyph-name="Edieresis.ss01" horiz-adv-x="518" 
d="M186 742c-32 0 -56 24 -56 56s24 56 56 56s56 -24 56 -56s-24 -56 -56 -56zM392 742c-32 0 -56 24 -56 56s24 56 56 56s56 -24 56 -56s-24 -56 -56 -56zM151 354v-281h320v-73h-397v700h392v-73h-315v-201h290v-72h-290z" />
    <glyph glyph-name="Edotaccent.ss01" horiz-adv-x="518" 
d="M289 742c-32 0 -56 24 -56 56s24 56 56 56s56 -24 56 -56s-24 -56 -56 -56zM151 354v-281h320v-73h-397v700h392v-73h-315v-201h290v-72h-290z" />
    <glyph glyph-name="uni1EB8.ss01" horiz-adv-x="518" 
d="M151 354v-281h320v-73h-397v700h392v-73h-315v-201h290v-72h-290zM274 -88c33 0 59 -25 59 -59c0 -33 -26 -59 -59 -59s-59 26 -59 59c0 34 26 59 59 59z" />
    <glyph glyph-name="uni0122.ss01" horiz-adv-x="790" 
d="M434 301v73h326v-32c0 -173 -111 -357 -353 -357c-214 0 -370 145 -370 363c0 215 151 367 370 367c118 0 202 -41 268 -93l-53 -65c-52 43 -122 80 -218 80c-167 0 -283 -123 -283 -288s115 -286 288 -286c183 0 263 136 269 238h-244zM409 -41c31 0 55 -22 55 -53
c0 -15 -5 -32 -19 -48l-54 -64h-31l34 62c-23 4 -38 27 -38 50c0 30 23 53 53 53z" />
    <glyph glyph-name="Gdotaccent.ss01" horiz-adv-x="790" 
d="M400 742c-32 0 -56 24 -56 56s24 56 56 56s56 -24 56 -56s-24 -56 -56 -56zM434 301v73h326v-32c0 -173 -111 -357 -353 -357c-214 0 -370 145 -370 363c0 215 151 367 370 367c118 0 202 -41 268 -93l-53 -65c-52 43 -122 80 -218 80c-167 0 -283 -123 -283 -288
s115 -286 288 -286c183 0 263 136 269 238h-244z" />
    <glyph glyph-name="Idieresis.ss01" horiz-adv-x="227" 
d="M10 854c32 0 56 -24 56 -56s-24 -56 -56 -56s-56 24 -56 56s24 56 56 56zM216 854c32 0 56 -24 56 -56s-24 -56 -56 -56s-56 24 -56 56s24 56 56 56zM74 700h78v-700h-78v700z" />
    <glyph glyph-name="Idotaccent.ss01" horiz-adv-x="227" 
d="M113 854c32 0 56 -24 56 -56s-24 -56 -56 -56s-56 24 -56 56s24 56 56 56zM74 700h78v-700h-78v700z" />
    <glyph glyph-name="uni1ECA.ss01" horiz-adv-x="227" 
d="M74 700h78v-700h-78v700zM113 -88c33 0 59 -25 59 -59c0 -33 -26 -59 -59 -59s-59 26 -59 59c0 34 26 59 59 59z" />
    <glyph glyph-name="uni0136.ss01" horiz-adv-x="612" 
d="M560 700l-320 -324l365 -376h-115l-339 357v-357h-77v700h77v-315l300 315h109zM306 -41c31 0 55 -22 55 -53c0 -15 -5 -32 -19 -48l-54 -64h-31l34 62c-23 4 -38 27 -38 50c0 30 23 53 53 53z" />
    <glyph glyph-name="uni013B.ss01" horiz-adv-x="485" 
d="M74 700h77v-626h325v-74h-402v700zM341 -94c0 -15 -5 -32 -19 -48l-54 -64h-31l34 62c-23 4 -38 27 -38 50c0 30 23 53 53 53c31 0 55 -22 55 -53z" />
    <glyph glyph-name="Ldot.ss01" horiz-adv-x="485" 
d="M74 700h77v-626h325v-74h-402v700zM353 481c37 0 63 -26 63 -63c0 -36 -26 -63 -63 -63c-36 0 -63 27 -63 63c0 37 27 63 63 63z" />
    <glyph glyph-name="uni0145.ss01" horiz-adv-x="694" 
d="M542 700h77v-700h-82l-384 569h-2v-569h-77v700h82l384 -569h2v569zM401 -94c0 -15 -5 -32 -19 -48l-54 -64h-31l34 62c-23 4 -38 27 -38 50c0 30 23 53 53 53c31 0 55 -22 55 -53z" />
    <glyph glyph-name="Odieresis.ss01" horiz-adv-x="804" 
d="M299 854c32 0 56 -24 56 -56s-24 -56 -56 -56s-56 24 -56 56s24 56 56 56zM505 854c32 0 56 -24 56 -56s-24 -56 -56 -56s-56 24 -56 56s24 56 56 56zM402 715c208 0 365 -150 365 -365s-157 -365 -365 -365s-365 150 -365 365s157 365 365 365zM402 637
c-164 0 -281 -120 -281 -287s117 -287 281 -287c165 0 281 120 281 287s-116 287 -281 287z" />
    <glyph glyph-name="uni1ECC.ss01" horiz-adv-x="804" 
d="M402 715c208 0 365 -150 365 -365s-157 -365 -365 -365s-365 150 -365 365s157 365 365 365zM402 637c-164 0 -281 -120 -281 -287s117 -287 281 -287c165 0 281 120 281 287s-116 287 -281 287zM402 -88c33 0 59 -25 59 -59c0 -33 -26 -59 -59 -59s-59 26 -59 59
c0 34 26 59 59 59z" />
    <glyph glyph-name="uni0156.ss01" horiz-adv-x="571" 
d="M342 303l213 -303h-97l-208 301h-99v-301h-77v700h233c121 0 213 -71 213 -200c0 -113 -74 -185 -178 -197zM297 627h-146v-253h146c92 0 140 50 140 126c0 77 -48 127 -140 127zM292 -41c31 0 55 -22 55 -53c0 -15 -5 -32 -19 -48l-54 -64h-31l34 62
c-23 4 -38 27 -38 50c0 30 23 53 53 53z" />
    <glyph glyph-name="uni0218.ss01" horiz-adv-x="497" 
d="M256 715c67 0 126 -19 178 -44l-36 -74c-47 26 -95 40 -143 40c-71 0 -105 -32 -105 -80c0 -47 31 -75 75 -107l115 -85c74 -54 117 -108 117 -192c0 -124 -89 -188 -217 -188c-81 0 -162 26 -221 64l37 72c52 -32 117 -58 184 -58c93 0 135 48 135 105
c0 48 -28 83 -91 130l-114 86c-60 45 -103 93 -103 170c0 98 68 161 189 161zM300 -94c0 -15 -5 -32 -19 -48l-54 -64h-31l34 62c-23 4 -38 27 -38 50c0 30 23 53 53 53c31 0 55 -22 55 -53z" />
    <glyph glyph-name="uni021A.ss01" horiz-adv-x="515" 
d="M10 627v73h495v-73h-209v-627h-77v627h-209zM257 -41c31 0 55 -22 55 -53c0 -15 -5 -32 -19 -48l-54 -64h-31l34 62c-23 4 -38 27 -38 50c0 30 23 53 53 53z" />
    <glyph glyph-name="Udieresis.ss01" horiz-adv-x="689" 
d="M241 854c32 0 56 -24 56 -56s-24 -56 -56 -56s-56 24 -56 56s24 56 56 56zM447 854c32 0 56 -24 56 -56s-24 -56 -56 -56s-56 24 -56 56s24 56 56 56zM539 700h81v-437c0 -167 -102 -278 -276 -278c-173 0 -276 111 -276 278v437h82v-431c0 -129 79 -204 194 -204
c116 0 195 75 195 204v431z" />
    <glyph glyph-name="uni1EE4.ss01" horiz-adv-x="689" 
d="M539 700h81v-437c0 -167 -102 -278 -276 -278c-173 0 -276 111 -276 278v437h82v-431c0 -129 79 -204 194 -204c116 0 195 75 195 204v431zM345 -88c33 0 59 -25 59 -59c0 -33 -26 -59 -59 -59s-59 26 -59 59c0 34 26 59 59 59z" />
    <glyph glyph-name="Wdieresis.ss01" horiz-adv-x="973" 
d="M384 854c32 0 56 -24 56 -56s-24 -56 -56 -56s-56 24 -56 56s24 56 56 56zM590 854c32 0 56 -24 56 -56s-24 -56 -56 -56s-56 24 -56 56s24 56 56 56zM871 700h87l-212 -700h-77l-181 571h-3l-181 -571h-77l-212 700h86l163 -576h2l180 576h80l181 -576h2z" />
    <glyph glyph-name="Ydieresis.ss01" horiz-adv-x="534" 
d="M164 742c-32 0 -56 24 -56 56s24 56 56 56s56 -24 56 -56s-24 -56 -56 -56zM370 742c-32 0 -56 24 -56 56s24 56 56 56s56 -24 56 -56s-24 -56 -56 -56zM440 700h90l-224 -426v-274h-78v274l-224 426h90l172 -343h2z" />
    <glyph glyph-name="Zdotaccent.ss01" horiz-adv-x="538" 
d="M279 742c-32 0 -56 24 -56 56s24 56 56 56s56 -24 56 -56s-24 -56 -56 -56zM506 627l-394 -554h406v-73h-498v73l393 554h-358v73h451v-73z" />
    <glyph glyph-name="Adieresis.ss02" horiz-adv-x="659" 
d="M147 771h83v-100h-83v100zM429 771h83v-100h-83v100zM651 0h-83l-74 187h-329l-74 -187h-84l286 700h73zM330 602l-137 -344h273z" />
    <glyph glyph-name="Idieresis.ss02" horiz-adv-x="227" 
d="M-44 771h83v-100h-83v100zM187 771h83v-100h-83v100zM74 700h78v-700h-78v700z" />
    <glyph glyph-name="Odieresis.ss02" horiz-adv-x="804" 
d="M87 771h83v-100h-83v100zM634 771h83v-100h-83v100zM402 715c208 0 365 -150 365 -365s-157 -365 -365 -365s-365 150 -365 365s157 365 365 365zM402 637c-164 0 -281 -120 -281 -287s117 -287 281 -287c165 0 281 120 281 287s-116 287 -281 287z" />
    <glyph glyph-name="Udieresis.ss02" horiz-adv-x="689" 
d="M226 771h83v-100h-83v100zM381 771h83v-100h-83v100zM539 700h81v-437c0 -167 -102 -278 -276 -278c-173 0 -276 111 -276 278v437h82v-431c0 -129 79 -204 194 -204c116 0 195 75 195 204v431z" />
    <glyph glyph-name="Wdieresis.ss02" horiz-adv-x="973" 
d="M301 771h83v-100h-83v100zM589 771h83v-100h-83v100zM871 700h87l-212 -700h-77l-181 571h-3l-181 -571h-77l-212 700h86l163 -576h2l180 576h80l181 -576h2z" />
    <glyph glyph-name="Ydieresis.ss02" horiz-adv-x="534" 
d="M162 771h75v-100h-75v100zM297 771h75v-100h-75v100zM440 700h90l-224 -426v-274h-78v274l-224 426h90l172 -343h2z" />
    <glyph glyph-name="Adieresis.ss01.ss02" horiz-adv-x="659" 
d="M186 657c-32 0 -56 24 -56 56s24 56 56 56s56 -24 56 -56s-24 -56 -56 -56zM473 657c-32 0 -56 24 -56 56s24 56 56 56s56 -24 56 -56s-24 -56 -56 -56zM651 0h-83l-74 187h-329l-74 -187h-84l286 700h73zM330 602l-137 -344h273z" />
    <glyph glyph-name="Idieresis.ss01.ss02" horiz-adv-x="227" 
d="M-11 769c32 0 56 -24 56 -56s-24 -56 -56 -56s-56 24 -56 56s24 56 56 56zM237 769c32 0 56 -24 56 -56s-24 -56 -56 -56c-31 0 -56 24 -56 56s25 56 56 56zM74 700h78v-700h-78v700z" />
    <glyph glyph-name="Odieresis.ss01.ss02" horiz-adv-x="804" 
d="M118 769c32 0 56 -24 56 -56s-24 -56 -56 -56s-56 24 -56 56s24 56 56 56zM687 769c32 0 56 -24 56 -56s-24 -56 -56 -56s-56 24 -56 56s24 56 56 56zM402 715c208 0 365 -150 365 -365s-157 -365 -365 -365s-365 150 -365 365s157 365 365 365zM402 637
c-164 0 -281 -120 -281 -287s117 -287 281 -287c165 0 281 120 281 287s-116 287 -281 287z" />
    <glyph glyph-name="Udieresis.ss01.ss02" horiz-adv-x="689" 
d="M258 769c32 0 56 -24 56 -56s-24 -56 -56 -56c-31 0 -56 24 -56 56s25 56 56 56zM430 769c32 0 56 -24 56 -56s-24 -56 -56 -56s-56 24 -56 56s24 56 56 56zM539 700h81v-437c0 -167 -102 -278 -276 -278c-173 0 -276 111 -276 278v437h82v-431c0 -129 79 -204 194 -204
c116 0 195 75 195 204v431z" />
    <glyph glyph-name="Wdieresis.ss01.ss02" horiz-adv-x="973" 
d="M339 769c32 0 56 -24 56 -56s-24 -56 -56 -56s-56 24 -56 56s24 56 56 56zM634 769c32 0 56 -24 56 -56s-24 -56 -56 -56s-56 24 -56 56s24 56 56 56zM871 700h87l-212 -700h-77l-181 571h-3l-181 -571h-77l-212 700h86l163 -576h2l180 576h80l181 -576h2z" />
    <glyph glyph-name="Ydieresis.ss01.ss02" horiz-adv-x="534" 
d="M193 657c-32 0 -56 24 -56 56s24 56 56 56s56 -24 56 -56s-24 -56 -56 -56zM341 657c-32 0 -56 24 -56 56s24 56 56 56s56 -24 56 -56s-24 -56 -56 -56zM440 700h90l-224 -426v-274h-78v274l-224 426h90l172 -343h2z" />
    <glyph glyph-name="uni1EA1" unicode="&#x1ea1;" horiz-adv-x="572" 
d="M261 -15c-127 0 -229 93 -229 246s102 246 229 246c84 0 143 -39 175 -97h2v82h72v-462h-72v82h-2c-32 -58 -91 -97 -175 -97zM275 56c101 0 167 73 167 175s-66 175 -167 175s-167 -73 -167 -175s66 -175 167 -175zM241 -80h91v-120h-91v120z" />
    <glyph glyph-name="uni1EB9" unicode="&#x1eb9;" horiz-adv-x="521" 
d="M267 477c151 0 222 -106 222 -243v-13h-384c2 -102 69 -166 166 -166c86 0 130 51 158 88l52 -47c-34 -48 -93 -111 -209 -111c-146 0 -240 99 -240 245c0 148 94 247 235 247zM263 410c-80 0 -144 -46 -155 -134h303c-7 84 -59 134 -148 134zM225 -80h91v-120h-91v120z
" />
    <glyph glyph-name="uni1EBD" unicode="&#x1ebd;" horiz-adv-x="521" 
d="M198 698c55 0 115 -56 156 -56c23 0 40 17 53 47l34 -11c-12 -48 -40 -96 -94 -96c-55 0 -115 55 -156 55c-23 0 -40 -16 -53 -46l-35 10c12 48 41 97 95 97zM267 477c151 0 222 -106 222 -243v-13h-384c2 -102 69 -166 166 -166c86 0 130 51 158 88l52 -47
c-34 -48 -93 -111 -209 -111c-146 0 -240 99 -240 245c0 148 94 247 235 247zM263 410c-80 0 -144 -46 -155 -134h303c-7 84 -59 134 -148 134z" />
    <glyph glyph-name="uni0259" unicode="&#x259;" horiz-adv-x="521" 
d="M254 -15c-151 0 -222 106 -222 243v13h384c-2 102 -69 166 -166 166c-86 0 -130 -51 -158 -88l-52 47c34 48 93 111 209 111c146 0 240 -99 240 -245c0 -148 -94 -247 -235 -247zM258 52c80 0 144 46 155 134h-303c7 -84 59 -134 148 -134z" />
    <glyph glyph-name="uni0292" unicode="&#x292;" horiz-adv-x="468" 
d="M201 -215c-79 0 -157 21 -214 51l32 67c52 -27 119 -48 186 -48c99 0 160 49 160 141c0 97 -66 134 -180 134h-91v62l223 202h-288v68h380v-72l-229 -201c17 1 34 3 52 3c120 0 209 -65 209 -195c0 -128 -78 -212 -240 -212z" />
    <glyph glyph-name="gcaron" unicode="&#x1e7;" horiz-adv-x="572" 
d="M378 700h76l-128 -154h-77l-128 154h75l91 -108zM296 -215c-56 0 -122 9 -178 21l14 70c59 -13 118 -21 164 -21c99 0 142 42 142 150v77h-2c-32 -58 -91 -97 -175 -97c-127 0 -229 93 -229 246s102 246 229 246c84 0 143 -39 175 -97h2v82h72v-462
c-3 -180 -98 -215 -214 -215zM275 56c101 0 167 73 167 175s-66 175 -167 175s-167 -73 -167 -175s66 -175 167 -175z" />
    <glyph glyph-name="uni01E5" unicode="&#x1e5;" horiz-adv-x="572" 
d="M506 -52h66v-30h-72c-27 -109 -108 -133 -204 -133c-56 0 -122 9 -178 21l14 70c59 -13 118 -21 164 -21c66 0 107 19 127 63h-198v30h208c3 16 5 35 5 57v77h-2c-32 -58 -91 -97 -175 -97c-127 0 -229 93 -229 246s102 246 229 246c84 0 143 -39 175 -97h2v82h72v-462
c0 -19 -2 -36 -4 -52zM275 56c101 0 167 73 167 175s-66 175 -167 175s-167 -73 -167 -175s66 -175 167 -175z" />
    <glyph glyph-name="uni1ECB" unicode="&#x1ecb;" horiz-adv-x="202" 
d="M55 690h91v-120h-91v120zM137 0h-72v462h72v-462zM55 -80h91v-120h-91v120z" />
    <glyph glyph-name="uni01E9" unicode="&#x1e9;" horiz-adv-x="459" 
d="M187 863h77l-123 -120h-76l-122 120h77l83 -81zM217 251l234 -251h-99l-213 234v-234h-72v700h72v-440l192 202h99z" />
    <glyph glyph-name="uni0272" unicode="&#x272;" horiz-adv-x="539" 
d="M303 477c103 0 177 -57 177 -196v-281h-72v271c0 94 -50 134 -124 134c-79 0 -148 -48 -148 -192v-285c0 -84 -41 -128 -118 -128h-34v68h24c37 0 56 21 56 62v532h72v-89h2c30 67 86 104 165 104z" />
    <glyph glyph-name="uni1ECD" unicode="&#x1ecd;" horiz-adv-x="564" 
d="M282 477c145 0 250 -103 250 -246s-105 -246 -250 -246c-144 0 -250 103 -250 246s106 246 250 246zM282 406c-100 0 -174 -69 -174 -175s74 -175 174 -175s174 69 174 175s-74 175 -174 175zM237 -80h91v-120h-91v120z" />
    <glyph glyph-name="uni01EB" unicode="&#x1eb;" horiz-adv-x="564" 
d="M392 8c-63 -48 -85 -86 -85 -114c0 -21 19 -29 40 -29c12 0 30 3 44 7l8 -49c-21 -7 -48 -10 -65 -10c-46 0 -86 22 -86 71c0 32 16 64 52 102c-6 -1 -12 -1 -18 -1c-144 0 -250 103 -250 246s106 246 250 246c145 0 250 -103 250 -246c0 -103 -55 -186 -140 -223z
M108 231c0 -106 74 -175 174 -175s174 69 174 175s-74 175 -174 175s-174 -69 -174 -175z" />
    <glyph glyph-name="uni1EE5" unicode="&#x1ee5;" horiz-adv-x="526" 
d="M231 -15c-95 0 -172 56 -172 198v279h73v-275c0 -93 49 -132 117 -132c78 0 141 50 141 198v209h72v-462h-72v86h-2c-23 -53 -70 -101 -157 -101zM220 -80h91v-120h-91v120z" />
    <glyph glyph-name="uni0233" unicode="&#x233;" horiz-adv-x="467" 
d="M95 657h282v-56h-282v56zM236 130l144 332h80l-302 -662h-77l118 249l-192 413h85z" />
    <glyph glyph-name="uni1EF9" unicode="&#x1ef9;" horiz-adv-x="467" 
d="M159 637c-23 0 -40 -16 -53 -46l-35 10c12 48 41 97 95 97c55 0 115 -56 156 -56c23 0 40 17 53 47l34 -11c-12 -48 -40 -96 -94 -96c-55 0 -115 55 -156 55zM236 130l144 332h80l-302 -662h-77l118 249l-192 413h85z" />
    <glyph glyph-name="adieresis.ss01" horiz-adv-x="572" 
d="M181 702c33 0 58 -25 58 -58s-25 -58 -58 -58s-58 25 -58 58s25 58 58 58zM376 702c33 0 58 -25 58 -58s-25 -58 -58 -58s-58 25 -58 58s25 58 58 58zM261 -15c-127 0 -229 93 -229 246s102 246 229 246c84 0 143 -39 175 -97h2v82h72v-462h-72v82h-2
c-32 -58 -91 -97 -175 -97zM275 56c101 0 167 73 167 175s-66 175 -167 175s-167 -73 -167 -175s66 -175 167 -175z" />
    <glyph glyph-name="uni1EA1.ss01" horiz-adv-x="572" 
d="M261 -15c-127 0 -229 93 -229 246s102 246 229 246c84 0 143 -39 175 -97h2v82h72v-462h-72v82h-2c-32 -58 -91 -97 -175 -97zM275 56c101 0 167 73 167 175s-66 175 -167 175s-167 -73 -167 -175s66 -175 167 -175zM287 -88c33 0 59 -25 59 -59c0 -33 -26 -59 -59 -59
s-59 26 -59 59c0 34 26 59 59 59z" />
    <glyph glyph-name="cdotaccent.ss01" horiz-adv-x="465" 
d="M277 702c34 0 62 -27 62 -62c0 -34 -28 -61 -62 -61c-35 0 -62 27 -62 61c0 35 27 62 62 62zM283 -15c-148 0 -251 99 -251 246s103 246 251 246c59 0 109 -16 158 -46l-35 -62c-39 23 -79 38 -125 38c-105 0 -173 -78 -173 -176s68 -176 173 -176c46 0 86 15 125 38
l35 -62c-49 -30 -99 -46 -158 -46z" />
    <glyph glyph-name="edieresis.ss01" horiz-adv-x="521" 
d="M172 702c33 0 58 -25 58 -58s-25 -58 -58 -58s-58 25 -58 58s25 58 58 58zM367 702c33 0 58 -25 58 -58s-25 -58 -58 -58s-58 25 -58 58s25 58 58 58zM267 477c151 0 222 -106 222 -243v-13h-384c2 -102 69 -166 166 -166c86 0 130 51 158 88l52 -47
c-34 -48 -93 -111 -209 -111c-146 0 -240 99 -240 245c0 148 94 247 235 247zM263 410c-80 0 -144 -46 -155 -134h303c-7 84 -59 134 -148 134z" />
    <glyph glyph-name="edotaccent.ss01" horiz-adv-x="521" 
d="M269 702c34 0 62 -27 62 -62c0 -34 -28 -61 -62 -61c-35 0 -62 27 -62 61c0 35 27 62 62 62zM267 477c151 0 222 -106 222 -243v-13h-384c2 -102 69 -166 166 -166c86 0 130 51 158 88l52 -47c-34 -48 -93 -111 -209 -111c-146 0 -240 99 -240 245c0 148 94 247 235 247z
M263 410c-80 0 -144 -46 -155 -134h303c-7 84 -59 134 -148 134z" />
    <glyph glyph-name="uni1EB9.ss01" horiz-adv-x="521" 
d="M267 477c151 0 222 -106 222 -243v-13h-384c2 -102 69 -166 166 -166c86 0 130 51 158 88l52 -47c-34 -48 -93 -111 -209 -111c-146 0 -240 99 -240 245c0 148 94 247 235 247zM263 410c-80 0 -144 -46 -155 -134h303c-7 84 -59 134 -148 134zM271 -88
c33 0 59 -25 59 -59c0 -33 -26 -59 -59 -59s-59 26 -59 59c0 34 26 59 59 59z" />
    <glyph glyph-name="uni0123.ss01" horiz-adv-x="572" 
d="M232 589c0 15 5 32 19 49l53 63h32l-35 -61c23 -5 38 -28 38 -51c0 -30 -22 -53 -52 -53c-31 0 -55 22 -55 53zM296 -215c-56 0 -122 9 -178 21l14 70c59 -13 118 -21 164 -21c99 0 142 42 142 150v77h-2c-32 -58 -91 -97 -175 -97c-127 0 -229 93 -229 246
s102 246 229 246c84 0 143 -39 175 -97h2v82h72v-462c-3 -180 -98 -215 -214 -215zM275 56c101 0 167 73 167 175s-66 175 -167 175s-167 -73 -167 -175s66 -175 167 -175z" />
    <glyph glyph-name="gdotaccent.ss01" horiz-adv-x="572" 
d="M287 702c34 0 62 -27 62 -62c0 -34 -28 -61 -62 -61c-35 0 -62 27 -62 61c0 35 27 62 62 62zM296 -215c-56 0 -122 9 -178 21l14 70c59 -13 118 -21 164 -21c99 0 142 42 142 150v77h-2c-32 -58 -91 -97 -175 -97c-127 0 -229 93 -229 246s102 246 229 246
c84 0 143 -39 175 -97h2v82h72v-462c-3 -180 -98 -215 -214 -215zM275 56c101 0 167 73 167 175s-66 175 -167 175s-167 -73 -167 -175s66 -175 167 -175z" />
    <glyph glyph-name="i.ss01" horiz-adv-x="202" 
d="M101 702c34 0 62 -27 62 -62c0 -34 -28 -61 -62 -61c-35 0 -62 27 -62 61c0 35 27 62 62 62zM137 0h-72v462h72v-462z" />
    <glyph glyph-name="idieresis.ss01" horiz-adv-x="202" 
d="M28 702c33 0 58 -25 58 -58s-25 -58 -58 -58s-58 25 -58 58s25 58 58 58zM175 702c33 0 58 -25 58 -58s-25 -58 -58 -58c-34 0 -58 25 -58 58s24 58 58 58zM137 0h-72v462h72v-462z" />
    <glyph glyph-name="i.loclTRK.ss01" horiz-adv-x="202" 
d="M101 702c34 0 62 -27 62 -62c0 -34 -28 -61 -62 -61c-35 0 -62 27 -62 61c0 35 27 62 62 62zM137 0h-72v462h72v-462z" />
    <glyph glyph-name="uni1ECB.ss01" horiz-adv-x="202" 
d="M101 702c34 0 62 -27 62 -62c0 -34 -28 -61 -62 -61c-35 0 -62 27 -62 61c0 35 27 62 62 62zM137 0h-72v462h72v-462zM101 -88c33 0 59 -25 59 -59c0 -33 -26 -59 -59 -59s-59 26 -59 59c0 34 26 59 59 59z" />
    <glyph glyph-name="ij.ss01" horiz-adv-x="404" 
d="M101 702c34 0 62 -27 62 -62c0 -34 -28 -61 -62 -61c-35 0 -62 27 -62 61c0 35 27 62 62 62zM303 702c34 0 62 -27 62 -62c0 -34 -28 -61 -62 -61c-35 0 -62 27 -62 61c0 35 27 62 62 62zM137 0h-72v462h72v-462zM177 -203v65h23c47 0 67 24 67 82v518h72v-524
c0 -93 -46 -141 -130 -141h-32z" />
    <glyph glyph-name="iogonek.ss01" horiz-adv-x="202" 
d="M101 702c34 0 62 -27 62 -62c0 -34 -28 -61 -62 -61c-35 0 -62 27 -62 61c0 35 27 62 62 62zM65 15v447h72v-462h-22c-55 -44 -75 -79 -75 -106c0 -21 19 -29 40 -29c12 0 30 3 44 7l8 -49c-21 -7 -48 -10 -65 -10c-46 0 -86 22 -86 71c0 40 26 81 84 131z" />
    <glyph glyph-name="j.ss01" horiz-adv-x="202" 
d="M101 702c34 0 62 -27 62 -62c0 -34 -28 -61 -62 -61c-35 0 -62 27 -62 61c0 35 27 62 62 62zM-25 -203v65h23c47 0 67 24 67 82v518h72v-524c0 -93 -46 -141 -130 -141h-32z" />
    <glyph glyph-name="uni0137.ss01" horiz-adv-x="459" 
d="M430 462l-213 -211l234 -251h-99l-213 234v-234h-72v700h72v-440l192 202h99zM229 -41c31 0 55 -22 55 -53c0 -15 -5 -32 -19 -48l-54 -64h-31l34 62c-23 4 -38 27 -38 50c0 30 23 53 53 53z" />
    <glyph glyph-name="uni013C.ss01" horiz-adv-x="206" 
d="M67 700h72v-700h-72v700zM158 -94c0 -15 -5 -32 -19 -48l-54 -64h-31l34 62c-23 4 -38 27 -38 50c0 30 23 53 53 53c31 0 55 -22 55 -53z" />
    <glyph glyph-name="ldot.ss01" horiz-adv-x="259" 
d="M67 700h72v-700h-72v700zM232 431c37 0 63 -26 63 -63c0 -36 -26 -63 -63 -63c-36 0 -63 27 -63 63c0 37 27 63 63 63z" />
    <glyph glyph-name="napostrophe.ss01" horiz-adv-x="550" 
d="M63 717c33 0 57 -26 57 -57c0 -10 -2 -22 -13 -45l-69 -135h-32l43 127c-27 4 -43 28 -43 54c0 30 23 56 57 56zM314 477c103 0 177 -57 177 -196v-281h-72v271c0 94 -50 134 -123 134c-80 0 -149 -48 -149 -192v-213h-72v462h72v-89h2c30 67 86 104 165 104z" />
    <glyph glyph-name="uni0146.ss01" horiz-adv-x="539" 
d="M303 477c103 0 177 -57 177 -196v-281h-72v271c0 94 -50 134 -124 134c-79 0 -148 -48 -148 -192v-213h-72v462h72v-89h2c30 67 86 104 165 104zM338 -94c0 -15 -5 -32 -19 -48l-54 -64h-31l34 62c-23 4 -38 27 -38 50c0 30 23 53 53 53c31 0 55 -22 55 -53z" />
    <glyph glyph-name="odieresis.ss01" horiz-adv-x="564" 
d="M185 702c33 0 58 -25 58 -58s-25 -58 -58 -58s-58 25 -58 58s25 58 58 58zM380 702c33 0 58 -25 58 -58s-25 -58 -58 -58s-58 25 -58 58s25 58 58 58zM282 477c145 0 250 -103 250 -246s-105 -246 -250 -246c-144 0 -250 103 -250 246s106 246 250 246zM282 406
c-100 0 -174 -69 -174 -175s74 -175 174 -175s174 69 174 175s-74 175 -174 175z" />
    <glyph glyph-name="uni1ECD.ss01" horiz-adv-x="564" 
d="M282 477c145 0 250 -103 250 -246s-105 -246 -250 -246c-144 0 -250 103 -250 246s106 246 250 246zM282 406c-100 0 -174 -69 -174 -175s74 -175 174 -175s174 69 174 175s-74 175 -174 175zM282 -88c33 0 59 -25 59 -59c0 -33 -26 -59 -59 -59s-59 26 -59 59
c0 34 26 59 59 59z" />
    <glyph glyph-name="uni0157.ss01" horiz-adv-x="317" 
d="M291 476h12v-83h-14c-98 0 -153 -62 -153 -176v-217h-72v462h72v-104h2c19 69 75 118 153 118zM156 -94c0 -15 -5 -32 -19 -48l-54 -64h-31l34 62c-23 4 -38 27 -38 50c0 30 23 53 53 53c31 0 55 -22 55 -53z" />
    <glyph glyph-name="uni0219.ss01" horiz-adv-x="406" 
d="M210 -15c-70 0 -139 21 -191 54l35 64c46 -30 101 -50 159 -50c63 0 92 25 92 61c0 30 -21 50 -63 69l-86 41c-67 31 -100 73 -100 129c0 81 63 124 159 124c54 0 108 -14 156 -36l-31 -64c-38 18 -81 32 -127 32c-52 0 -80 -18 -80 -53c0 -31 21 -49 66 -70l84 -39
c59 -28 99 -64 99 -130c0 -88 -68 -132 -172 -132zM256 -94c0 -15 -5 -32 -19 -48l-54 -64h-31l34 62c-23 4 -38 27 -38 50c0 30 23 53 53 53c31 0 55 -22 55 -53z" />
    <glyph glyph-name="uni021B.ss01" horiz-adv-x="306" 
d="M282 462v-62h-102v-273c0 -41 20 -61 58 -61h25v-67h-38c-73 0 -117 39 -117 114v287h-89v62h89v185h72v-185h102zM199 -42c31 0 55 -22 55 -53c0 -15 -5 -32 -19 -48l-54 -64h-31l34 62c-23 4 -38 27 -38 50c0 30 23 53 53 53z" />
    <glyph glyph-name="udieresis.ss01" horiz-adv-x="526" 
d="M164 702c33 0 58 -25 58 -58s-25 -58 -58 -58s-58 25 -58 58s25 58 58 58zM359 702c33 0 58 -25 58 -58s-25 -58 -58 -58s-58 25 -58 58s25 58 58 58zM231 -15c-95 0 -172 56 -172 198v279h73v-275c0 -93 49 -132 117 -132c78 0 141 50 141 198v209h72v-462h-72v86h-2
c-23 -53 -70 -101 -157 -101z" />
    <glyph glyph-name="uni1EE5.ss01" horiz-adv-x="526" 
d="M231 -15c-95 0 -172 56 -172 198v279h73v-275c0 -93 49 -132 117 -132c78 0 141 50 141 198v209h72v-462h-72v86h-2c-23 -53 -70 -101 -157 -101zM266 -88c33 0 59 -25 59 -59c0 -33 -26 -59 -59 -59s-59 26 -59 59c0 34 26 59 59 59z" />
    <glyph glyph-name="wdieresis.ss01" horiz-adv-x="719" 
d="M262 586c-33 0 -58 25 -58 58s25 58 58 58s58 -25 58 -58s-25 -58 -58 -58zM457 586c-33 0 -58 25 -58 58s25 58 58 58s58 -25 58 -58s-25 -58 -58 -58zM521 92l111 370h80l-156 -462h-69l-128 368l-128 -368h-68l-156 462h79l112 -370l125 370h73z" />
    <glyph glyph-name="ydieresis.ss01" horiz-adv-x="467" 
d="M139 586c-33 0 -58 25 -58 58s25 58 58 58s58 -25 58 -58s-25 -58 -58 -58zM334 586c-33 0 -58 25 -58 58s25 58 58 58s58 -25 58 -58s-25 -58 -58 -58zM236 130l144 332h80l-302 -662h-77l118 249l-192 413h85z" />
    <glyph glyph-name="zdotaccent.ss01" horiz-adv-x="441" 
d="M228 579c-35 0 -62 27 -62 61c0 35 27 62 62 62c34 0 62 -27 62 -62c0 -34 -28 -61 -62 -61zM394 398l-279 -330h299v-68h-387v64l279 331h-263v67h351v-64z" />
    <glyph glyph-name="germandbls.ss03" horiz-adv-x="505" 
d="M471 462l-125 -197c60 -24 124 -65 124 -168c0 -125 -103 -220 -220 -312l-46 55c117 93 193 171 193 251c0 81 -72 115 -130 130l-17 5l108 174h-219v-400h-72v539c0 113 64 171 164 171h17v-68h-13c-55 0 -96 -25 -96 -102v-124l34 46h298z" />
    <glyph glyph-name="t_z" horiz-adv-x="594" 
d="M560 462l-125 -197c60 -24 124 -65 124 -168c0 -125 -103 -220 -220 -312l-46 55c117 93 193 171 193 251c0 81 -72 115 -130 130l-17 5l108 174h-267v-273c0 -41 20 -61 58 -61h25v-67h-38c-73 0 -117 39 -117 114v287h-89v62h89v185h72v-185h380z" />
    <glyph glyph-name="f_f_i.ss01" horiz-adv-x="817" 
d="M109 462v77c0 115 63 171 164 171h16v-68h-13c-55 0 -96 -25 -96 -102v-78h105v-62h-105v-400h-71v400h-85v62h85zM417 462v77c0 115 63 171 164 171h16v-68h-13c-55 0 -96 -25 -96 -102v-78h105v-62h-105v-400h-71v400h-85v62h85zM716 702c34 0 62 -27 62 -62
c0 -34 -28 -61 -62 -61c-35 0 -62 27 -62 61c0 35 27 62 62 62zM752 0h-72v462h72v-462z" />
    <glyph glyph-name="fi.ss01" horiz-adv-x="510" 
d="M109 462v77c0 115 63 171 164 171h16v-68h-13c-55 0 -96 -25 -96 -102v-78h105v-62h-105v-400h-71v400h-85v62h85zM409 702c34 0 62 -27 62 -62c0 -34 -28 -61 -62 -61c-35 0 -62 27 -62 61c0 35 27 62 62 62zM445 0h-72v462h72v-462z" />
    <glyph glyph-name="a.subs" horiz-adv-x="411" 
d="M186 -120c-84 0 -154 61 -154 163s70 163 154 163c55 0 96 -24 117 -66h2v56h64v-306h-64v56h-2c-21 -42 -62 -66 -117 -66zM200 -62c59 0 105 41 105 105s-46 105 -105 105s-101 -41 -101 -105s42 -105 101 -105z" />
    <glyph glyph-name="b.subs" horiz-adv-x="416" 
d="M231 -120c-55 0 -97 24 -119 66h-2v-56h-63v462h63v-212h2c22 42 64 66 119 66c87 0 153 -58 153 -163s-66 -163 -153 -163zM215 -62c59 0 101 41 101 105s-42 105 -101 105s-105 -41 -105 -105s46 -105 105 -105z" />
    <glyph glyph-name="c.subs" horiz-adv-x="335" 
d="M203 206c38 0 73 -9 110 -30l-29 -53c-24 16 -50 24 -78 24c-63 0 -108 -41 -108 -104s45 -104 108 -104c28 0 54 8 78 24l29 -53c-37 -21 -72 -30 -110 -30c-100 0 -171 65 -171 163s71 163 171 163z" />
    <glyph glyph-name="d.subs" horiz-adv-x="416" 
d="M184 -120c-86 0 -152 58 -152 163s66 163 152 163c55 0 98 -24 119 -66h2v212h64v-462h-64v56h-2c-21 -42 -64 -66 -119 -66zM200 -62c59 0 105 41 105 105s-46 105 -105 105s-101 -41 -101 -105s42 -105 101 -105z" />
    <glyph glyph-name="e.subs" horiz-adv-x="376" 
d="M192 206c98 0 151 -71 151 -165v-13h-247c6 -62 50 -90 104 -90s82 27 102 45l32 -47c-30 -29 -72 -56 -133 -56c-104 0 -169 64 -169 163c0 98 67 163 160 163zM190 151c-47 0 -86 -25 -93 -80h181c-4 50 -35 80 -88 80z" />
    <glyph glyph-name="f.subs" horiz-adv-x="242" 
d="M225 299h-10c-47 0 -71 -16 -71 -70v-33h80v-53h-80v-253h-63v253h-64v53h64v37c0 86 48 126 127 126h17v-60z" />
    <glyph glyph-name="g.subs" horiz-adv-x="408" 
d="M216 -251c-40 0 -92 6 -140 16l11 61c56 -12 95 -17 128 -17c68 0 90 29 90 100v37h-2c-21 -42 -64 -66 -119 -66c-86 0 -152 58 -152 163s66 163 152 163c55 0 98 -24 119 -66h2v56h64v-306c-2 -86 -53 -141 -153 -141zM200 -62c59 0 105 41 105 105s-46 105 -105 105
s-101 -41 -101 -105s42 -105 101 -105z" />
    <glyph glyph-name="h.subs" horiz-adv-x="383" 
d="M47 352h63v-212h2c21 42 60 66 111 66c65 0 118 -40 118 -129v-187h-63v168c0 62 -32 89 -79 89c-45 0 -89 -26 -89 -108v-149h-63v462z" />
    <glyph glyph-name="i.subs" horiz-adv-x="178" 
d="M50 352h77v-88h-77v88zM57 196h63v-306h-63v306z" />
    <glyph glyph-name="j.subs" horiz-adv-x="181" 
d="M55 352h76v-88h-76v88zM61 196h64v-328c0 -80 -41 -112 -104 -112h-24v60h15c30 0 49 13 49 53v327z" />
    <glyph glyph-name="k.subs" horiz-adv-x="346" 
d="M47 352h63v-288l122 132h85l-138 -140l155 -166h-87l-137 152v-152h-63v462z" />
    <glyph glyph-name="l.subs" horiz-adv-x="157" 
d="M47 352h63v-462h-63v462z" />
    <glyph glyph-name="m.subs" horiz-adv-x="566" 
d="M414 206c64 0 110 -41 110 -119v-197h-63v179c0 49 -23 78 -69 78c-45 0 -77 -27 -77 -103v-154h-63v170c0 57 -23 87 -70 87c-48 0 -77 -33 -77 -110v-147h-63v306h61v-53h2c20 41 56 63 101 63c48 0 83 -23 101 -69h2c18 44 54 69 105 69z" />
    <glyph glyph-name="n.subs" horiz-adv-x="378" 
d="M216 206c68 0 120 -42 120 -134v-182h-63v168c0 61 -32 89 -80 89c-45 0 -88 -26 -88 -108v-149h-63v306h61v-58h2c22 44 59 68 111 68z" />
    <glyph glyph-name="o.subs" horiz-adv-x="405" 
d="M203 206c96 0 170 -63 170 -163s-74 -163 -170 -163c-97 0 -171 63 -171 163s74 163 171 163zM203 147c-58 0 -105 -38 -105 -104s47 -104 105 -104c57 0 104 38 104 104s-47 104 -104 104z" />
    <glyph glyph-name="p.subs" horiz-adv-x="411" 
d="M105 -242h-63v438h63v-56h2c22 42 64 66 119 66c87 0 153 -58 153 -163s-66 -163 -153 -163c-55 0 -97 24 -119 66h-2v-188zM210 -62c59 0 101 41 101 105s-42 105 -101 105s-105 -41 -105 -105s46 -105 105 -105z" />
    <glyph glyph-name="q.subs" horiz-adv-x="411" 
d="M369 -242h-64v188h-2c-21 -42 -64 -66 -119 -66c-86 0 -152 58 -152 163s66 163 152 163c55 0 98 -24 119 -66h2v56h64v-438zM200 -62c59 0 105 41 105 105s-46 105 -105 105s-101 -41 -101 -105s42 -105 101 -105z" />
    <glyph glyph-name="r.subs" horiz-adv-x="227" 
d="M207 204h8v-66h-14c-68 0 -96 -31 -96 -109v-139h-63v306h61v-62h2c13 43 52 70 102 70z" />
    <glyph glyph-name="s.subs" horiz-adv-x="304" 
d="M164 206c33 0 70 -8 106 -25l-27 -53c-27 14 -54 23 -83 23c-28 0 -44 -9 -44 -28c0 -16 12 -25 36 -37l59 -28c38 -19 66 -40 66 -87c0 -60 -44 -91 -117 -91c-47 0 -93 13 -133 36l29 54c33 -20 68 -34 107 -34c35 0 51 11 51 30c0 17 -11 25 -32 35l-59 29
c-47 23 -70 51 -70 91c0 52 38 85 111 85z" />
    <glyph glyph-name="t.subs" horiz-adv-x="241" 
d="M216 196v-55h-70v-151c0 -28 11 -40 37 -40h19v-60h-31c-54 0 -88 28 -88 94v157h-66v55h66v121h63v-121h70z" />
    <glyph glyph-name="u.subs" horiz-adv-x="379" 
d="M268 196h63v-306h-61v55h-2c-18 -36 -52 -65 -107 -65c-69 0 -119 39 -119 128v188h65v-173c0 -60 33 -85 76 -85c51 0 85 37 85 117v141z" />
    <glyph glyph-name="v.subs" horiz-adv-x="349" 
d="M264 196h73l-129 -306h-67l-129 306h73l89 -241z" />
    <glyph glyph-name="w.subs" horiz-adv-x="530" 
d="M452 196h66l-109 -306h-60l-84 226l-84 -226h-59l-110 306h66l74 -224l80 224h66l81 -224z" />
    <glyph glyph-name="x.subs" horiz-adv-x="355" 
d="M343 -110h-75l-91 114l-91 -114h-74l126 158l-118 148h75l82 -104l82 104h75l-117 -148z" />
    <glyph glyph-name="y.subs" horiz-adv-x="347" 
d="M177 -6l92 202h66l-199 -438h-67l76 166l-133 272h75z" />
    <glyph glyph-name="z.subs" horiz-adv-x="323" 
d="M38 196h250l-1 -50l-183 -200h194v-56h-273v51l181 199h-168v56z" />
    <glyph glyph-name="a.sups" horiz-adv-x="411" 
d="M186 338c-84 0 -154 61 -154 163s70 163 154 163c55 0 96 -24 117 -66h2v56h64v-306h-64v56h-2c-21 -42 -62 -66 -117 -66zM200 396c59 0 105 41 105 105s-46 105 -105 105s-101 -41 -101 -105s42 -105 101 -105z" />
    <glyph glyph-name="b.sups" horiz-adv-x="416" 
d="M231 338c-55 0 -97 24 -119 66h-2v-56h-63v462h63v-212h2c22 42 64 66 119 66c87 0 153 -58 153 -163s-66 -163 -153 -163zM215 396c59 0 101 41 101 105s-42 105 -101 105s-105 -41 -105 -105s46 -105 105 -105z" />
    <glyph glyph-name="c.sups" horiz-adv-x="335" 
d="M203 664c38 0 73 -9 110 -30l-29 -53c-24 16 -50 24 -78 24c-63 0 -108 -41 -108 -104s45 -104 108 -104c28 0 54 8 78 24l29 -53c-37 -21 -72 -30 -110 -30c-100 0 -171 65 -171 163s71 163 171 163z" />
    <glyph glyph-name="d.sups" horiz-adv-x="416" 
d="M184 338c-86 0 -152 58 -152 163s66 163 152 163c55 0 98 -24 119 -66h2v212h64v-462h-64v56h-2c-21 -42 -64 -66 -119 -66zM200 396c59 0 105 41 105 105s-46 105 -105 105s-101 -41 -101 -105s42 -105 101 -105z" />
    <glyph glyph-name="e.sups" horiz-adv-x="376" 
d="M192 664c98 0 151 -71 151 -165v-13h-247c6 -62 50 -90 104 -90s82 27 102 45l32 -47c-30 -29 -72 -56 -133 -56c-104 0 -169 64 -169 163c0 98 67 163 160 163zM190 609c-47 0 -86 -25 -93 -80h181c-4 50 -35 80 -88 80z" />
    <glyph glyph-name="f.sups" horiz-adv-x="242" 
d="M225 757h-10c-47 0 -71 -16 -71 -70v-33h80v-53h-80v-253h-63v253h-64v53h64v37c0 86 48 126 127 126h17v-60z" />
    <glyph glyph-name="g.sups" horiz-adv-x="408" 
d="M216 207c-40 0 -92 6 -140 16l11 61c56 -12 95 -17 128 -17c68 0 90 29 90 100v37h-2c-21 -42 -64 -66 -119 -66c-86 0 -152 58 -152 163s66 163 152 163c55 0 98 -24 119 -66h2v56h64v-306c-2 -86 -53 -141 -153 -141zM200 396c59 0 105 41 105 105s-46 105 -105 105
s-101 -41 -101 -105s42 -105 101 -105z" />
    <glyph glyph-name="h.sups" horiz-adv-x="383" 
d="M47 810h63v-212h2c21 42 60 66 111 66c65 0 118 -40 118 -129v-187h-63v168c0 62 -32 89 -79 89c-45 0 -89 -26 -89 -108v-149h-63v462z" />
    <glyph glyph-name="i.sups" horiz-adv-x="178" 
d="M50 810h77v-88h-77v88zM57 654h63v-306h-63v306z" />
    <glyph glyph-name="j.sups" horiz-adv-x="181" 
d="M55 810h76v-88h-76v88zM61 654h64v-328c0 -80 -41 -112 -104 -112h-24v60h15c30 0 49 13 49 53v327z" />
    <glyph glyph-name="k.sups" horiz-adv-x="346" 
d="M47 810h63v-288l122 132h85l-138 -140l155 -166h-87l-137 152v-152h-63v462z" />
    <glyph glyph-name="l.sups" horiz-adv-x="157" 
d="M47 810h63v-462h-63v462z" />
    <glyph glyph-name="m.sups" horiz-adv-x="566" 
d="M414 664c64 0 110 -41 110 -119v-197h-63v179c0 49 -23 78 -69 78c-45 0 -77 -27 -77 -103v-154h-63v170c0 57 -23 87 -70 87c-48 0 -77 -33 -77 -110v-147h-63v306h61v-53h2c20 41 56 63 101 63c48 0 83 -23 101 -69h2c18 44 54 69 105 69z" />
    <glyph glyph-name="n.sups" horiz-adv-x="378" 
d="M216 664c68 0 120 -42 120 -134v-182h-63v168c0 61 -32 89 -80 89c-45 0 -88 -26 -88 -108v-149h-63v306h61v-58h2c22 44 59 68 111 68z" />
    <glyph glyph-name="o.sups" horiz-adv-x="405" 
d="M203 664c96 0 170 -63 170 -163s-74 -163 -170 -163c-97 0 -171 63 -171 163s74 163 171 163zM203 605c-58 0 -105 -38 -105 -104s47 -104 105 -104c57 0 104 38 104 104s-47 104 -104 104z" />
    <glyph glyph-name="p.sups" horiz-adv-x="411" 
d="M105 216h-63v438h63v-56h2c22 42 64 66 119 66c87 0 153 -58 153 -163s-66 -163 -153 -163c-55 0 -97 24 -119 66h-2v-188zM210 396c59 0 101 41 101 105s-42 105 -101 105s-105 -41 -105 -105s46 -105 105 -105z" />
    <glyph glyph-name="q.sups" horiz-adv-x="411" 
d="M369 216h-64v188h-2c-21 -42 -64 -66 -119 -66c-86 0 -152 58 -152 163s66 163 152 163c55 0 98 -24 119 -66h2v56h64v-438zM200 396c59 0 105 41 105 105s-46 105 -105 105s-101 -41 -101 -105s42 -105 101 -105z" />
    <glyph glyph-name="r.sups" horiz-adv-x="227" 
d="M207 662h8v-66h-14c-68 0 -96 -31 -96 -109v-139h-63v306h61v-62h2c13 43 52 70 102 70z" />
    <glyph glyph-name="s.sups" horiz-adv-x="304" 
d="M164 664c33 0 70 -8 106 -25l-27 -53c-27 14 -54 23 -83 23c-28 0 -44 -9 -44 -28c0 -16 12 -25 36 -37l59 -28c38 -19 66 -40 66 -87c0 -60 -44 -91 -117 -91c-47 0 -93 13 -133 36l29 54c33 -20 68 -34 107 -34c35 0 51 11 51 30c0 17 -11 25 -32 35l-59 29
c-47 23 -70 51 -70 91c0 52 38 85 111 85z" />
    <glyph glyph-name="t.sups" horiz-adv-x="241" 
d="M216 654v-55h-70v-151c0 -28 11 -40 37 -40h19v-60h-31c-54 0 -88 28 -88 94v157h-66v55h66v121h63v-121h70z" />
    <glyph glyph-name="u.sups" horiz-adv-x="379" 
d="M268 654h63v-306h-61v55h-2c-18 -36 -52 -65 -107 -65c-69 0 -119 39 -119 128v188h65v-173c0 -60 33 -85 76 -85c51 0 85 37 85 117v141z" />
    <glyph glyph-name="v.sups" horiz-adv-x="349" 
d="M264 654h73l-129 -306h-67l-129 306h73l89 -241z" />
    <glyph glyph-name="w.sups" horiz-adv-x="530" 
d="M452 654h66l-109 -306h-60l-84 226l-84 -226h-59l-110 306h66l74 -224l80 224h66l81 -224z" />
    <glyph glyph-name="x.sups" horiz-adv-x="355" 
d="M343 348h-75l-91 114l-91 -114h-74l126 158l-118 148h75l82 -104l82 104h75l-117 -148z" />
    <glyph glyph-name="y.sups" horiz-adv-x="347" 
d="M177 452l92 202h66l-199 -438h-67l76 166l-133 272h75z" />
    <glyph glyph-name="z.sups" horiz-adv-x="323" 
d="M38 654h250l-1 -50l-183 -200h194v-56h-273v51l181 199h-168v56z" />
    <glyph glyph-name="uni24FF" unicode="&#x24ff;" horiz-adv-x="830" 
d="M415 -15c-210 0 -365 157 -365 365s155 365 365 365s365 -157 365 -365s-155 -365 -365 -365zM416 150c95 0 160 74 160 203c0 128 -65 201 -160 201c-98 0 -162 -73 -162 -201c0 -129 64 -203 162 -203zM415 197c-70 0 -112 63 -112 156c0 92 42 155 112 155
s112 -63 112 -155c0 -93 -42 -156 -112 -156z" />
    <glyph glyph-name="uni2776" unicode="&#x2776;" horiz-adv-x="830" 
d="M415 -15c-210 0 -365 157 -365 365s155 365 365 365s365 -157 365 -365s-155 -365 -365 -365zM404 502v-339h46v386h-90v-47h44z" />
    <glyph glyph-name="uni2777" unicode="&#x2777;" horiz-adv-x="830" 
d="M415 -15c-210 0 -365 157 -365 365s155 365 365 365s365 -157 365 -365s-155 -365 -365 -365zM287 214l1 -42h252v46h-184l117 115c38 38 65 75 65 124c0 63 -39 110 -121 110c-77 0 -124 -39 -128 -111h49c4 44 34 64 79 64c48 0 71 -29 71 -63c0 -36 -25 -68 -55 -97z
" />
    <glyph glyph-name="uni2778" unicode="&#x2778;" horiz-adv-x="830" 
d="M415 -15c-210 0 -365 157 -365 365s155 365 365 365s365 -157 365 -365s-155 -365 -365 -365zM413 161c100 0 139 51 139 115s-35 94 -88 101v1c45 11 72 45 72 88c0 59 -44 99 -121 99c-78 0 -123 -40 -127 -106h48c4 42 34 59 78 59c47 0 72 -20 72 -59
c0 -45 -37 -62 -97 -64v-44c69 0 115 -15 115 -71c0 -51 -36 -73 -91 -73c-47 0 -83 22 -86 66h-50c4 -74 59 -112 136 -112z" />
    <glyph glyph-name="uni2779" unicode="&#x2779;" horiz-adv-x="830" 
d="M415 -15c-210 0 -365 157 -365 365s155 365 365 365s365 -157 365 -365s-155 -365 -365 -365zM449 245v-75h48v75h48v44h-48v267h-62l-192 -268v-43h206zM449 289h-153l151 211h2v-211z" />
    <glyph glyph-name="uni277A" unicode="&#x277a;" horiz-adv-x="830" 
d="M415 -15c-210 0 -365 157 -365 365s155 365 365 365s365 -157 365 -365s-155 -365 -365 -365zM410 152c81 0 137 48 137 133c0 89 -62 130 -122 130c-37 0 -67 -15 -82 -33h-3l15 119h172v46h-208l-26 -214h43c18 23 48 37 80 37c45 0 82 -29 82 -85
c0 -52 -31 -86 -87 -86c-48 0 -77 22 -97 58l-39 -27c26 -53 75 -78 135 -78z" />
    <glyph glyph-name="uni277B" unicode="&#x277b;" horiz-adv-x="830" 
d="M415 -15c-210 0 -365 157 -365 365s155 365 365 365s365 -157 365 -365s-155 -365 -365 -365zM413 157c84 0 138 57 138 136c0 80 -57 129 -127 129c-33 0 -58 -11 -81 -33l-1 2l144 170h-60l-85 -106c-38 -44 -68 -87 -68 -159c0 -93 64 -139 140 -139zM413 204
c-52 0 -91 31 -91 87c0 55 39 87 91 87c50 0 89 -32 89 -87c0 -56 -37 -87 -89 -87z" />
    <glyph glyph-name="uni277C" unicode="&#x277c;" horiz-adv-x="830" 
d="M415 -15c-210 0 -365 157 -365 365s155 365 365 365s365 -157 365 -365s-155 -365 -365 -365zM496 492l-172 -339h51l172 341v45h-247v-47h196z" />
    <glyph glyph-name="uni277D" unicode="&#x277d;" horiz-adv-x="830" 
d="M415 -15c-210 0 -365 157 -365 365s155 365 365 365s365 -157 365 -365s-155 -365 -365 -365zM416 154c89 0 135 51 135 112c0 56 -33 89 -75 101v2c34 11 63 39 63 88c0 58 -45 101 -123 101c-79 0 -124 -43 -124 -101c0 -49 29 -77 63 -88v-2c-42 -12 -75 -45 -75 -101
c0 -61 46 -112 136 -112zM416 390c-45 0 -75 25 -75 62s31 59 75 59s74 -22 74 -59s-30 -62 -74 -62zM416 201c-56 0 -87 25 -87 71c0 45 33 73 87 73c53 0 86 -28 86 -73c0 -46 -31 -71 -86 -71z" />
    <glyph glyph-name="uni277E" unicode="&#x277e;" horiz-adv-x="830" 
d="M415 -15c-210 0 -365 157 -365 365s155 365 365 365s365 -157 365 -365s-155 -365 -365 -365zM488 322l-144 -168h62l92 110c47 57 57 101 57 148c0 86 -56 136 -139 136c-86 0 -137 -60 -137 -134s52 -127 123 -127c34 0 55 13 85 36zM418 330c-55 0 -90 33 -90 84
c0 55 37 88 91 88c53 0 87 -33 87 -84c0 -54 -34 -88 -88 -88z" />
    <glyph glyph-name="uni24EA" unicode="&#x24ea;" horiz-adv-x="830" 
d="M415 -15c-215 0 -365 154 -365 365s150 365 365 365s365 -154 365 -365s-150 -365 -365 -365zM415 28c185 0 318 137 318 322s-133 322 -318 322s-318 -137 -318 -322s133 -322 318 -322zM416 150c-98 0 -162 74 -162 203c0 128 64 201 162 201c95 0 160 -73 160 -201
c0 -129 -65 -203 -160 -203zM415 197c70 0 112 63 112 156c0 92 -42 155 -112 155s-112 -63 -112 -155c0 -93 42 -156 112 -156z" />
    <glyph glyph-name="uni2460" unicode="&#x2460;" horiz-adv-x="830" 
d="M415 -15c-215 0 -365 154 -365 365s150 365 365 365s365 -154 365 -365s-150 -365 -365 -365zM415 28c185 0 318 137 318 322s-133 322 -318 322s-318 -137 -318 -322s133 -322 318 -322zM450 162h-46v340h-44v46h90v-386z" />
    <glyph glyph-name="uni2461" unicode="&#x2461;" horiz-adv-x="830" 
d="M415 -15c-215 0 -365 154 -365 365s150 365 365 365s365 -154 365 -365s-150 -365 -365 -365zM415 28c185 0 318 137 318 322s-133 322 -318 322s-318 -137 -318 -322s133 -322 318 -322zM547 176h-251l-1 42l146 146c30 29 55 61 55 97c0 34 -23 63 -71 63
c-46 0 -75 -20 -80 -64h-48c4 72 51 111 128 111c82 0 121 -47 121 -110c0 -49 -28 -86 -66 -124l-117 -115h184v-46z" />
    <glyph glyph-name="uni2462" unicode="&#x2462;" horiz-adv-x="830" 
d="M415 -15c-215 0 -365 154 -365 365s150 365 365 365s365 -154 365 -365s-150 -365 -365 -365zM415 28c185 0 318 137 318 322s-133 322 -318 322s-318 -137 -318 -322s133 -322 318 -322zM416 158c-77 0 -132 39 -136 113h49c4 -45 40 -66 87 -66c55 0 91 21 91 72
c0 57 -47 72 -116 72v44c61 2 98 19 98 64c0 39 -26 59 -72 59c-44 0 -74 -18 -78 -60h-48c4 67 49 106 127 106c76 0 120 -39 120 -98c0 -44 -26 -78 -71 -88v-1c52 -7 88 -38 88 -101c0 -64 -39 -116 -139 -116z" />
    <glyph glyph-name="uni2463" unicode="&#x2463;" horiz-adv-x="830" 
d="M415 715c215 0 365 -154 365 -365s-150 -365 -365 -365s-365 154 -365 365s150 365 365 365zM415 28c185 0 318 137 318 322s-133 322 -318 322s-318 -137 -318 -322s133 -322 318 -322zM439 552h62v-267h48v-44h-48v-75h-48v75h-206v43zM451 496l-151 -211h153v211h-2z
" />
    <glyph glyph-name="uni2464" unicode="&#x2464;" horiz-adv-x="830" 
d="M415 -15c-215 0 -365 154 -365 365s150 365 365 365s365 -154 365 -365s-150 -365 -365 -365zM415 28c185 0 318 137 318 322s-133 322 -318 322s-318 -137 -318 -322s133 -322 318 -322zM418 152c-60 0 -109 25 -135 78l39 27c20 -36 49 -58 97 -58c56 0 87 34 87 86
c0 56 -37 85 -82 85c-32 0 -62 -14 -80 -37h-43l26 214h203v-46h-167l-15 -119h3c15 18 45 33 82 33c60 0 122 -41 122 -130c0 -85 -56 -133 -137 -133z" />
    <glyph glyph-name="uni2465" unicode="&#x2465;" horiz-adv-x="830" 
d="M415 -15c-215 0 -365 154 -365 365s150 365 365 365s365 -154 365 -365s-150 -365 -365 -365zM415 28c185 0 318 137 318 322s-133 322 -318 322s-318 -137 -318 -322s133 -322 318 -322zM414 155c-76 0 -140 46 -140 138c0 73 30 116 68 160l85 105h60l-144 -169l1 -2
c23 22 48 33 81 33c70 0 127 -49 127 -130c0 -78 -54 -135 -138 -135zM414 201c52 0 89 32 89 88c0 54 -39 87 -89 87c-52 0 -91 -33 -91 -87c0 -56 39 -88 91 -88z" />
    <glyph glyph-name="uni2466" unicode="&#x2466;" horiz-adv-x="830" 
d="M415 -15c-215 0 -365 154 -365 365s150 365 365 365s365 -154 365 -365s-150 -365 -365 -365zM415 28c185 0 318 137 318 322s-133 322 -318 322s-318 -137 -318 -322s133 -322 318 -322zM383 153h-51l171 339h-195v47h247v-45z" />
    <glyph glyph-name="uni2467" unicode="&#x2467;" horiz-adv-x="830" 
d="M415 -15c-215 0 -365 154 -365 365s150 365 365 365s365 -154 365 -365s-150 -365 -365 -365zM415 28c185 0 318 137 318 322s-133 322 -318 322s-318 -137 -318 -322s133 -322 318 -322zM416 154c-90 0 -136 51 -136 114c0 56 33 87 75 99v2c-34 11 -63 39 -63 88
c0 58 45 101 124 101c78 0 123 -43 123 -101c0 -49 -29 -77 -63 -88v-2c42 -12 75 -43 75 -99c0 -63 -46 -114 -135 -114zM416 390c44 0 74 25 74 62s-30 59 -74 59s-75 -22 -75 -59s30 -62 75 -62zM416 201c55 0 86 26 86 72c0 45 -33 72 -86 72c-54 0 -87 -27 -87 -72
c0 -46 31 -72 87 -72z" />
    <glyph glyph-name="uni2468" unicode="&#x2468;" horiz-adv-x="830" 
d="M415 -15c-215 0 -365 154 -365 365s150 365 365 365s365 -154 365 -365s-150 -365 -365 -365zM415 28c185 0 318 137 318 322s-133 322 -318 322s-318 -137 -318 -322s133 -322 318 -322zM413 155h-62l144 167l-1 2c-30 -23 -51 -36 -85 -36c-71 0 -123 53 -123 126
c0 75 51 135 137 135c83 0 139 -51 139 -137c0 -46 -10 -90 -57 -148zM425 331c55 0 88 34 88 87c0 52 -34 84 -87 84s-91 -33 -91 -87c0 -52 35 -84 90 -84z" />
    <glyph glyph-name="uni2080" unicode="&#x2080;" horiz-adv-x="430" 
d="M215 -120c-105 0 -177 82 -177 233s72 232 177 232s177 -81 177 -232s-72 -233 -177 -233zM215 -56c67 0 110 64 110 169c0 106 -43 169 -110 169s-110 -63 -110 -169s43 -169 110 -169z" />
    <glyph glyph-name="uni2081" unicode="&#x2081;" horiz-adv-x="233" 
d="M158 -110h-70v380h-31v66h101v-446z" />
    <glyph glyph-name="uni2082" unicode="&#x2082;" horiz-adv-x="372" 
d="M340 -110h-301v58l170 165c39 36 60 66 60 104c0 40 -29 67 -79 67c-43 0 -84 -20 -86 -79h-66c1 96 64 141 154 141c93 0 144 -50 144 -128c0 -61 -34 -104 -73 -141l-130 -124h207v-63z" />
    <glyph glyph-name="uni2083" unicode="&#x2083;" horiz-adv-x="392" 
d="M192 -120c-86 0 -153 35 -155 130h66c4 -42 33 -68 92 -68c58 0 94 24 94 78c0 59 -43 76 -126 76v55c70 1 109 18 109 67c0 44 -28 65 -77 65c-48 0 -84 -19 -86 -67h-66c1 79 57 129 153 129c92 0 144 -46 144 -114c0 -48 -26 -90 -84 -101v-2c55 -8 99 -40 99 -113
c0 -74 -46 -135 -163 -135z" />
    <glyph glyph-name="uni2084" unicode="&#x2084;" horiz-adv-x="406" 
d="M319 37h57v-65h-57v-82h-63v82h-236v54l228 310h71v-299zM253 249l-156 -212h159v212h-3z" />
    <glyph glyph-name="uni2085" unicode="&#x2085;" horiz-adv-x="392" 
d="M192 -120c-67 0 -124 26 -157 85l50 42c27 -48 66 -66 109 -66c63 0 92 39 92 95c0 62 -38 90 -90 90c-39 0 -67 -17 -86 -43h-56l30 253h234v-64h-183l-16 -120h2c18 14 46 30 88 30c77 0 145 -48 145 -149c0 -94 -59 -153 -162 -153z" />
    <glyph glyph-name="uni2086" unicode="&#x2086;" horiz-adv-x="390" 
d="M196 -120c-87 0 -164 58 -164 160c0 60 19 107 71 174l101 130h85l-165 -191l2 -1c23 23 53 36 87 36c81 0 147 -54 147 -155c0 -82 -61 -153 -164 -153zM198 -58c54 0 96 35 96 95s-43 94 -96 94c-55 0 -98 -36 -98 -94c0 -60 43 -95 98 -95z" />
    <glyph glyph-name="uni2087" unicode="&#x2087;" horiz-adv-x="337" 
d="M119 -110h-73l191 380h-220v66h293v-62z" />
    <glyph glyph-name="uni2088" unicode="&#x2088;" horiz-adv-x="402" 
d="M201 -120c-108 0 -163 54 -163 131c0 65 38 102 88 115v2c-42 12 -75 48 -75 101c0 69 54 116 150 116c97 0 150 -47 150 -116c0 -53 -32 -89 -74 -101v-2c50 -13 87 -50 87 -115c0 -77 -54 -131 -163 -131zM201 155c49 0 82 27 82 67c0 45 -34 68 -82 68
s-81 -23 -81 -68c0 -40 32 -67 81 -67zM201 -62c57 0 95 31 95 80c0 46 -35 81 -95 81s-95 -35 -95 -81c0 -49 38 -80 95 -80z" />
    <glyph glyph-name="uni2089" unicode="&#x2089;" horiz-adv-x="389" 
d="M187 -110h-83l161 180l-2 2c-25 -20 -56 -32 -90 -32c-79 0 -143 63 -143 149c0 88 66 156 163 156c93 0 166 -59 166 -161c0 -63 -23 -118 -78 -183zM194 96c55 0 97 36 97 94s-42 94 -96 94c-55 0 -98 -36 -98 -95c0 -57 42 -93 97 -93z" />
    <glyph glyph-name="zero.dnom" horiz-adv-x="384" 
d="M193 395c96 0 161 -73 161 -201c0 -129 -65 -203 -161 -203c-98 0 -162 74 -162 203c0 128 64 201 162 201zM192 349c-70 0 -112 -63 -112 -155c0 -93 42 -156 112 -156c71 0 112 63 112 156c0 92 -41 155 -112 155z" />
    <glyph glyph-name="one.dnom" horiz-adv-x="200" 
d="M40 386h90v-386h-47v339h-43v47z" />
    <glyph glyph-name="two.dnom" horiz-adv-x="334" 
d="M170 395c83 0 122 -47 122 -110c0 -49 -28 -87 -66 -124l-116 -115h183v-46h-252v42l146 146c29 29 55 61 55 97c0 34 -24 63 -72 63c-45 0 -74 -22 -79 -71h-48c3 77 53 118 127 118z" />
    <glyph glyph-name="three.dnom" horiz-adv-x="348" 
d="M173 395c79 0 122 -38 122 -99c0 -46 -28 -77 -75 -88v-1c52 -7 88 -37 88 -100c0 -65 -39 -116 -139 -116c-81 0 -132 40 -136 113h49c5 -44 37 -66 87 -66c55 0 90 21 90 72c0 56 -46 71 -115 71v45c63 1 102 19 102 64c0 39 -26 58 -74 58c-46 0 -81 -19 -83 -66h-48
c4 74 50 113 132 113z" />
    <glyph glyph-name="four.dnom" horiz-adv-x="354" 
d="M279 119h48v-44h-48v-75h-48v75h-206v43l192 268h62v-267zM229 332l-151 -213h153v213h-2z" />
    <glyph glyph-name="five.dnom" horiz-adv-x="337" 
d="M180 254c60 0 122 -41 122 -130c0 -85 -56 -133 -137 -133c-61 0 -109 25 -135 78l39 27c20 -36 48 -58 97 -58c56 0 87 34 87 86c0 56 -37 85 -82 85c-38 0 -63 -14 -80 -37h-43l26 214h199v-46h-163l-15 -119h3c15 18 45 33 82 33z" />
    <glyph glyph-name="six.dnom" horiz-adv-x="343" 
d="M175 -9c-76 0 -140 46 -140 139c0 72 30 115 67 159l86 106h60l-144 -170l1 -2c23 22 48 33 81 33c70 0 127 -48 127 -129c0 -79 -54 -136 -138 -136zM175 38c52 0 89 31 89 87c0 55 -39 87 -89 87c-52 0 -91 -32 -91 -87c0 -56 39 -87 91 -87z" />
    <glyph glyph-name="seven.dnom" horiz-adv-x="287" 
d="M20 386h247v-45l-172 -341h-51l172 339h-196v47z" />
    <glyph glyph-name="eight.dnom" horiz-adv-x="356" 
d="M178 -9c-89 0 -135 50 -135 113c0 59 33 89 75 100v2c-34 10 -63 37 -63 88c0 58 44 101 123 101s124 -43 124 -101c0 -51 -30 -78 -64 -88v-2c42 -11 75 -41 75 -100c0 -63 -45 -113 -135 -113zM178 227c45 0 74 25 74 62s-30 59 -74 59s-74 -22 -74 -59s29 -62 74 -62z
M178 38c56 0 87 26 87 72c0 45 -33 72 -87 72c-53 0 -86 -27 -86 -72c0 -46 31 -72 86 -72z" />
    <glyph glyph-name="nine.dnom" horiz-adv-x="341" 
d="M157 0h-62l144 168l-1 1c-30 -23 -51 -36 -86 -36c-70 0 -122 53 -122 127s50 134 139 134c81 0 137 -49 137 -140c0 -42 -12 -90 -57 -144zM168 176c55 0 89 34 89 87s-34 85 -87 85c-54 0 -91 -34 -91 -88c0 -51 35 -84 89 -84z" />
    <glyph glyph-name="zero.numr" horiz-adv-x="384" 
d="M193 684c96 0 161 -73 161 -201c0 -129 -65 -203 -161 -203c-98 0 -162 74 -162 203c0 128 64 201 162 201zM192 638c-70 0 -112 -63 -112 -155c0 -93 42 -156 112 -156c71 0 112 63 112 156c0 92 -41 155 -112 155z" />
    <glyph glyph-name="one.numr" horiz-adv-x="200" 
d="M40 675h90v-386h-47v339h-43v47z" />
    <glyph glyph-name="two.numr" horiz-adv-x="334" 
d="M170 684c83 0 122 -47 122 -110c0 -49 -28 -87 -66 -124l-116 -115h183v-46h-252v42l146 146c29 29 55 61 55 97c0 34 -24 63 -72 63c-45 0 -74 -22 -79 -71h-48c3 77 53 118 127 118z" />
    <glyph glyph-name="three.numr" horiz-adv-x="348" 
d="M173 684c79 0 122 -38 122 -99c0 -46 -28 -77 -75 -88v-1c52 -7 88 -37 88 -100c0 -65 -39 -116 -139 -116c-81 0 -132 40 -136 113h49c5 -44 37 -66 87 -66c55 0 90 21 90 72c0 56 -46 71 -115 71v45c63 1 102 19 102 64c0 39 -26 58 -74 58c-46 0 -81 -19 -83 -66h-48
c4 74 50 113 132 113z" />
    <glyph glyph-name="four.numr" horiz-adv-x="354" 
d="M279 408h48v-44h-48v-75h-48v75h-206v43l192 268h62v-267zM229 621l-151 -213h153v213h-2z" />
    <glyph glyph-name="five.numr" horiz-adv-x="337" 
d="M180 543c60 0 122 -41 122 -130c0 -85 -56 -133 -137 -133c-61 0 -109 25 -135 78l39 27c20 -36 48 -58 97 -58c56 0 87 34 87 86c0 56 -37 85 -82 85c-38 0 -63 -14 -80 -37h-43l26 214h199v-46h-163l-15 -119h3c15 18 45 33 82 33z" />
    <glyph glyph-name="six.numr" horiz-adv-x="343" 
d="M175 280c-76 0 -140 46 -140 139c0 72 30 115 67 159l86 106h60l-144 -170l1 -2c23 22 48 33 81 33c70 0 127 -48 127 -129c0 -79 -54 -136 -138 -136zM175 327c52 0 89 31 89 87c0 55 -39 87 -89 87c-52 0 -91 -32 -91 -87c0 -56 39 -87 91 -87z" />
    <glyph glyph-name="seven.numr" horiz-adv-x="287" 
d="M20 675h247v-45l-172 -341h-51l172 339h-196v47z" />
    <glyph glyph-name="eight.numr" horiz-adv-x="356" 
d="M178 280c-89 0 -135 50 -135 113c0 59 33 89 75 100v2c-34 10 -63 37 -63 88c0 58 44 101 123 101s124 -43 124 -101c0 -51 -30 -78 -64 -88v-2c42 -11 75 -41 75 -100c0 -63 -45 -113 -135 -113zM178 516c45 0 74 25 74 62s-30 59 -74 59s-74 -22 -74 -59s29 -62 74 -62
zM178 327c56 0 87 26 87 72c0 45 -33 72 -87 72c-53 0 -86 -27 -86 -72c0 -46 31 -72 86 -72z" />
    <glyph glyph-name="nine.numr" horiz-adv-x="341" 
d="M157 289h-62l144 168l-1 1c-30 -23 -51 -36 -86 -36c-70 0 -122 53 -122 127s50 134 139 134c81 0 137 -49 137 -140c0 -42 -12 -90 -57 -144zM168 465c55 0 89 34 89 87s-34 85 -87 85c-54 0 -91 -34 -91 -88c0 -51 35 -84 89 -84z" />
    <glyph glyph-name="uni2070" unicode="&#x2070;" horiz-adv-x="430" 
d="M215 338c-105 0 -177 82 -177 233s72 232 177 232s177 -81 177 -232s-72 -233 -177 -233zM215 402c67 0 110 64 110 169c0 106 -43 169 -110 169s-110 -63 -110 -169s43 -169 110 -169z" />
    <glyph glyph-name="uni00B9" unicode="&#xb9;" horiz-adv-x="233" 
d="M158 348h-70v380h-31v66h101v-446z" />
    <glyph glyph-name="uni00B2" unicode="&#xb2;" horiz-adv-x="372" 
d="M340 348h-301v58l170 165c39 36 60 66 60 104c0 40 -29 67 -79 67c-43 0 -84 -20 -86 -79h-66c1 96 64 141 154 141c93 0 144 -50 144 -128c0 -61 -34 -104 -73 -141l-130 -124h207v-63z" />
    <glyph glyph-name="uni00B3" unicode="&#xb3;" horiz-adv-x="392" 
d="M192 338c-86 0 -153 35 -155 130h66c4 -42 33 -68 92 -68c58 0 94 24 94 78c0 59 -43 76 -126 76v55c70 1 109 18 109 67c0 44 -28 65 -77 65c-48 0 -84 -19 -86 -67h-66c1 79 57 129 153 129c92 0 144 -46 144 -114c0 -48 -26 -90 -84 -101v-2c55 -8 99 -40 99 -113
c0 -74 -46 -135 -163 -135z" />
    <glyph glyph-name="uni2074" unicode="&#x2074;" horiz-adv-x="406" 
d="M319 495h57v-65h-57v-82h-63v82h-236v54l228 310h71v-299zM253 707l-156 -212h159v212h-3z" />
    <glyph glyph-name="uni2075" unicode="&#x2075;" horiz-adv-x="392" 
d="M192 338c-67 0 -124 26 -157 85l50 42c27 -48 66 -66 109 -66c63 0 92 39 92 95c0 62 -38 90 -90 90c-39 0 -67 -17 -86 -43h-56l30 253h234v-64h-183l-16 -120h2c18 14 46 30 88 30c77 0 145 -48 145 -149c0 -94 -59 -153 -162 -153z" />
    <glyph glyph-name="uni2076" unicode="&#x2076;" horiz-adv-x="390" 
d="M196 338c-87 0 -164 58 -164 160c0 60 19 107 71 174l101 130h85l-165 -191l2 -1c23 23 53 36 87 36c81 0 147 -54 147 -155c0 -82 -61 -153 -164 -153zM198 400c54 0 96 35 96 95s-43 94 -96 94c-55 0 -98 -36 -98 -94c0 -60 43 -95 98 -95z" />
    <glyph glyph-name="uni2077" unicode="&#x2077;" horiz-adv-x="337" 
d="M119 348h-73l191 380h-220v66h293v-62z" />
    <glyph glyph-name="uni2078" unicode="&#x2078;" horiz-adv-x="402" 
d="M201 338c-108 0 -163 54 -163 131c0 65 38 102 88 115v2c-42 12 -75 48 -75 101c0 69 54 116 150 116c97 0 150 -47 150 -116c0 -53 -32 -89 -74 -101v-2c50 -13 87 -50 87 -115c0 -77 -54 -131 -163 -131zM201 613c49 0 82 27 82 67c0 45 -34 68 -82 68s-81 -23 -81 -68
c0 -40 32 -67 81 -67zM201 396c57 0 95 31 95 80c0 46 -35 81 -95 81s-95 -35 -95 -81c0 -49 38 -80 95 -80z" />
    <glyph glyph-name="uni2079" unicode="&#x2079;" horiz-adv-x="389" 
d="M187 348h-83l161 180l-2 2c-25 -20 -56 -32 -90 -32c-79 0 -143 63 -143 149c0 88 66 156 163 156c93 0 166 -59 166 -161c0 -63 -23 -118 -78 -183zM194 554c55 0 97 36 97 94s-42 94 -96 94c-55 0 -98 -36 -98 -95c0 -57 42 -93 97 -93z" />
    <glyph glyph-name="colon.case" horiz-adv-x="213" 
d="M56 517h102v-102h-102v102zM56 103h102v-103h-102v103z" />
    <glyph glyph-name="semicolon.case" horiz-adv-x="213" 
d="M56 517h102v-102h-102v102zM56 103h102v-103l-63 -142h-40l50 142h-49v103z" />
    <glyph glyph-name="exclamdown.case" horiz-adv-x="303" 
d="M203 598h-102v103h102v-103zM194 1h-84l17 494h50z" />
    <glyph glyph-name="questiondown.case" horiz-adv-x="430" 
d="M282 597h-102v103h102v-103zM215 -15c-123 0 -195 74 -195 181c0 75 38 120 79 159c46 42 95 77 95 145v24h72v-29c0 -89 -58 -133 -111 -185c-33 -32 -59 -67 -59 -116c0 -58 36 -108 119 -108c81 0 131 51 131 130h74c0 -127 -80 -201 -205 -201z" />
    <glyph glyph-name="periodcentered.loclCAT.case" horiz-adv-x="0" 
d="M-176 468h103v-103h-103v103z" />
    <glyph glyph-name="periodcentered.loclCAT.ss01.case" horiz-adv-x="0" 
d="M-132 481c37 0 63 -26 63 -63c0 -36 -26 -63 -63 -63c-36 0 -63 27 -63 63c0 37 27 63 63 63z" />
    <glyph glyph-name="periodcentered.loclCAT" horiz-adv-x="53" 
d="M-24 418h102v-103h-102v103z" />
    <glyph glyph-name="period.ss01" horiz-adv-x="213" 
d="M106 116c37 0 63 -27 63 -63s-26 -63 -63 -63c-36 0 -63 27 -63 63s27 63 63 63z" />
    <glyph glyph-name="comma.ss01" horiz-adv-x="213" 
d="M169 51c0 -14 -5 -29 -13 -44l-75 -143h-37l46 127c-31 7 -48 32 -48 60c0 36 27 63 63 63c38 0 64 -27 64 -63z" />
    <glyph glyph-name="colon.ss01" horiz-adv-x="213" 
d="M106 477c37 0 63 -27 63 -63s-26 -63 -63 -63c-36 0 -63 27 -63 63s27 63 63 63zM106 116c37 0 63 -27 63 -63s-26 -63 -63 -63c-36 0 -63 27 -63 63s27 63 63 63z" />
    <glyph glyph-name="semicolon.ss01" horiz-adv-x="213" 
d="M106 477c37 0 63 -27 63 -63s-26 -63 -63 -63c-36 0 -63 27 -63 63s27 63 63 63zM169 51c0 -14 -5 -29 -13 -44l-75 -143h-37l46 127c-31 7 -48 32 -48 60c0 36 27 63 63 63c38 0 64 -27 64 -63z" />
    <glyph glyph-name="ellipsis.ss01" horiz-adv-x="685" 
d="M106 116c37 0 63 -27 63 -63s-26 -63 -63 -63c-36 0 -63 27 -63 63s27 63 63 63zM342 116c37 0 63 -27 63 -63s-26 -63 -63 -63c-36 0 -63 27 -63 63s27 63 63 63zM578 116c37 0 63 -27 63 -63s-26 -63 -63 -63c-36 0 -63 27 -63 63s27 63 63 63z" />
    <glyph glyph-name="exclam.ss01" horiz-adv-x="303" 
d="M109 700h84l-17 -494h-50zM151 116c37 0 63 -27 63 -63s-26 -63 -63 -63c-36 0 -63 27 -63 63s27 63 63 63z" />
    <glyph glyph-name="exclamdown.ss01" horiz-adv-x="303" 
d="M152 383c-37 0 -64 27 -64 63s27 63 64 63c36 0 62 -27 62 -63s-26 -63 -62 -63zM193 -201h-84l17 494h50z" />
    <glyph glyph-name="question.ss01" horiz-adv-x="470" 
d="M233 715c123 0 197 -75 197 -181c0 -75 -38 -120 -79 -159c-46 -42 -95 -77 -95 -145v-24h-72v29c0 89 58 133 112 185c32 32 59 67 59 116c0 57 -39 108 -122 108c-81 0 -129 -51 -129 -130h-74c0 127 80 201 203 201zM218 116c37 0 64 -27 64 -63s-27 -63 -64 -63
c-36 0 -62 27 -62 63s26 63 62 63z" />
    <glyph glyph-name="questiondown.ss01" horiz-adv-x="410" 
d="M232 383c-36 0 -63 27 -63 63s27 63 63 63s63 -27 63 -63s-27 -63 -63 -63zM217 -216c-123 0 -197 75 -197 181c0 75 38 120 79 159c46 42 95 77 95 145v24h72v-29c0 -89 -58 -133 -111 -185c-33 -32 -59 -67 -59 -116c0 -57 38 -108 121 -108c81 0 129 51 129 130h74
c0 -127 -79 -201 -203 -201z" />
    <glyph glyph-name="periodcentered.ss01" horiz-adv-x="236" 
d="M118 477c37 0 64 -27 64 -63s-27 -63 -64 -63c-36 0 -62 27 -62 63s26 63 62 63z" />
    <glyph glyph-name="colon.case.ss01" horiz-adv-x="213" 
d="M106 524c37 0 63 -27 63 -64c0 -36 -26 -62 -63 -62c-36 0 -63 26 -63 62c0 37 27 64 63 64zM106 116c37 0 63 -27 63 -63s-26 -63 -63 -63c-36 0 -63 27 -63 63s27 63 63 63z" />
    <glyph glyph-name="semicolon.case.ss01" horiz-adv-x="213" 
d="M107 524c36 0 63 -27 63 -64c0 -36 -27 -62 -63 -62s-63 26 -63 62c0 37 27 64 63 64zM170 51c0 -14 -5 -29 -14 -44l-74 -143h-37l45 127c-30 7 -47 32 -47 60c0 36 26 63 63 63c38 0 64 -27 64 -63z" />
    <glyph glyph-name="exclamdown.case.ss01" horiz-adv-x="303" 
d="M152 584c-37 0 -64 27 -64 63s27 63 64 63c36 0 62 -27 62 -63s-26 -63 -62 -63zM193 0h-84l17 494h50z" />
    <glyph glyph-name="questiondown.case.ss01" horiz-adv-x="430" 
d="M232 584c-36 0 -63 27 -63 63s27 63 63 63s63 -27 63 -63s-27 -63 -63 -63zM217 -15c-123 0 -197 75 -197 181c0 75 38 120 79 159c46 42 95 77 95 145v24h72v-29c0 -89 -58 -133 -111 -185c-33 -32 -59 -67 -59 -116c0 -57 38 -108 121 -108c81 0 129 51 129 130h74
c0 -127 -79 -201 -203 -201z" />
    <glyph glyph-name="periodcentered.loclCAT.ss01" horiz-adv-x="53" 
d="M26 431c37 0 63 -26 63 -63c0 -36 -26 -63 -63 -63c-36 0 -63 27 -63 63c0 37 27 63 63 63z" />
    <glyph glyph-name="uni208D" unicode="&#x208d;" horiz-adv-x="232" 
d="M143 385l47 -28c-40 -57 -76 -131 -76 -235c0 -112 37 -197 77 -258l-48 -27c-45 72 -85 156 -85 285c0 120 39 195 85 263z" />
    <glyph glyph-name="uni208E" unicode="&#x208e;" horiz-adv-x="232" 
d="M89 -163l-48 27c40 61 77 146 77 258c0 104 -36 178 -76 235l47 28c45 -68 85 -143 85 -263c0 -129 -41 -213 -85 -285z" />
    <glyph glyph-name="uni207D" unicode="&#x207d;" horiz-adv-x="232" 
d="M143 840l47 -28c-40 -57 -76 -131 -76 -235c0 -112 37 -197 77 -258l-48 -27c-45 72 -85 156 -85 285c0 120 39 195 85 263z" />
    <glyph glyph-name="uni207E" unicode="&#x207e;" horiz-adv-x="232" 
d="M89 292l-48 27c40 61 77 146 77 258c0 104 -36 178 -76 235l47 28c45 -68 85 -143 85 -263c0 -129 -41 -213 -85 -285z" />
    <glyph glyph-name="parenleft.case" horiz-adv-x="283" 
d="M210 833l56 -41c-104 -137 -152 -271 -152 -443c0 -175 48 -314 149 -453l-55 -41c-99 136 -166 282 -166 494c0 209 67 351 168 484z" />
    <glyph glyph-name="parenright.case" horiz-adv-x="283" 
d="M75 -145l-56 41c102 139 150 278 150 453c0 172 -48 306 -152 443l56 41c101 -133 168 -275 168 -484c0 -212 -67 -358 -166 -494z" />
    <glyph glyph-name="braceleft.case" horiz-adv-x="377" 
d="M336 815h31v-65h-27c-59 0 -106 -25 -106 -126v-129c0 -85 -28 -132 -101 -149v-2c73 -17 101 -64 101 -149v-149c0 -102 47 -126 106 -126h27v-65h-31c-98 0 -175 48 -175 188v159c0 65 -43 102 -126 106v74c83 4 126 41 126 106v139c0 140 77 188 175 188z" />
    <glyph glyph-name="braceright.case" horiz-adv-x="377" 
d="M41 -145h-31v65h27c58 0 106 24 106 126v149c0 85 27 132 101 149v2c-74 17 -101 64 -101 149v129c0 101 -47 126 -106 126h-27v65h31c97 0 175 -48 175 -188v-139c0 -65 42 -102 126 -106v-74c-84 -4 -126 -41 -126 -106v-159c0 -140 -78 -188 -175 -188z" />
    <glyph glyph-name="bracketleft.case" horiz-adv-x="317" 
d="M106 821h201v-66h-129v-835h129v-65h-201v966z" />
    <glyph glyph-name="bracketright.case" horiz-adv-x="317" 
d="M211 -145h-201v65h129v835h-129v66h201v-966z" />
    <glyph glyph-name="hyphen.case" horiz-adv-x="347" 
d="M45 385h257v-72h-257v72z" />
    <glyph glyph-name="endash.case" horiz-adv-x="752" 
d="M50 384h652v-66h-652v66z" />
    <glyph glyph-name="emdash.case" horiz-adv-x="1154" 
d="M50 384h1054v-66h-1054v66z" />
    <glyph glyph-name="guillemotleft.case" horiz-adv-x="413" 
d="M163 469h84l-145 -155l145 -155h-84l-143 155zM319 469h84l-144 -155l144 -155h-84l-142 155z" />
    <glyph glyph-name="guillemotright.case" horiz-adv-x="413" 
d="M154 314l-144 155h84l143 -155l-143 -155h-84zM311 314l-144 155h83l143 -155l-143 -155h-83z" />
    <glyph glyph-name="guilsinglleft.case" horiz-adv-x="257" 
d="M163 469h84l-145 -155l145 -155h-84l-143 155z" />
    <glyph glyph-name="guilsinglright.case" horiz-adv-x="257" 
d="M154 314l-144 155h84l143 -155l-143 -155h-84z" />
    <glyph glyph-name="quotesinglbase.ss01" horiz-adv-x="167" 
d="M84 102c33 0 57 -26 57 -57c0 -10 -2 -22 -13 -45l-69 -135h-32l43 127c-27 4 -43 28 -43 54c0 30 23 56 57 56z" />
    <glyph glyph-name="quotedblbase.ss01" horiz-adv-x="296" 
d="M80 102c33 0 57 -26 57 -57c0 -10 -2 -22 -14 -45l-68 -135h-32l43 127c-27 4 -44 28 -44 54c0 30 24 56 58 56zM217 102c33 0 57 -26 57 -57c0 -10 -2 -22 -13 -45l-69 -135h-32l43 127c-27 4 -43 28 -43 54c0 30 23 56 57 56z" />
    <glyph glyph-name="quotedblleft.ss01" horiz-adv-x="296" 
d="M79 501c-34 0 -57 26 -57 57c0 9 2 22 13 45l69 135h32l-43 -127c27 -4 43 -28 43 -54c0 -30 -23 -56 -57 -56zM216 501c-33 0 -57 26 -57 57c0 9 2 22 13 45l69 135h32l-43 -127c27 -4 43 -28 43 -54c0 -30 -23 -56 -57 -56z" />
    <glyph glyph-name="quotedblright.ss01" horiz-adv-x="296" 
d="M80 718c33 0 57 -26 57 -58c0 -9 -2 -21 -14 -44l-68 -135h-32l43 127c-27 4 -44 28 -44 54c0 30 24 56 58 56zM217 718c33 0 57 -26 57 -58c0 -9 -2 -21 -13 -44l-69 -135h-32l43 127c-27 4 -43 28 -43 54c0 30 23 56 57 56z" />
    <glyph glyph-name="quoteleft.ss01" horiz-adv-x="167" 
d="M83 500c-33 0 -57 27 -57 58c0 9 2 22 13 44l69 135h32l-43 -127c27 -4 43 -28 43 -54c0 -29 -23 -56 -57 -56z" />
    <glyph glyph-name="quoteright.ss01" horiz-adv-x="167" 
d="M84 717c33 0 57 -26 57 -57c0 -10 -2 -22 -13 -45l-69 -135h-32l43 127c-27 4 -43 28 -43 54c0 30 23 56 57 56z" />
    <glyph glyph-name="parenleft.dnom" horiz-adv-x="213" 
d="M132 426l40 -21c-35 -50 -70 -119 -70 -216c0 -106 36 -185 71 -240l-40 -22c-39 65 -76 142 -76 262c0 109 36 178 75 237z" />
    <glyph glyph-name="parenright.dnom" horiz-adv-x="213" 
d="M81 -73l-42 22c36 55 72 134 72 240c0 97 -35 166 -70 216l40 21c39 -59 75 -128 75 -237c0 -120 -36 -197 -75 -262z" />
    <glyph glyph-name="parenleft.numr" horiz-adv-x="213" 
d="M132 721l40 -21c-35 -50 -70 -119 -70 -216c0 -106 36 -185 71 -240l-40 -22c-39 65 -76 142 -76 262c0 109 36 178 75 237z" />
    <glyph glyph-name="parenright.numr" horiz-adv-x="213" 
d="M81 222l-42 22c36 55 72 134 72 240c0 97 -35 166 -70 216l40 21c39 -59 75 -128 75 -237c0 -120 -36 -197 -75 -262z" />
    <glyph glyph-name="uni0E3F" unicode="&#xe3f;" horiz-adv-x="500" 
d="M347 339v-3c69 -20 113 -75 113 -155c0 -118 -87 -181 -199 -181h-13v-87h-28v87h-180v675h180v87h28v-87h13c111 0 199 -63 199 -181c0 -80 -44 -135 -113 -155zM220 370v237h-108v-237h108zM266 607h-18v-237c89 1 137 48 137 123c0 69 -53 114 -119 114zM112 305v-237
h108v237h-108zM248 68h18c66 0 120 45 120 114c0 75 -49 122 -138 123v-237z" />
    <glyph glyph-name="uni20BF" unicode="&#x20bf;" horiz-adv-x="500" 
d="M347 339v-3c69 -20 113 -76 113 -156c0 -114 -84 -177 -186 -180v-87h-28v87h-49v-87h-28v87h-129v675h129v87h28v-87h49v87h28v-87c102 -3 186 -66 186 -179c0 -80 -44 -137 -113 -157zM257 607h-145v-237h132c92 0 141 47 141 123c0 69 -52 114 -128 114zM112 68h145
c76 0 129 45 129 114c0 76 -50 123 -142 123h-132v-237z" />
    <glyph glyph-name="uni20B4" unicode="&#x20b4;" horiz-adv-x="505" 
d="M485 395h-130c-7 -6 -14 -11 -21 -16l-71 -52h222v-30h-262l-7 -5c-60 -44 -86 -86 -86 -132c0 -56 39 -106 135 -106c59 0 114 20 194 60v-73c-62 -35 -131 -56 -203 -56c-124 0 -201 59 -201 173c0 57 25 101 61 139h-96v30h129c8 6 16 13 25 19l67 49h-221v30h262l4 3
c47 36 73 69 73 112c0 45 -35 82 -110 82c-43 0 -92 -14 -162 -43v72c53 22 107 39 170 39c117 0 177 -59 177 -147c0 -52 -20 -89 -46 -118h97v-30z" />
    <glyph glyph-name="lira" unicode="&#x20a4;" horiz-adv-x="593" 
d="M484 327h69c0 -202 -131 -327 -316 -327h-68v303l-129 -56v31l129 56v56l-129 -56v31l129 56v254h72v-222l195 85v-31l-195 -85v-56l195 85v-31l-195 -85v-261c148 0 243 96 243 253z" />
    <glyph glyph-name="uni20BD" unicode="&#x20bd;" horiz-adv-x="592" 
d="M342 289h-128v-79h225v-30h-225v-180h-72v180h-102v30h102v79h-102v68h102v318h200c136 0 210 -83 210 -195s-74 -191 -210 -191zM342 607h-128v-250h128c81 0 135 41 135 124s-54 126 -135 126z" />
    <glyph glyph-name="uni20B9" unicode="&#x20b9;" horiz-adv-x="514" 
d="M452 645h-162c53 -30 89 -80 94 -149h90l-22 -30h-67c-7 -111 -99 -181 -216 -181h-39l252 -285h-93l-249 285v69h127c88 0 137 48 142 112h-269v30h269c-7 63 -56 110 -142 110h-127v69h434z" />
    <glyph glyph-name="uni20B8" unicode="&#x20b8;" horiz-adv-x="531" 
d="M20 607v68h491v-68h-491zM230 479h-210v68h491v-68h-209v-479h-72v479z" />
    <glyph glyph-name="uni20AE" unicode="&#x20ae;" horiz-adv-x="531" 
d="M511 675v-68h-209v-164l140 72v-31l-140 -72v-56l140 72v-31l-140 -72v-325h-72v289l-140 -72v31l140 72v56l-140 -72v31l140 72v200h-210v68h491z" />
    <glyph glyph-name="uni20A9" unicode="&#x20a9;" horiz-adv-x="948" 
d="M928 422v-30h-98l-19 -68h117v-30h-125l-80 -294h-86l-83 294h-160l-83 -294h-86l-80 294h-125v30h117l-19 68h-98v30h90l-69 253h81l63 -253h173l71 253h89l71 -253h173l63 253h82l-69 -253h90zM475 577h-2l-44 -155h90zM350 392h-157l17 -68h121zM421 392l-19 -68h144
l-19 68h-106zM617 324h121l17 68h-158zM266 98h2l55 196h-106zM680 98h2l49 196h-106z" />
    <glyph glyph-name="uni0E3F.tf" 
d="M397 339v-3c70 -20 113 -75 113 -155c0 -118 -87 -181 -199 -181h-13v-87h-28v87h-180v675h180v87h28v-87h13c111 0 199 -63 199 -181c0 -80 -43 -135 -113 -155zM270 370v237h-108v-237h108zM316 607h-18v-237c89 1 137 48 137 123c0 69 -53 114 -119 114zM162 305v-237
h108v237h-108zM298 68h18c66 0 120 45 120 114c0 75 -49 122 -138 123v-237z" />
    <glyph glyph-name="uni20BF.tf" 
d="M397 339v-3c70 -20 113 -76 113 -156c0 -114 -84 -177 -186 -180v-87h-28v87h-49v-87h-28v87h-129v675h129v87h28v-87h49v87h28v-87c102 -3 186 -66 186 -179c0 -80 -43 -137 -113 -157zM307 607h-145v-237h132c92 0 141 47 141 123c0 69 -52 114 -128 114zM162 68h145
c76 0 129 45 129 114c0 76 -50 123 -142 123h-132v-237z" />
    <glyph glyph-name="uni20B4.tf" 
d="M532 395h-130c-7 -6 -14 -11 -21 -16l-71 -52h222v-30h-262l-7 -5c-59 -44 -86 -86 -86 -132c0 -56 39 -106 136 -106c59 0 114 20 194 60v-73c-62 -35 -132 -56 -204 -56c-123 0 -201 59 -201 173c0 57 25 101 61 139h-95v30h129c8 6 16 13 25 19l66 49h-220v30h261l4 3
c47 36 73 69 73 112c0 45 -34 82 -109 82c-43 0 -92 -14 -162 -43v72c53 22 107 39 170 39c117 0 176 -59 176 -147c0 -52 -20 -89 -46 -118h97v-30z" />
    <glyph glyph-name="lira.tf" 
d="M487 327h70c0 -202 -131 -327 -316 -327h-69v303l-129 -56v31l129 56v56l-129 -56v31l129 56v254h72v-222l195 85v-31l-195 -85v-56l195 85v-31l-195 -85v-261c149 0 243 96 243 253z" />
    <glyph glyph-name="uni20BD.tf" 
d="M346 289h-128v-79h225v-30h-225v-180h-72v180h-102v30h102v79h-102v68h102v318h200c136 0 210 -83 210 -195s-74 -191 -210 -191zM346 607h-128v-250h128c81 0 135 41 135 124s-54 126 -135 126z" />
    <glyph glyph-name="uni20B9.tf" 
d="M494 645h-161c53 -30 88 -80 93 -149h90l-22 -30h-67c-7 -111 -98 -181 -215 -181h-39l252 -285h-93l-249 285v69h126c88 0 137 48 142 112h-268v30h268c-7 63 -56 110 -142 110h-126v69h433z" />
    <glyph glyph-name="uni20B8.tf" 
d="M54 607v68h492v-68h-492zM264 479h-210v68h492v-68h-210v-479h-72v479z" />
    <glyph glyph-name="uni20AE.tf" 
d="M546 675v-68h-210v-164l140 72v-31l-140 -72v-56l140 72v-31l-140 -72v-325h-72v289l-140 -72v31l140 72v56l-140 -72v31l140 72v200h-210v68h492z" />
    <glyph glyph-name="uni20A9.tf" 
d="M600 425v-30h-61l-11 -68h72v-30h-77l-49 -297h-77l-50 297h-94l-50 -297h-76l-49 297h-78v30h73l-12 68h-61v30h56l-41 250h70l36 -250h101l42 250h72l42 -250h102l36 250h69l-41 -250h56zM302 565h-4l-24 -140h52zM217 395h-92l10 -68h71zM269 395l-11 -68h84l-11 68
h-62zM395 327h71l10 68h-93zM166 108h3l32 189h-62zM432 108h3l27 189h-62z" />
    <glyph glyph-name="uni208C" unicode="&#x208c;" horiz-adv-x="390" 
d="M56 190h278v-31h-278v31zM56 79h278v-30h-278v30z" />
    <glyph glyph-name="uni207C" unicode="&#x207c;" horiz-adv-x="390" 
d="M56 645h278v-31h-278v31zM56 534h278v-30h-278v30z" />
    <glyph glyph-name="uni208B" unicode="&#x208b;" horiz-adv-x="390" 
d="M64 135h262v-32h-262v32z" />
    <glyph glyph-name="uni207B" unicode="&#x207b;" horiz-adv-x="390" 
d="M64 590h262v-32h-262v32z" />
    <glyph glyph-name="uni208A" unicode="&#x208a;" horiz-adv-x="390" 
d="M179 253h32v-119h119v-30h-119v-119h-32v119h-119v30h119v119z" />
    <glyph glyph-name="uni207A" unicode="&#x207a;" horiz-adv-x="390" 
d="M179 708h32v-119h119v-30h-119v-119h-32v119h-119v30h119v119z" />
    <glyph glyph-name="plus.case" 
d="M279 581h42v-224h223v-38h-223v-224h-42v224h-223v38h223v224z" />
    <glyph glyph-name="minus.case" 
d="M61 358h478v-40h-478v40z" />
    <glyph glyph-name="multiply.case" 
d="M300 367l184 184l29 -29l-184 -184l184 -184l-29 -29l-184 184l-184 -184l-29 29l184 184l-184 184l29 29z" />
    <glyph glyph-name="divide.case" 
d="M265 530h70v-78h-70v78zM41 358h518v-39h-518v39zM265 225h70v-79h-70v79z" />
    <glyph glyph-name="equal.case" 
d="M47 448h506v-39h-506v39zM47 269h506v-39h-506v39z" />
    <glyph glyph-name="notequal.case" 
d="M553 448v-39h-191l-83 -140h274v-39h-297l-61 -103h-39l61 103h-170v39h193l82 140h-275v39h298l60 102h40l-60 -102h168z" />
    <glyph glyph-name="greater.case" 
d="M79 509v46l442 -195v-41l-442 -195v45l392 170z" />
    <glyph glyph-name="less.case" 
d="M79 360l442 195v-46l-392 -170l392 -170v-45l-442 195v41z" />
    <glyph glyph-name="approxequal.case" 
d="M170 486c75 0 196 -74 259 -74c34 0 61 20 76 65h39c-19 -75 -64 -107 -114 -107c-77 0 -196 74 -259 74c-34 0 -61 -21 -76 -66h-39c19 77 66 108 114 108zM170 332c75 0 196 -74 259 -74c34 0 61 21 76 66h39c-19 -75 -64 -107 -114 -107c-77 0 -196 73 -259 73
c-34 0 -61 -21 -76 -66h-39c19 77 66 108 114 108z" />
    <glyph glyph-name="logicalnot.case" 
d="M71 432v40h458v-265h-42v225h-416z" />
    <glyph glyph-name="divide.ss01.case" 
d="M300 443c-24 0 -41 18 -41 42s17 41 41 41s41 -17 41 -41s-17 -42 -41 -42zM559 319h-518v39h518v-39zM300 151c-24 0 -41 17 -41 41c0 25 17 42 41 42s41 -17 41 -42c0 -24 -17 -41 -41 -41z" />
    <glyph glyph-name="divide.ss01" 
d="M300 403c-24 0 -41 18 -41 42s17 41 41 41s41 -17 41 -41s-17 -42 -41 -42zM559 279h-518v39h518v-39zM300 111c-24 0 -41 17 -41 41c0 25 17 42 41 42s41 -17 41 -42c0 -24 -17 -41 -41 -41z" />
    <glyph glyph-name="arrowup" unicode="&#x2191;" horiz-adv-x="730" 
d="M365 641l315 -300l-52 -52l-229 228v-596h-68v596l-229 -228l-52 52z" />
    <glyph glyph-name="uni2197" unicode="&#x2197;" horiz-adv-x="644" 
d="M583 538l11 -435h-74v324l-422 -422l-48 48l422 421l-324 1v73z" />
    <glyph glyph-name="arrowright" unicode="&#x2192;" horiz-adv-x="820" 
d="M418 554l52 52l300 -315l-300 -315l-52 52l228 229h-596v68h596z" />
    <glyph glyph-name="uni2198" unicode="&#x2198;" horiz-adv-x="643" 
d="M519 153l1 323l73 1l-10 -435l-435 -11v73l323 1l-421 421l48 48z" />
    <glyph glyph-name="arrowdown" unicode="&#x2193;" horiz-adv-x="730" 
d="M399 64l229 228l52 -52l-315 -300l-315 300l52 52l229 -228v596h68v-596z" />
    <glyph glyph-name="uni2199" unicode="&#x2199;" horiz-adv-x="644" 
d="M594 527l-422 -421l323 -1l1 -73l-435 10l-11 435h74v-323l421 421z" />
    <glyph glyph-name="arrowleft" unicode="&#x2190;" horiz-adv-x="820" 
d="M174 324h596v-68h-596l228 -229l-52 -52l-300 315l300 315l52 -52z" />
    <glyph glyph-name="uni2196" unicode="&#x2196;" horiz-adv-x="643" 
d="M172 475l421 -421l-48 -48l-421 421l-1 -323l-73 -1l10 435l435 11v-73z" />
    <glyph glyph-name="arrowboth" unicode="&#x2194;" horiz-adv-x="1259" 
d="M857 553l52 52l300 -315l-300 -315l-52 52l228 229h-911l228 -229l-52 -52l-300 315l300 315l52 -52l-228 -229h911z" />
    <glyph glyph-name="arrowupdn" unicode="&#x2195;" horiz-adv-x="730" 
d="M399 -109l229 228l52 -52l-315 -300l-315 300l52 52l229 -228v809l-229 -228l-52 52l315 300l315 -300l-52 -52l-229 228v-809z" />
    <glyph glyph-name="arrowup.case" horiz-adv-x="730" 
d="M365 721l315 -300l-52 -52l-229 228v-596h-68v596l-229 -228l-52 52z" />
    <glyph glyph-name="uni2197.case" horiz-adv-x="644" 
d="M583 618l11 -435h-74v324l-422 -422l-48 48l422 421l-324 1v73z" />
    <glyph glyph-name="arrowright.case" horiz-adv-x="820" 
d="M418 634l52 52l300 -315l-300 -315l-52 52l228 229h-596v68h596z" />
    <glyph glyph-name="uni2198.case" horiz-adv-x="643" 
d="M519 233l1 323l73 1l-10 -435l-435 -11v73l323 1l-421 421l48 48z" />
    <glyph glyph-name="arrowdown.case" horiz-adv-x="730" 
d="M399 144l229 228l52 -52l-315 -300l-315 300l52 52l229 -228v596h68v-596z" />
    <glyph glyph-name="uni2199.case" horiz-adv-x="644" 
d="M594 607l-422 -421l323 -1l1 -73l-435 10l-11 435h74v-323l421 421z" />
    <glyph glyph-name="arrowleft.case" horiz-adv-x="820" 
d="M174 404h596v-68h-596l228 -229l-52 -52l-300 315l300 315l52 -52z" />
    <glyph glyph-name="uni2196.case" horiz-adv-x="643" 
d="M172 555l421 -421l-48 -48l-421 421l-1 -323l-73 -1l10 435l435 11v-73z" />
    <glyph glyph-name="arrowboth.case" horiz-adv-x="1259" 
d="M857 633l52 52l300 -315l-300 -315l-52 52l228 229h-911l228 -229l-52 -52l-300 315l300 315l52 -52l-228 -229h911z" />
    <glyph glyph-name="uni25CF" unicode="&#x25cf;" horiz-adv-x="830" 
d="M415 -15c-210 0 -365 157 -365 365s155 365 365 365s365 -157 365 -365s-155 -365 -365 -365z" />
    <glyph glyph-name="circle" unicode="&#x25cb;" horiz-adv-x="830" 
d="M415 -15c-215 0 -365 154 -365 365s150 365 365 365s365 -154 365 -365s-150 -365 -365 -365zM415 28c185 0 318 137 318 322s-133 322 -318 322s-318 -137 -318 -322s133 -322 318 -322z" />
    <glyph glyph-name="at.case" horiz-adv-x="934" 
d="M479 760c236 0 405 -151 405 -387c0 -131 -57 -243 -163 -243c-55 0 -93 25 -107 86h-3c-25 -53 -77 -95 -157 -95c-112 0 -205 84 -205 218c0 135 92 218 205 218c68 0 121 -30 151 -89h2v74h64v-288c0 -52 27 -70 56 -70c63 0 96 77 96 185c0 216 -158 333 -344 333
c-193 0 -367 -117 -367 -364c0 -250 196 -360 375 -360c73 0 147 18 202 44l24 -55c-63 -26 -144 -47 -227 -47c-205 0 -436 126 -436 416c0 274 187 424 429 424zM465 493c-90 0 -146 -66 -146 -153s55 -153 146 -153c89 0 147 66 147 153s-58 153 -147 153z" />
    <glyph glyph-name="bar.case" horiz-adv-x="284" 
d="M110 807h64v-942h-64v942z" />
    <glyph glyph-name="brokenbar.case" horiz-adv-x="284" 
d="M110 807h64v-388h-64v388zM110 261h64v-396h-64v396z" />
    <glyph glyph-name="uniF8FF.ss01" horiz-adv-x="770" 
d="M385 -15c-212 0 -365 154 -365 365s153 365 365 365s365 -154 365 -365s-153 -365 -365 -365zM385 10c192 0 342 141 342 345l-51 65l-70 -30l-68 90l-79 -44l-74 118l-74 -118l-79 44l-68 -90l-70 30l-51 -65c0 -204 150 -345 342 -345zM282 318c-20 0 -35 15 -35 35
s15 35 35 35s35 -15 35 -35s-15 -35 -35 -35zM487 318c-20 0 -35 15 -35 35s15 35 35 35s35 -15 35 -35s-15 -35 -35 -35zM401 255h-58l36 101c1 5 6 7 11 5c4 -1 7 -6 5 -11l-28 -78h34c5 0 9 -4 9 -9c0 -4 -4 -8 -9 -8zM188 171c-40 0 -69 29 -69 69s29 69 69 69
s69 -29 69 -69s-29 -69 -69 -69zM581 171c-40 0 -69 29 -69 69s29 69 69 69s69 -29 69 -69s-29 -69 -69 -69zM385 195c43 0 57 21 62 30c2 4 4 6 9 6s8 -4 8 -9c0 -13 -22 -45 -79 -45s-79 32 -79 45c0 5 3 9 8 9s7 -2 9 -6c5 -9 19 -30 62 -30z" />
    <glyph glyph-name="plus.dnom" horiz-adv-x="361" 
d="M167 306h27v-109h109v-27h-109v-108h-27v108h-109v27h109v109z" />
    <glyph glyph-name="minus.dnom" horiz-adv-x="360" 
d="M61 198h238v-28h-238v28z" />
    <glyph glyph-name="equal.dnom" horiz-adv-x="361" 
d="M54 247h253v-26h-253v26zM54 148h253v-27h-253v27z" />
    <glyph glyph-name="plus.numr" horiz-adv-x="361" 
d="M167 601h27v-109h109v-27h-109v-108h-27v108h-109v27h109v109z" />
    <glyph glyph-name="minus.numr" horiz-adv-x="360" 
d="M61 493h238v-28h-238v28z" />
    <glyph glyph-name="equal.numr" horiz-adv-x="361" 
d="M54 542h253v-26h-253v26zM54 443h253v-27h-253v27z" />
    <glyph glyph-name="uni02BC.ss01" horiz-adv-x="167" 
d="M84 717c33 0 57 -26 57 -57c0 -10 -2 -22 -13 -45l-69 -135h-32l43 127c-27 4 -43 28 -43 54c0 30 23 56 57 56z" />
    <glyph glyph-name="dotbelowcomb" unicode="&#x323;" horiz-adv-x="0" 
d="M-141 -80h91v-120h-91v120z" />
    <glyph glyph-name="uni0308.i.case.alt" horiz-adv-x="0" 
d="M-538 843h71v-100h-71v100zM-427 843h72v-100h-72v100z" />
    <glyph glyph-name="uni0308.i.alt" horiz-adv-x="0" 
d="M-541 690h68v-116h-68v116zM-443 690h68v-116h-68v116z" />
    <glyph glyph-name="uni0308.case" horiz-adv-x="0" 
d="M-332 843h83v-100h-83v100zM-133 843h83v-100h-83v100z" />
    <glyph glyph-name="uni0307.case" horiz-adv-x="0" 
d="M-133 850h83v-107h-83v107z" />
    <glyph glyph-name="gravecomb.case" horiz-adv-x="0" 
d="M-242 863h97l95 -120h-58z" />
    <glyph glyph-name="acutecomb.case" horiz-adv-x="0" 
d="M-147 863h97l-134 -120h-58z" />
    <glyph glyph-name="uni030B.case" horiz-adv-x="0" 
d="M-227 863h70l-103 -120h-55zM-120 863h70l-103 -120h-55z" />
    <glyph glyph-name="uni0302.case" horiz-adv-x="0" 
d="M-249 863h76l123 -120h-77l-84 81l-83 -81h-77z" />
    <glyph glyph-name="uni030C.case" horiz-adv-x="0" 
d="M-50 863l-123 -120h-76l-122 120h77l83 -81l84 81h77z" />
    <glyph glyph-name="uni0306.case" horiz-adv-x="0" 
d="M-103 863h53c-3 -76 -57 -120 -136 -120s-133 44 -136 120h53c3 -45 33 -70 83 -70s80 25 83 70z" />
    <glyph glyph-name="uni030A.case" horiz-adv-x="0" 
d="M-165 890c67 0 115 -48 115 -115c0 -66 -48 -114 -115 -114s-116 48 -116 114c0 67 49 115 116 115zM-166 851c-44 0 -74 -31 -74 -76c0 -43 30 -75 74 -75c45 0 75 32 75 75c0 45 -30 76 -75 76z" />
    <glyph glyph-name="tildecomb.case" horiz-adv-x="0" 
d="M-146 747c-55 0 -120 53 -162 53c-22 0 -41 -15 -54 -47l-33 11c13 44 40 94 96 94c54 0 121 -52 162 -52c22 0 41 15 54 46l33 -10c-13 -44 -40 -95 -96 -95z" />
    <glyph glyph-name="uni0304.case" horiz-adv-x="0" 
d="M-332 829h282v-56h-282v56z" />
    <glyph glyph-name="dotbelowcomb.ss01" horiz-adv-x="0" 
d="M-112 -88c33 0 59 -25 59 -59c0 -33 -26 -59 -59 -59s-59 26 -59 59c0 34 26 59 59 59z" />
    <glyph glyph-name="uni0308.i.case.alt.ss01" horiz-adv-x="0" 
d="M-507 854c29 0 43 -24 43 -56s-14 -56 -43 -56s-43 24 -43 56s14 56 43 56zM-396 854c29 0 43 -24 43 -56s-14 -56 -43 -56s-43 24 -43 56s14 56 43 56z" />
    <glyph glyph-name="uni0308.i.alt.ss01" horiz-adv-x="0" 
d="M-435 700c26 0 37 -25 37 -58s-11 -58 -37 -58c-25 0 -37 25 -37 58s12 58 37 58zM-342 700c25 0 37 -25 37 -58s-12 -58 -37 -58c-26 0 -37 25 -37 58s11 58 37 58z" />
    <glyph glyph-name="uni0308.case.ss01" horiz-adv-x="0" 
d="M-312 854c32 0 56 -24 56 -56s-24 -56 -56 -56s-56 24 -56 56s24 56 56 56zM-106 854c32 0 56 -24 56 -56s-24 -56 -56 -56s-56 24 -56 56s24 56 56 56z" />
    <glyph glyph-name="uni0307.case.ss01" horiz-adv-x="0" 
d="M-106 854c32 0 56 -24 56 -56s-24 -56 -56 -56s-56 24 -56 56s24 56 56 56z" />
    <glyph glyph-name="caronaccentcomb" horiz-adv-x="212" 
d="M50 533l40 174h72l-57 -174h-55z" />
    </font>
</defs>
</svg>
